%TF.GenerationSoftware,KiCad,Pcbnew,(6.0.4-0)*%
%TF.CreationDate,2022-07-18T13:44:01-07:00*%
%TF.ProjectId,sailface-mega-shield,7361696c-6661-4636-952d-6d6567612d73,v0.2*%
%TF.SameCoordinates,Original*%
%TF.FileFunction,Copper,L1,Top*%
%TF.FilePolarity,Positive*%
%FSLAX46Y46*%
G04 Gerber Fmt 4.6, Leading zero omitted, Abs format (unit mm)*
G04 Created by KiCad (PCBNEW (6.0.4-0)) date 2022-07-18 13:44:01*
%MOMM*%
%LPD*%
G01*
G04 APERTURE LIST*
%TA.AperFunction,ComponentPad*%
%ADD10C,4.064000*%
%TD*%
%TA.AperFunction,ComponentPad*%
%ADD11C,1.400000*%
%TD*%
%TA.AperFunction,ComponentPad*%
%ADD12O,1.400000X1.400000*%
%TD*%
%TA.AperFunction,ComponentPad*%
%ADD13C,1.727200*%
%TD*%
%TA.AperFunction,ComponentPad*%
%ADD14O,1.727200X1.727200*%
%TD*%
%TA.AperFunction,ComponentPad*%
%ADD15O,1.727200X2.032000*%
%TD*%
%TA.AperFunction,ComponentPad*%
%ADD16R,1.600000X1.600000*%
%TD*%
%TA.AperFunction,ComponentPad*%
%ADD17C,1.600000*%
%TD*%
%TA.AperFunction,ComponentPad*%
%ADD18R,1.050000X1.500000*%
%TD*%
%TA.AperFunction,ComponentPad*%
%ADD19O,1.050000X1.500000*%
%TD*%
%TA.AperFunction,ComponentPad*%
%ADD20R,1.700000X1.700000*%
%TD*%
%TA.AperFunction,ComponentPad*%
%ADD21O,1.700000X1.700000*%
%TD*%
%TA.AperFunction,ComponentPad*%
%ADD22R,2.800000X2.800000*%
%TD*%
%TA.AperFunction,ComponentPad*%
%ADD23O,2.800000X2.800000*%
%TD*%
%TA.AperFunction,ViaPad*%
%ADD24C,0.600000*%
%TD*%
%TA.AperFunction,Conductor*%
%ADD25C,0.250000*%
%TD*%
G04 APERTURE END LIST*
D10*
X109220000Y-106172000D03*
D11*
X139700000Y-111760000D03*
D12*
X139700000Y-104140000D03*
D11*
X162560000Y-101600000D03*
D12*
X162560000Y-93980000D03*
D11*
X144780000Y-107950000D03*
D12*
X144780000Y-115570000D03*
D11*
X151130000Y-88900000D03*
D12*
X143510000Y-88900000D03*
D11*
X162560000Y-91440000D03*
D12*
X162560000Y-83820000D03*
D13*
X197358000Y-114046000D03*
D14*
X199898000Y-114046000D03*
X197358000Y-111506000D03*
X199898000Y-111506000D03*
X197358000Y-108966000D03*
X199898000Y-108966000D03*
X197358000Y-106426000D03*
X199898000Y-106426000D03*
X197358000Y-103886000D03*
X199898000Y-103886000D03*
X197358000Y-101346000D03*
X199898000Y-101346000D03*
X197358000Y-98806000D03*
X199898000Y-98806000D03*
X197358000Y-96266000D03*
X199898000Y-96266000D03*
X197358000Y-93726000D03*
X199898000Y-93726000D03*
X197358000Y-91186000D03*
X199898000Y-91186000D03*
X197358000Y-88646000D03*
X199898000Y-88646000D03*
X197358000Y-86106000D03*
X199898000Y-86106000D03*
X197358000Y-83566000D03*
X199898000Y-83566000D03*
X197358000Y-81026000D03*
X199898000Y-81026000D03*
X197358000Y-78486000D03*
X199898000Y-78486000D03*
X197358000Y-75946000D03*
X199898000Y-75946000D03*
X197358000Y-73406000D03*
X199898000Y-73406000D03*
X197358000Y-70866000D03*
X199898000Y-70866000D03*
D15*
X131318000Y-119126000D03*
X133858000Y-119126000D03*
X136398000Y-119126000D03*
X138938000Y-119126000D03*
X141478000Y-119126000D03*
X144018000Y-119126000D03*
X146558000Y-119126000D03*
X149098000Y-119126000D03*
X154178000Y-119126000D03*
X156718000Y-119126000D03*
X159258000Y-119126000D03*
X161798000Y-119126000D03*
X164338000Y-119126000D03*
X166878000Y-119126000D03*
X169418000Y-119126000D03*
X171958000Y-119126000D03*
X177038000Y-119126000D03*
X179578000Y-119126000D03*
X182118000Y-119126000D03*
X184658000Y-119126000D03*
X187198000Y-119126000D03*
X189738000Y-119126000D03*
X192278000Y-119126000D03*
X194818000Y-119126000D03*
X122174000Y-70866000D03*
X124714000Y-70866000D03*
X127254000Y-70866000D03*
X129794000Y-70866000D03*
X132334000Y-70866000D03*
X134874000Y-70866000D03*
X137414000Y-70866000D03*
X139954000Y-70866000D03*
X142494000Y-70866000D03*
X145034000Y-70866000D03*
X149098000Y-70866000D03*
X151638000Y-70866000D03*
X154178000Y-70866000D03*
X156718000Y-70866000D03*
X159258000Y-70866000D03*
X161798000Y-70866000D03*
X164338000Y-70866000D03*
X166878000Y-70866000D03*
X171958000Y-70866000D03*
X174498000Y-70866000D03*
X177038000Y-70866000D03*
X179578000Y-70866000D03*
X182118000Y-70866000D03*
X184658000Y-70866000D03*
X187198000Y-70866000D03*
X189738000Y-70866000D03*
D10*
X117348000Y-119126000D03*
X169418000Y-114046000D03*
X199898000Y-119126000D03*
X118618000Y-70866000D03*
X169418000Y-86106000D03*
X193548000Y-70866000D03*
D16*
X117380000Y-111760000D03*
D17*
X119380000Y-111760000D03*
D18*
X137160000Y-86360000D03*
D19*
X138430000Y-86360000D03*
X139700000Y-86360000D03*
D20*
X190500000Y-93980000D03*
D21*
X190500000Y-96520000D03*
X190500000Y-99060000D03*
D16*
X121920000Y-106680000D03*
D17*
X123920000Y-106680000D03*
D20*
X190500000Y-81280000D03*
D21*
X190500000Y-78740000D03*
D20*
X190500000Y-111760000D03*
D21*
X190500000Y-114300000D03*
D20*
X190500000Y-104140000D03*
D21*
X190500000Y-106680000D03*
D20*
X152400000Y-78740000D03*
D21*
X149860000Y-78740000D03*
X147320000Y-78740000D03*
X144780000Y-78740000D03*
X142240000Y-78740000D03*
X139700000Y-78740000D03*
X137160000Y-78740000D03*
X134620000Y-78740000D03*
X132080000Y-78740000D03*
X129540000Y-78740000D03*
D22*
X185420000Y-88900000D03*
D23*
X190500000Y-88900000D03*
D16*
X127540000Y-111760000D03*
D17*
X129540000Y-111760000D03*
D20*
X176505000Y-78765000D03*
D21*
X173965000Y-78765000D03*
X171425000Y-78765000D03*
X168885000Y-78765000D03*
X166345000Y-78765000D03*
X163805000Y-78765000D03*
D20*
X180340000Y-109220000D03*
D21*
X177800000Y-109220000D03*
X175260000Y-109220000D03*
X172720000Y-109220000D03*
X170180000Y-109220000D03*
X167640000Y-109220000D03*
X165100000Y-109220000D03*
X162560000Y-109220000D03*
X160020000Y-109220000D03*
X157480000Y-109220000D03*
X130785000Y-99085000D03*
X133325000Y-99085000D03*
X135865000Y-99085000D03*
X138405000Y-99085000D03*
X140945000Y-99085000D03*
D20*
X143485000Y-99085000D03*
X106680000Y-73660000D03*
D21*
X109220000Y-73660000D03*
X111760000Y-73660000D03*
X114300000Y-73660000D03*
D18*
X154940000Y-86360000D03*
D19*
X156210000Y-86360000D03*
X157480000Y-86360000D03*
D18*
X154940000Y-99060000D03*
D19*
X156210000Y-99060000D03*
X157480000Y-99060000D03*
D24*
X152400000Y-106680000D03*
D25*
X129540000Y-115351585D02*
X132669880Y-118481465D01*
X142240000Y-93980000D02*
X137160000Y-88900000D01*
X129540000Y-111760000D02*
X129540000Y-115351585D01*
X140945000Y-99085000D02*
X144120000Y-102260000D01*
X190500000Y-107188000D02*
X190500000Y-106680000D01*
X128664511Y-112884511D02*
X129540000Y-112009022D01*
X144018000Y-119126000D02*
X146558000Y-119126000D01*
X154940000Y-104140000D02*
X154940000Y-99060000D01*
X133815385Y-120916040D02*
X142227960Y-120916040D01*
X123920000Y-106680000D02*
X123920000Y-110389022D01*
X123920000Y-107220000D02*
X123920000Y-106680000D01*
X197104000Y-114300000D02*
X197358000Y-114046000D01*
X124460000Y-76200000D02*
X116840000Y-76200000D01*
X137160000Y-88900000D02*
X137160000Y-86360000D01*
X199898000Y-114046000D02*
X197358000Y-114046000D01*
X129794000Y-70866000D02*
X124460000Y-76200000D01*
X137160000Y-86360000D02*
X134620000Y-86360000D01*
X134620000Y-86360000D02*
X124460000Y-76200000D01*
X144018000Y-116332000D02*
X144780000Y-115570000D01*
X119380000Y-111760000D02*
X123920000Y-107220000D01*
X129540000Y-112009022D02*
X129540000Y-111760000D01*
X144018000Y-119126000D02*
X144018000Y-116332000D01*
X132669880Y-119770535D02*
X133815385Y-120916040D01*
X126415489Y-112884511D02*
X128664511Y-112884511D01*
X152400000Y-106680000D02*
X154940000Y-104140000D01*
X197358000Y-114046000D02*
X190500000Y-107188000D01*
X132669880Y-118481465D02*
X132669880Y-119770535D01*
X154940000Y-86360000D02*
X154940000Y-93980000D01*
X190500000Y-114300000D02*
X197104000Y-114300000D01*
X142227960Y-120916040D02*
X144018000Y-119126000D01*
X144120000Y-102260000D02*
X147320000Y-99060000D01*
X154940000Y-93980000D02*
X142240000Y-93980000D01*
X116840000Y-76200000D02*
X114300000Y-73660000D01*
X154940000Y-93980000D02*
X154940000Y-99060000D01*
X123920000Y-110389022D02*
X126415489Y-112884511D01*
X147320000Y-99060000D02*
X154940000Y-99060000D01*
X197358000Y-70866000D02*
X195001489Y-73222511D01*
X194356479Y-73222511D02*
X162560000Y-105018990D01*
X201086111Y-72054111D02*
X199898000Y-70866000D01*
X162560000Y-105018990D02*
X162560000Y-109220000D01*
X191597889Y-97617889D02*
X200226355Y-97617889D01*
X190500000Y-96520000D02*
X191597889Y-97617889D01*
X200226355Y-97617889D02*
X201086111Y-96758133D01*
X195001489Y-73222511D02*
X194356479Y-73222511D01*
X197358000Y-70866000D02*
X199898000Y-70866000D01*
X201086111Y-96758133D02*
X201086111Y-72054111D01*
X130286135Y-69525480D02*
X131145880Y-70385225D01*
X126054520Y-69525480D02*
X130286135Y-69525480D01*
X122174000Y-70866000D02*
X123964040Y-69075960D01*
X134916615Y-69075960D02*
X136062120Y-70221465D01*
X136062120Y-70221465D02*
X136062120Y-72761465D01*
X136062120Y-72761465D02*
X141341465Y-72761465D01*
X131145880Y-71510535D02*
X135835345Y-76200000D01*
X123964040Y-69075960D02*
X134916615Y-69075960D01*
X124714000Y-70866000D02*
X126054520Y-69525480D01*
X135835345Y-76200000D02*
X142240000Y-76200000D01*
X141341465Y-72761465D02*
X147320000Y-78740000D01*
X142240000Y-76200000D02*
X144780000Y-78740000D01*
X131145880Y-70385225D02*
X131145880Y-71510535D01*
X143485000Y-99085000D02*
X140920000Y-96520000D01*
X140920000Y-96520000D02*
X127000000Y-96520000D01*
X138938000Y-119126000D02*
X138938000Y-113538000D01*
X106680000Y-81280000D02*
X106680000Y-73660000D01*
X127000000Y-96520000D02*
X124460000Y-99060000D01*
X124460000Y-99060000D02*
X129540000Y-104140000D01*
X138938000Y-113538000D02*
X129540000Y-104140000D01*
X124460000Y-99060000D02*
X106680000Y-81280000D01*
X174990135Y-69525480D02*
X175709520Y-70244865D01*
X161194511Y-108733501D02*
X161194511Y-109944991D01*
X166465489Y-109706499D02*
X166465489Y-108733501D01*
X161835009Y-108093003D02*
X161194511Y-108733501D01*
X169005489Y-109706499D02*
X169693501Y-110394511D01*
X161194511Y-109944991D02*
X162560000Y-111310480D01*
X177800000Y-76708000D02*
X177800000Y-88900000D01*
X169005489Y-108924479D02*
X169005489Y-109706499D01*
X168126499Y-108045489D02*
X169005489Y-108924479D01*
X167153501Y-108045489D02*
X168126499Y-108045489D01*
X162560000Y-111310480D02*
X164861508Y-111310480D01*
X173298520Y-69525480D02*
X174990135Y-69525480D01*
X166465489Y-108733501D02*
X167153501Y-108045489D01*
X164861508Y-111310480D02*
X166465489Y-109706499D01*
X171958000Y-70866000D02*
X173298520Y-69525480D01*
X179165489Y-110394511D02*
X180340000Y-109220000D01*
X177800000Y-88900000D02*
X161835009Y-104864991D01*
X161835009Y-104864991D02*
X161835009Y-108093003D01*
X169693501Y-110394511D02*
X179165489Y-110394511D01*
X175709520Y-70244865D02*
X175709520Y-74617520D01*
X175709520Y-74617520D02*
X177800000Y-76708000D01*
X186594511Y-92805489D02*
X170180000Y-109220000D01*
X197358000Y-93726000D02*
X196437489Y-92805489D01*
X196437489Y-92805489D02*
X186594511Y-92805489D01*
X158654511Y-109515521D02*
X158654511Y-105505489D01*
X160558793Y-105505489D02*
X175260000Y-90804282D01*
X175260000Y-71628000D02*
X174498000Y-70866000D01*
X167640000Y-109220000D02*
X165100000Y-111760000D01*
X175260000Y-90804282D02*
X175260000Y-71628000D01*
X165100000Y-111760000D02*
X160898990Y-111760000D01*
X160898990Y-111760000D02*
X158654511Y-109515521D01*
X158654511Y-105505489D02*
X160558793Y-105505489D01*
X197029645Y-92537889D02*
X197850133Y-92537889D01*
X198546111Y-95077889D02*
X197358000Y-96266000D01*
X197850133Y-92537889D02*
X198546111Y-93233867D01*
X195775512Y-91283756D02*
X197029645Y-92537889D01*
X165100000Y-109220000D02*
X183036244Y-91283756D01*
X198546111Y-93233867D02*
X198546111Y-95077889D01*
X183036244Y-91283756D02*
X195775512Y-91283756D01*
X149860000Y-81280000D02*
X149860000Y-78740000D01*
X144780000Y-86360000D02*
X149860000Y-81280000D01*
X139700000Y-86360000D02*
X144780000Y-86360000D01*
X149664520Y-87434520D02*
X151130000Y-88900000D01*
X139084031Y-87434520D02*
X149664520Y-87434520D01*
X138430000Y-86780489D02*
X139084031Y-87434520D01*
X138430000Y-86360000D02*
X138430000Y-86780489D01*
X140970000Y-104140000D02*
X139700000Y-104140000D01*
X154178000Y-119126000D02*
X154178000Y-117348000D01*
X154178000Y-117348000D02*
X144780000Y-107950000D01*
X144780000Y-107950000D02*
X140970000Y-104140000D01*
X190500000Y-81280000D02*
X190500000Y-88900000D01*
X159750135Y-120466520D02*
X160446120Y-119770535D01*
X160446120Y-117049597D02*
X165806229Y-111689489D01*
X150438520Y-120466520D02*
X159750135Y-120466520D01*
X130785000Y-102845000D02*
X130785000Y-99085000D01*
X124385789Y-105555489D02*
X127540000Y-108709700D01*
X149098000Y-119126000D02*
X150438520Y-120466520D01*
X160446120Y-119770535D02*
X160446120Y-117049597D01*
X123044511Y-105555489D02*
X124385789Y-105555489D01*
X121920000Y-107220000D02*
X121920000Y-106680000D01*
X121920000Y-106680000D02*
X123044511Y-105555489D01*
X117380000Y-111760000D02*
X121920000Y-107220000D01*
X127540000Y-108709700D02*
X127540000Y-111760000D01*
X139700000Y-111760000D02*
X130785000Y-102845000D01*
X165806229Y-111689489D02*
X182950511Y-111689489D01*
X182950511Y-111689489D02*
X190500000Y-104140000D01*
X166345000Y-78765000D02*
X166345000Y-74646345D01*
X166345000Y-74646345D02*
X171915385Y-69075960D01*
X175247960Y-69075960D02*
X177038000Y-70866000D01*
X171915385Y-69075960D02*
X175247960Y-69075960D01*
X157480000Y-99060000D02*
X157480000Y-109220000D01*
X148406520Y-72206520D02*
X161535489Y-85335489D01*
X161535489Y-85335489D02*
X161535489Y-92955489D01*
X161535489Y-92955489D02*
X162560000Y-93980000D01*
X137414000Y-70866000D02*
X138754520Y-72206520D01*
X138754520Y-72206520D02*
X148406520Y-72206520D01*
M02*
