M48
; DRILL file {KiCad (6.0.4-0)} date Monday, July 18, 2022 at 01:44:38 PM
; FORMAT={-:-/ absolute / metric / decimal}
; #@! TF.CreationDate,2022-07-18T13:44:38-07:00
; #@! TF.GenerationSoftware,Kicad,Pcbnew,(6.0.4-0)
; #@! TF.FileFunction,Plated,1,2,PTH
FMAT,2
METRIC
; #@! TA.AperFunction,Plated,PTH,ViaDrill
T1C0.400
; #@! TA.AperFunction,Plated,PTH,ComponentDrill
T2C0.700
; #@! TA.AperFunction,Plated,PTH,ComponentDrill
T3C0.750
; #@! TA.AperFunction,Plated,PTH,ComponentDrill
T4C0.800
; #@! TA.AperFunction,Plated,PTH,ComponentDrill
T5C1.000
; #@! TA.AperFunction,Plated,PTH,ComponentDrill
T6C1.016
; #@! TA.AperFunction,Plated,PTH,ComponentDrill
T7C1.400
; #@! TA.AperFunction,Plated,PTH,ComponentDrill
T8C3.048
%
G90
G05
T1
X152.4Y-106.68
T2
X139.7Y-104.14
X139.7Y-111.76
X143.51Y-88.9
X144.78Y-107.95
X144.78Y-115.57
X151.13Y-88.9
X162.56Y-83.82
X162.56Y-91.44
X162.56Y-93.98
X162.56Y-101.6
T3
X137.16Y-86.36
X138.43Y-86.36
X139.7Y-86.36
X154.94Y-86.36
X154.94Y-99.06
X156.21Y-86.36
X156.21Y-99.06
X157.48Y-86.36
X157.48Y-99.06
T4
X117.38Y-111.76
X119.38Y-111.76
X121.92Y-106.68
X123.92Y-106.68
X127.54Y-111.76
X129.54Y-111.76
T5
X106.68Y-73.66
X109.22Y-73.66
X111.76Y-73.66
X114.3Y-73.66
X129.54Y-78.74
X130.785Y-99.085
X132.08Y-78.74
X133.325Y-99.085
X134.62Y-78.74
X135.865Y-99.085
X137.16Y-78.74
X138.405Y-99.085
X139.7Y-78.74
X140.945Y-99.085
X142.24Y-78.74
X143.485Y-99.085
X144.78Y-78.74
X147.32Y-78.74
X149.86Y-78.74
X152.4Y-78.74
X157.48Y-109.22
X160.02Y-109.22
X162.56Y-109.22
X163.805Y-78.765
X165.1Y-109.22
X166.345Y-78.765
X167.64Y-109.22
X168.885Y-78.765
X170.18Y-109.22
X171.425Y-78.765
X172.72Y-109.22
X173.965Y-78.765
X175.26Y-109.22
X176.505Y-78.765
X177.8Y-109.22
X180.34Y-109.22
X190.5Y-78.74
X190.5Y-81.28
X190.5Y-93.98
X190.5Y-96.52
X190.5Y-99.06
X190.5Y-104.14
X190.5Y-106.68
X190.5Y-111.76
X190.5Y-114.3
T6
X122.174Y-70.866
X124.714Y-70.866
X127.254Y-70.866
X129.794Y-70.866
X131.318Y-119.126
X132.334Y-70.866
X133.858Y-119.126
X134.874Y-70.866
X136.398Y-119.126
X137.414Y-70.866
X138.938Y-119.126
X139.954Y-70.866
X141.478Y-119.126
X142.494Y-70.866
X144.018Y-119.126
X145.034Y-70.866
X146.558Y-119.126
X149.098Y-70.866
X149.098Y-119.126
X151.638Y-70.866
X154.178Y-70.866
X154.178Y-119.126
X156.718Y-70.866
X156.718Y-119.126
X159.258Y-70.866
X159.258Y-119.126
X161.798Y-70.866
X161.798Y-119.126
X164.338Y-70.866
X164.338Y-119.126
X166.878Y-70.866
X166.878Y-119.126
X169.418Y-119.126
X171.958Y-70.866
X171.958Y-119.126
X174.498Y-70.866
X177.038Y-70.866
X177.038Y-119.126
X179.578Y-70.866
X179.578Y-119.126
X182.118Y-70.866
X182.118Y-119.126
X184.658Y-70.866
X184.658Y-119.126
X187.198Y-70.866
X187.198Y-119.126
X189.738Y-70.866
X189.738Y-119.126
X192.278Y-119.126
X194.818Y-119.126
X197.358Y-70.866
X197.358Y-73.406
X197.358Y-75.946
X197.358Y-78.486
X197.358Y-81.026
X197.358Y-83.566
X197.358Y-86.106
X197.358Y-88.646
X197.358Y-91.186
X197.358Y-93.726
X197.358Y-96.266
X197.358Y-98.806
X197.358Y-101.346
X197.358Y-103.886
X197.358Y-106.426
X197.358Y-108.966
X197.358Y-111.506
X197.358Y-114.046
X199.898Y-70.866
X199.898Y-73.406
X199.898Y-75.946
X199.898Y-78.486
X199.898Y-81.026
X199.898Y-83.566
X199.898Y-86.106
X199.898Y-88.646
X199.898Y-91.186
X199.898Y-93.726
X199.898Y-96.266
X199.898Y-98.806
X199.898Y-101.346
X199.898Y-103.886
X199.898Y-106.426
X199.898Y-108.966
X199.898Y-111.506
X199.898Y-114.046
T7
X185.42Y-88.9
X190.5Y-88.9
T8
X109.22Y-106.172
X117.348Y-119.126
X118.618Y-70.866
X169.418Y-86.106
X169.418Y-114.046
X193.548Y-70.866
X199.898Y-119.126
T0
M30
