%TF.GenerationSoftware,KiCad,Pcbnew,(6.0.4-0)*%
%TF.CreationDate,2022-07-18T13:43:56-07:00*%
%TF.ProjectId,sailface-mega-shield,7361696c-6661-4636-952d-6d6567612d73,v0.2*%
%TF.SameCoordinates,Original*%
%TF.FileFunction,Legend,Top*%
%TF.FilePolarity,Positive*%
%FSLAX46Y46*%
G04 Gerber Fmt 4.6, Leading zero omitted, Abs format (unit mm)*
G04 Created by KiCad (PCBNEW (6.0.4-0)) date 2022-07-18 13:43:56*
%MOMM*%
%LPD*%
G01*
G04 APERTURE LIST*
%ADD10C,0.150000*%
%ADD11C,0.300000*%
%ADD12C,0.120000*%
%ADD13C,4.064000*%
%ADD14C,1.727200*%
%ADD15O,1.727200X1.727200*%
%ADD16O,1.727200X2.032000*%
%ADD17C,1.400000*%
%ADD18O,1.400000X1.400000*%
%ADD19R,1.600000X1.600000*%
%ADD20C,1.600000*%
%ADD21R,1.050000X1.500000*%
%ADD22O,1.050000X1.500000*%
%ADD23R,1.700000X1.700000*%
%ADD24O,1.700000X1.700000*%
%ADD25R,2.800000X2.800000*%
%ADD26O,2.800000X2.800000*%
G04 APERTURE END LIST*
D10*
X131770380Y-116300285D02*
X131770380Y-116871714D01*
X131770380Y-116586000D02*
X130770380Y-116586000D01*
X130913238Y-116681238D01*
X131008476Y-116776476D01*
X131056095Y-116871714D01*
D11*
X109161428Y-95919642D02*
X109375714Y-95991071D01*
X109732857Y-95991071D01*
X109875714Y-95919642D01*
X109947142Y-95848214D01*
X110018571Y-95705357D01*
X110018571Y-95562500D01*
X109947142Y-95419642D01*
X109875714Y-95348214D01*
X109732857Y-95276785D01*
X109447142Y-95205357D01*
X109304285Y-95133928D01*
X109232857Y-95062500D01*
X109161428Y-94919642D01*
X109161428Y-94776785D01*
X109232857Y-94633928D01*
X109304285Y-94562500D01*
X109447142Y-94491071D01*
X109804285Y-94491071D01*
X110018571Y-94562500D01*
X110590000Y-95562500D02*
X111304285Y-95562500D01*
X110447142Y-95991071D02*
X110947142Y-94491071D01*
X111447142Y-95991071D01*
X111947142Y-95991071D02*
X111947142Y-94491071D01*
X113375714Y-95991071D02*
X112661428Y-95991071D01*
X112661428Y-94491071D01*
X114375714Y-95205357D02*
X113875714Y-95205357D01*
X113875714Y-95991071D02*
X113875714Y-94491071D01*
X114590000Y-94491071D01*
X115090000Y-95562500D02*
X115804285Y-95562500D01*
X114947142Y-95991071D02*
X115447142Y-94491071D01*
X115947142Y-95991071D01*
X117304285Y-95848214D02*
X117232857Y-95919642D01*
X117018571Y-95991071D01*
X116875714Y-95991071D01*
X116661428Y-95919642D01*
X116518571Y-95776785D01*
X116447142Y-95633928D01*
X116375714Y-95348214D01*
X116375714Y-95133928D01*
X116447142Y-94848214D01*
X116518571Y-94705357D01*
X116661428Y-94562500D01*
X116875714Y-94491071D01*
X117018571Y-94491071D01*
X117232857Y-94562500D01*
X117304285Y-94633928D01*
X117947142Y-95205357D02*
X118447142Y-95205357D01*
X118661428Y-95991071D02*
X117947142Y-95991071D01*
X117947142Y-94491071D01*
X118661428Y-94491071D01*
X120304285Y-94991071D02*
X120661428Y-95991071D01*
X121018571Y-94991071D01*
X121875714Y-94491071D02*
X122018571Y-94491071D01*
X122161428Y-94562500D01*
X122232857Y-94633928D01*
X122304285Y-94776785D01*
X122375714Y-95062500D01*
X122375714Y-95419642D01*
X122304285Y-95705357D01*
X122232857Y-95848214D01*
X122161428Y-95919642D01*
X122018571Y-95991071D01*
X121875714Y-95991071D01*
X121732857Y-95919642D01*
X121661428Y-95848214D01*
X121590000Y-95705357D01*
X121518571Y-95419642D01*
X121518571Y-95062500D01*
X121590000Y-94776785D01*
X121661428Y-94633928D01*
X121732857Y-94562500D01*
X121875714Y-94491071D01*
X123018571Y-95848214D02*
X123090000Y-95919642D01*
X123018571Y-95991071D01*
X122947142Y-95919642D01*
X123018571Y-95848214D01*
X123018571Y-95991071D01*
X123590000Y-94491071D02*
X124518571Y-94491071D01*
X124018571Y-95062500D01*
X124232857Y-95062500D01*
X124375714Y-95133928D01*
X124447142Y-95205357D01*
X124518571Y-95348214D01*
X124518571Y-95705357D01*
X124447142Y-95848214D01*
X124375714Y-95919642D01*
X124232857Y-95991071D01*
X123804285Y-95991071D01*
X123661428Y-95919642D01*
X123590000Y-95848214D01*
X105768571Y-98334642D02*
X105911428Y-98406071D01*
X106197142Y-98406071D01*
X106339999Y-98334642D01*
X106411428Y-98191785D01*
X106411428Y-98120357D01*
X106339999Y-97977500D01*
X106197142Y-97906071D01*
X105982857Y-97906071D01*
X105839999Y-97834642D01*
X105768571Y-97691785D01*
X105768571Y-97620357D01*
X105839999Y-97477500D01*
X105982857Y-97406071D01*
X106197142Y-97406071D01*
X106339999Y-97477500D01*
X107697142Y-98406071D02*
X107697142Y-97620357D01*
X107625714Y-97477500D01*
X107482857Y-97406071D01*
X107197142Y-97406071D01*
X107054285Y-97477500D01*
X107697142Y-98334642D02*
X107554285Y-98406071D01*
X107197142Y-98406071D01*
X107054285Y-98334642D01*
X106982857Y-98191785D01*
X106982857Y-98048928D01*
X107054285Y-97906071D01*
X107197142Y-97834642D01*
X107554285Y-97834642D01*
X107697142Y-97763214D01*
X108411428Y-98406071D02*
X108411428Y-97406071D01*
X108411428Y-96906071D02*
X108339999Y-96977500D01*
X108411428Y-97048928D01*
X108482857Y-96977500D01*
X108411428Y-96906071D01*
X108411428Y-97048928D01*
X109339999Y-98406071D02*
X109197142Y-98334642D01*
X109125714Y-98191785D01*
X109125714Y-96906071D01*
X109768571Y-97406071D02*
X110125714Y-98406071D01*
X110482857Y-97406071D02*
X110125714Y-98406071D01*
X109982857Y-98763214D01*
X109911428Y-98834642D01*
X109768571Y-98906071D01*
X111054285Y-98406071D02*
X111054285Y-97406071D01*
X111054285Y-97548928D02*
X111125714Y-97477500D01*
X111268571Y-97406071D01*
X111482857Y-97406071D01*
X111625714Y-97477500D01*
X111697142Y-97620357D01*
X111697142Y-98406071D01*
X111697142Y-97620357D02*
X111768571Y-97477500D01*
X111911428Y-97406071D01*
X112125714Y-97406071D01*
X112268571Y-97477500D01*
X112339999Y-97620357D01*
X112339999Y-98406071D01*
X113697142Y-98334642D02*
X113554285Y-98406071D01*
X113268571Y-98406071D01*
X113125714Y-98334642D01*
X113054285Y-98263214D01*
X112982857Y-98120357D01*
X112982857Y-97691785D01*
X113054285Y-97548928D01*
X113125714Y-97477500D01*
X113268571Y-97406071D01*
X113554285Y-97406071D01*
X113697142Y-97477500D01*
X114268571Y-98334642D02*
X114411428Y-98406071D01*
X114697142Y-98406071D01*
X114839999Y-98334642D01*
X114911428Y-98191785D01*
X114911428Y-98120357D01*
X114839999Y-97977500D01*
X114697142Y-97906071D01*
X114482857Y-97906071D01*
X114339999Y-97834642D01*
X114268571Y-97691785D01*
X114268571Y-97620357D01*
X114339999Y-97477500D01*
X114482857Y-97406071D01*
X114697142Y-97406071D01*
X114839999Y-97477500D01*
X116197142Y-98406071D02*
X116197142Y-97620357D01*
X116125714Y-97477500D01*
X115982857Y-97406071D01*
X115697142Y-97406071D01*
X115554285Y-97477500D01*
X116197142Y-98334642D02*
X116054285Y-98406071D01*
X115697142Y-98406071D01*
X115554285Y-98334642D01*
X115482857Y-98191785D01*
X115482857Y-98048928D01*
X115554285Y-97906071D01*
X115697142Y-97834642D01*
X116054285Y-97834642D01*
X116197142Y-97763214D01*
X116911428Y-98406071D02*
X116911428Y-97406071D01*
X116911428Y-96906071D02*
X116839999Y-96977500D01*
X116911428Y-97048928D01*
X116982857Y-96977500D01*
X116911428Y-96906071D01*
X116911428Y-97048928D01*
X117839999Y-98406071D02*
X117697142Y-98334642D01*
X117625714Y-98191785D01*
X117625714Y-96906071D01*
X118197142Y-97406071D02*
X118768571Y-97406071D01*
X118411428Y-98406071D02*
X118411428Y-97120357D01*
X118482857Y-96977500D01*
X118625714Y-96906071D01*
X118768571Y-96906071D01*
X119911428Y-98406071D02*
X119911428Y-97620357D01*
X119839999Y-97477500D01*
X119697142Y-97406071D01*
X119411428Y-97406071D01*
X119268571Y-97477500D01*
X119911428Y-98334642D02*
X119768571Y-98406071D01*
X119411428Y-98406071D01*
X119268571Y-98334642D01*
X119197142Y-98191785D01*
X119197142Y-98048928D01*
X119268571Y-97906071D01*
X119411428Y-97834642D01*
X119768571Y-97834642D01*
X119911428Y-97763214D01*
X121268571Y-98334642D02*
X121125714Y-98406071D01*
X120839999Y-98406071D01*
X120697142Y-98334642D01*
X120625714Y-98263214D01*
X120554285Y-98120357D01*
X120554285Y-97691785D01*
X120625714Y-97548928D01*
X120697142Y-97477500D01*
X120839999Y-97406071D01*
X121125714Y-97406071D01*
X121268571Y-97477500D01*
X122482857Y-98334642D02*
X122339999Y-98406071D01*
X122054285Y-98406071D01*
X121911428Y-98334642D01*
X121839999Y-98191785D01*
X121839999Y-97620357D01*
X121911428Y-97477500D01*
X122054285Y-97406071D01*
X122339999Y-97406071D01*
X122482857Y-97477500D01*
X122554285Y-97620357D01*
X122554285Y-97763214D01*
X121839999Y-97906071D01*
X123197142Y-98263214D02*
X123268571Y-98334642D01*
X123197142Y-98406071D01*
X123125714Y-98334642D01*
X123197142Y-98263214D01*
X123197142Y-98406071D01*
X124554285Y-98334642D02*
X124411428Y-98406071D01*
X124125714Y-98406071D01*
X123982857Y-98334642D01*
X123911428Y-98263214D01*
X123839999Y-98120357D01*
X123839999Y-97691785D01*
X123911428Y-97548928D01*
X123982857Y-97477500D01*
X124125714Y-97406071D01*
X124411428Y-97406071D01*
X124554285Y-97477500D01*
X125411428Y-98406071D02*
X125268571Y-98334642D01*
X125197142Y-98263214D01*
X125125714Y-98120357D01*
X125125714Y-97691785D01*
X125197142Y-97548928D01*
X125268571Y-97477500D01*
X125411428Y-97406071D01*
X125625714Y-97406071D01*
X125768571Y-97477500D01*
X125839999Y-97548928D01*
X125911428Y-97691785D01*
X125911428Y-98120357D01*
X125839999Y-98263214D01*
X125768571Y-98334642D01*
X125625714Y-98406071D01*
X125411428Y-98406071D01*
X126554285Y-98406071D02*
X126554285Y-97406071D01*
X126554285Y-97548928D02*
X126625714Y-97477500D01*
X126768571Y-97406071D01*
X126982857Y-97406071D01*
X127125714Y-97477500D01*
X127197142Y-97620357D01*
X127197142Y-98406071D01*
X127197142Y-97620357D02*
X127268571Y-97477500D01*
X127411428Y-97406071D01*
X127625714Y-97406071D01*
X127768571Y-97477500D01*
X127839999Y-97620357D01*
X127839999Y-98406071D01*
D10*
X138232380Y-108116666D02*
X137756190Y-108450000D01*
X138232380Y-108688095D02*
X137232380Y-108688095D01*
X137232380Y-108307142D01*
X137280000Y-108211904D01*
X137327619Y-108164285D01*
X137422857Y-108116666D01*
X137565714Y-108116666D01*
X137660952Y-108164285D01*
X137708571Y-108211904D01*
X137756190Y-108307142D01*
X137756190Y-108688095D01*
X137232380Y-107211904D02*
X137232380Y-107688095D01*
X137708571Y-107735714D01*
X137660952Y-107688095D01*
X137613333Y-107592857D01*
X137613333Y-107354761D01*
X137660952Y-107259523D01*
X137708571Y-107211904D01*
X137803809Y-107164285D01*
X138041904Y-107164285D01*
X138137142Y-107211904D01*
X138184761Y-107259523D01*
X138232380Y-107354761D01*
X138232380Y-107592857D01*
X138184761Y-107688095D01*
X138137142Y-107735714D01*
X161092380Y-97956666D02*
X160616190Y-98290000D01*
X161092380Y-98528095D02*
X160092380Y-98528095D01*
X160092380Y-98147142D01*
X160140000Y-98051904D01*
X160187619Y-98004285D01*
X160282857Y-97956666D01*
X160425714Y-97956666D01*
X160520952Y-98004285D01*
X160568571Y-98051904D01*
X160616190Y-98147142D01*
X160616190Y-98528095D01*
X160092380Y-97099523D02*
X160092380Y-97290000D01*
X160140000Y-97385238D01*
X160187619Y-97432857D01*
X160330476Y-97528095D01*
X160520952Y-97575714D01*
X160901904Y-97575714D01*
X160997142Y-97528095D01*
X161044761Y-97480476D01*
X161092380Y-97385238D01*
X161092380Y-97194761D01*
X161044761Y-97099523D01*
X160997142Y-97051904D01*
X160901904Y-97004285D01*
X160663809Y-97004285D01*
X160568571Y-97051904D01*
X160520952Y-97099523D01*
X160473333Y-97194761D01*
X160473333Y-97385238D01*
X160520952Y-97480476D01*
X160568571Y-97528095D01*
X160663809Y-97575714D01*
X147152380Y-111926666D02*
X146676190Y-112260000D01*
X147152380Y-112498095D02*
X146152380Y-112498095D01*
X146152380Y-112117142D01*
X146200000Y-112021904D01*
X146247619Y-111974285D01*
X146342857Y-111926666D01*
X146485714Y-111926666D01*
X146580952Y-111974285D01*
X146628571Y-112021904D01*
X146676190Y-112117142D01*
X146676190Y-112498095D01*
X146485714Y-111069523D02*
X147152380Y-111069523D01*
X146104761Y-111307619D02*
X146819047Y-111545714D01*
X146819047Y-110926666D01*
X147153333Y-91272380D02*
X146820000Y-90796190D01*
X146581904Y-91272380D02*
X146581904Y-90272380D01*
X146962857Y-90272380D01*
X147058095Y-90320000D01*
X147105714Y-90367619D01*
X147153333Y-90462857D01*
X147153333Y-90605714D01*
X147105714Y-90700952D01*
X147058095Y-90748571D01*
X146962857Y-90796190D01*
X146581904Y-90796190D01*
X147486666Y-90272380D02*
X148105714Y-90272380D01*
X147772380Y-90653333D01*
X147915238Y-90653333D01*
X148010476Y-90700952D01*
X148058095Y-90748571D01*
X148105714Y-90843809D01*
X148105714Y-91081904D01*
X148058095Y-91177142D01*
X148010476Y-91224761D01*
X147915238Y-91272380D01*
X147629523Y-91272380D01*
X147534285Y-91224761D01*
X147486666Y-91177142D01*
X161092380Y-87796666D02*
X160616190Y-88130000D01*
X161092380Y-88368095D02*
X160092380Y-88368095D01*
X160092380Y-87987142D01*
X160140000Y-87891904D01*
X160187619Y-87844285D01*
X160282857Y-87796666D01*
X160425714Y-87796666D01*
X160520952Y-87844285D01*
X160568571Y-87891904D01*
X160616190Y-87987142D01*
X160616190Y-88368095D01*
X160187619Y-87415714D02*
X160140000Y-87368095D01*
X160092380Y-87272857D01*
X160092380Y-87034761D01*
X160140000Y-86939523D01*
X160187619Y-86891904D01*
X160282857Y-86844285D01*
X160378095Y-86844285D01*
X160520952Y-86891904D01*
X161092380Y-87463333D01*
X161092380Y-86844285D01*
X195016380Y-93194095D02*
X194016380Y-93194095D01*
X194016380Y-92813142D01*
X194064000Y-92717904D01*
X194111619Y-92670285D01*
X194206857Y-92622666D01*
X194349714Y-92622666D01*
X194444952Y-92670285D01*
X194492571Y-92717904D01*
X194540190Y-92813142D01*
X194540190Y-93194095D01*
X195016380Y-91670285D02*
X195016380Y-92241714D01*
X195016380Y-91956000D02*
X194016380Y-91956000D01*
X194159238Y-92051238D01*
X194254476Y-92146476D01*
X194302095Y-92241714D01*
X139469904Y-116784380D02*
X139469904Y-115784380D01*
X139850857Y-115784380D01*
X139946095Y-115832000D01*
X139993714Y-115879619D01*
X140041333Y-115974857D01*
X140041333Y-116117714D01*
X139993714Y-116212952D01*
X139946095Y-116260571D01*
X139850857Y-116308190D01*
X139469904Y-116308190D01*
X140422285Y-115879619D02*
X140469904Y-115832000D01*
X140565142Y-115784380D01*
X140803238Y-115784380D01*
X140898476Y-115832000D01*
X140946095Y-115879619D01*
X140993714Y-115974857D01*
X140993714Y-116070095D01*
X140946095Y-116212952D01*
X140374666Y-116784380D01*
X140993714Y-116784380D01*
X162329904Y-117038380D02*
X162329904Y-116038380D01*
X162710857Y-116038380D01*
X162806095Y-116086000D01*
X162853714Y-116133619D01*
X162901333Y-116228857D01*
X162901333Y-116371714D01*
X162853714Y-116466952D01*
X162806095Y-116514571D01*
X162710857Y-116562190D01*
X162329904Y-116562190D01*
X163234666Y-116038380D02*
X163853714Y-116038380D01*
X163520380Y-116419333D01*
X163663238Y-116419333D01*
X163758476Y-116466952D01*
X163806095Y-116514571D01*
X163853714Y-116609809D01*
X163853714Y-116847904D01*
X163806095Y-116943142D01*
X163758476Y-116990761D01*
X163663238Y-117038380D01*
X163377523Y-117038380D01*
X163282285Y-116990761D01*
X163234666Y-116943142D01*
X179601904Y-116784380D02*
X179601904Y-115784380D01*
X179982857Y-115784380D01*
X180078095Y-115832000D01*
X180125714Y-115879619D01*
X180173333Y-115974857D01*
X180173333Y-116117714D01*
X180125714Y-116212952D01*
X180078095Y-116260571D01*
X179982857Y-116308190D01*
X179601904Y-116308190D01*
X181030476Y-116117714D02*
X181030476Y-116784380D01*
X180792380Y-115736761D02*
X180554285Y-116451047D01*
X181173333Y-116451047D01*
X132865904Y-74112380D02*
X132865904Y-73112380D01*
X133246857Y-73112380D01*
X133342095Y-73160000D01*
X133389714Y-73207619D01*
X133437333Y-73302857D01*
X133437333Y-73445714D01*
X133389714Y-73540952D01*
X133342095Y-73588571D01*
X133246857Y-73636190D01*
X132865904Y-73636190D01*
X134342095Y-73112380D02*
X133865904Y-73112380D01*
X133818285Y-73588571D01*
X133865904Y-73540952D01*
X133961142Y-73493333D01*
X134199238Y-73493333D01*
X134294476Y-73540952D01*
X134342095Y-73588571D01*
X134389714Y-73683809D01*
X134389714Y-73921904D01*
X134342095Y-74017142D01*
X134294476Y-74064761D01*
X134199238Y-74112380D01*
X133961142Y-74112380D01*
X133865904Y-74064761D01*
X133818285Y-74017142D01*
X157249904Y-74112380D02*
X157249904Y-73112380D01*
X157630857Y-73112380D01*
X157726095Y-73160000D01*
X157773714Y-73207619D01*
X157821333Y-73302857D01*
X157821333Y-73445714D01*
X157773714Y-73540952D01*
X157726095Y-73588571D01*
X157630857Y-73636190D01*
X157249904Y-73636190D01*
X158678476Y-73112380D02*
X158488000Y-73112380D01*
X158392761Y-73160000D01*
X158345142Y-73207619D01*
X158249904Y-73350476D01*
X158202285Y-73540952D01*
X158202285Y-73921904D01*
X158249904Y-74017142D01*
X158297523Y-74064761D01*
X158392761Y-74112380D01*
X158583238Y-74112380D01*
X158678476Y-74064761D01*
X158726095Y-74017142D01*
X158773714Y-73921904D01*
X158773714Y-73683809D01*
X158726095Y-73588571D01*
X158678476Y-73540952D01*
X158583238Y-73493333D01*
X158392761Y-73493333D01*
X158297523Y-73540952D01*
X158249904Y-73588571D01*
X158202285Y-73683809D01*
X180109904Y-74112380D02*
X180109904Y-73112380D01*
X180490857Y-73112380D01*
X180586095Y-73160000D01*
X180633714Y-73207619D01*
X180681333Y-73302857D01*
X180681333Y-73445714D01*
X180633714Y-73540952D01*
X180586095Y-73588571D01*
X180490857Y-73636190D01*
X180109904Y-73636190D01*
X181014666Y-73112380D02*
X181681333Y-73112380D01*
X181252761Y-74112380D01*
X118213333Y-108367142D02*
X118165714Y-108414761D01*
X118022857Y-108462380D01*
X117927619Y-108462380D01*
X117784761Y-108414761D01*
X117689523Y-108319523D01*
X117641904Y-108224285D01*
X117594285Y-108033809D01*
X117594285Y-107890952D01*
X117641904Y-107700476D01*
X117689523Y-107605238D01*
X117784761Y-107510000D01*
X117927619Y-107462380D01*
X118022857Y-107462380D01*
X118165714Y-107510000D01*
X118213333Y-107557619D01*
X119165714Y-108462380D02*
X118594285Y-108462380D01*
X118880000Y-108462380D02*
X118880000Y-107462380D01*
X118784761Y-107605238D01*
X118689523Y-107700476D01*
X118594285Y-107748095D01*
X188412380Y-101924761D02*
X187936190Y-102258095D01*
X188412380Y-102496190D02*
X187412380Y-102496190D01*
X187412380Y-102115238D01*
X187460000Y-102020000D01*
X187507619Y-101972380D01*
X187602857Y-101924761D01*
X187745714Y-101924761D01*
X187840952Y-101972380D01*
X187888571Y-102020000D01*
X187936190Y-102115238D01*
X187936190Y-102496190D01*
X187412380Y-101496190D02*
X188221904Y-101496190D01*
X188317142Y-101448571D01*
X188364761Y-101400952D01*
X188412380Y-101305714D01*
X188412380Y-101115238D01*
X188364761Y-101020000D01*
X188317142Y-100972380D01*
X188221904Y-100924761D01*
X187412380Y-100924761D01*
X188412380Y-100448571D02*
X187412380Y-100448571D01*
X187412380Y-100210476D01*
X187460000Y-100067619D01*
X187555238Y-99972380D01*
X187650476Y-99924761D01*
X187840952Y-99877142D01*
X187983809Y-99877142D01*
X188174285Y-99924761D01*
X188269523Y-99972380D01*
X188364761Y-100067619D01*
X188412380Y-100210476D01*
X188412380Y-100448571D01*
X188412380Y-99448571D02*
X187412380Y-99448571D01*
X187412380Y-99210476D01*
X187460000Y-99067619D01*
X187555238Y-98972380D01*
X187650476Y-98924761D01*
X187840952Y-98877142D01*
X187983809Y-98877142D01*
X188174285Y-98924761D01*
X188269523Y-98972380D01*
X188364761Y-99067619D01*
X188412380Y-99210476D01*
X188412380Y-99448571D01*
X187888571Y-98448571D02*
X187888571Y-98115238D01*
X188412380Y-97972380D02*
X188412380Y-98448571D01*
X187412380Y-98448571D01*
X187412380Y-97972380D01*
X188412380Y-96972380D02*
X187936190Y-97305714D01*
X188412380Y-97543809D02*
X187412380Y-97543809D01*
X187412380Y-97162857D01*
X187460000Y-97067619D01*
X187507619Y-97020000D01*
X187602857Y-96972380D01*
X187745714Y-96972380D01*
X187840952Y-97020000D01*
X187888571Y-97067619D01*
X187936190Y-97162857D01*
X187936190Y-97543809D01*
X188507619Y-96781904D02*
X188507619Y-96020000D01*
X188364761Y-95829523D02*
X188412380Y-95686666D01*
X188412380Y-95448571D01*
X188364761Y-95353333D01*
X188317142Y-95305714D01*
X188221904Y-95258095D01*
X188126666Y-95258095D01*
X188031428Y-95305714D01*
X187983809Y-95353333D01*
X187936190Y-95448571D01*
X187888571Y-95639047D01*
X187840952Y-95734285D01*
X187793333Y-95781904D01*
X187698095Y-95829523D01*
X187602857Y-95829523D01*
X187507619Y-95781904D01*
X187460000Y-95734285D01*
X187412380Y-95639047D01*
X187412380Y-95400952D01*
X187460000Y-95258095D01*
X187888571Y-94829523D02*
X187888571Y-94496190D01*
X188412380Y-94353333D02*
X188412380Y-94829523D01*
X187412380Y-94829523D01*
X187412380Y-94353333D01*
X188412380Y-93353333D02*
X187936190Y-93686666D01*
X188412380Y-93924761D02*
X187412380Y-93924761D01*
X187412380Y-93543809D01*
X187460000Y-93448571D01*
X187507619Y-93400952D01*
X187602857Y-93353333D01*
X187745714Y-93353333D01*
X187840952Y-93400952D01*
X187888571Y-93448571D01*
X187936190Y-93543809D01*
X187936190Y-93924761D01*
X187412380Y-93067619D02*
X188412380Y-92734285D01*
X187412380Y-92400952D01*
X187412380Y-91877142D02*
X187412380Y-91686666D01*
X187460000Y-91591428D01*
X187555238Y-91496190D01*
X187745714Y-91448571D01*
X188079047Y-91448571D01*
X188269523Y-91496190D01*
X188364761Y-91591428D01*
X188412380Y-91686666D01*
X188412380Y-91877142D01*
X188364761Y-91972380D01*
X188269523Y-92067619D01*
X188079047Y-92115238D01*
X187745714Y-92115238D01*
X187555238Y-92067619D01*
X187460000Y-91972380D01*
X187412380Y-91877142D01*
X188412380Y-90496190D02*
X188412380Y-91067619D01*
X188412380Y-90781904D02*
X187412380Y-90781904D01*
X187555238Y-90877142D01*
X187650476Y-90972380D01*
X187698095Y-91067619D01*
X122753333Y-103287142D02*
X122705714Y-103334761D01*
X122562857Y-103382380D01*
X122467619Y-103382380D01*
X122324761Y-103334761D01*
X122229523Y-103239523D01*
X122181904Y-103144285D01*
X122134285Y-102953809D01*
X122134285Y-102810952D01*
X122181904Y-102620476D01*
X122229523Y-102525238D01*
X122324761Y-102430000D01*
X122467619Y-102382380D01*
X122562857Y-102382380D01*
X122705714Y-102430000D01*
X122753333Y-102477619D01*
X123086666Y-102382380D02*
X123705714Y-102382380D01*
X123372380Y-102763333D01*
X123515238Y-102763333D01*
X123610476Y-102810952D01*
X123658095Y-102858571D01*
X123705714Y-102953809D01*
X123705714Y-103191904D01*
X123658095Y-103287142D01*
X123610476Y-103334761D01*
X123515238Y-103382380D01*
X123229523Y-103382380D01*
X123134285Y-103334761D01*
X123086666Y-103287142D01*
X193492380Y-88137142D02*
X192492380Y-88137142D01*
X192492380Y-87756190D01*
X192540000Y-87660952D01*
X192587619Y-87613333D01*
X192682857Y-87565714D01*
X192825714Y-87565714D01*
X192920952Y-87613333D01*
X192968571Y-87660952D01*
X193016190Y-87756190D01*
X193016190Y-88137142D01*
X193492380Y-86565714D02*
X193016190Y-86899047D01*
X193492380Y-87137142D02*
X192492380Y-87137142D01*
X192492380Y-86756190D01*
X192540000Y-86660952D01*
X192587619Y-86613333D01*
X192682857Y-86565714D01*
X192825714Y-86565714D01*
X192920952Y-86613333D01*
X192968571Y-86660952D01*
X193016190Y-86756190D01*
X193016190Y-87137142D01*
X193492380Y-86137142D02*
X192492380Y-86137142D01*
X193492380Y-85660952D02*
X192492380Y-85660952D01*
X193206666Y-85327619D01*
X192492380Y-84994285D01*
X193492380Y-84994285D01*
X193206666Y-84565714D02*
X193206666Y-84089523D01*
X193492380Y-84660952D02*
X192492380Y-84327619D01*
X193492380Y-83994285D01*
X193492380Y-83089523D02*
X193016190Y-83422857D01*
X193492380Y-83660952D02*
X192492380Y-83660952D01*
X192492380Y-83280000D01*
X192540000Y-83184761D01*
X192587619Y-83137142D01*
X192682857Y-83089523D01*
X192825714Y-83089523D01*
X192920952Y-83137142D01*
X192968571Y-83184761D01*
X193016190Y-83280000D01*
X193016190Y-83660952D01*
X193016190Y-82470476D02*
X193492380Y-82470476D01*
X192492380Y-82803809D02*
X193016190Y-82470476D01*
X192492380Y-82137142D01*
X193587619Y-82041904D02*
X193587619Y-81280000D01*
X192968571Y-80708571D02*
X193016190Y-80565714D01*
X193063809Y-80518095D01*
X193159047Y-80470476D01*
X193301904Y-80470476D01*
X193397142Y-80518095D01*
X193444761Y-80565714D01*
X193492380Y-80660952D01*
X193492380Y-81041904D01*
X192492380Y-81041904D01*
X192492380Y-80708571D01*
X192540000Y-80613333D01*
X192587619Y-80565714D01*
X192682857Y-80518095D01*
X192778095Y-80518095D01*
X192873333Y-80565714D01*
X192920952Y-80613333D01*
X192968571Y-80708571D01*
X192968571Y-81041904D01*
X193206666Y-80089523D02*
X193206666Y-79613333D01*
X193492380Y-80184761D02*
X192492380Y-79851428D01*
X193492380Y-79518095D01*
X192492380Y-79327619D02*
X192492380Y-78756190D01*
X193492380Y-79041904D02*
X192492380Y-79041904D01*
X192492380Y-78565714D02*
X192492380Y-77994285D01*
X193492380Y-78280000D02*
X192492380Y-78280000D01*
X192968571Y-77660952D02*
X192968571Y-77327619D01*
X193492380Y-77184761D02*
X193492380Y-77660952D01*
X192492380Y-77660952D01*
X192492380Y-77184761D01*
X193492380Y-76184761D02*
X193016190Y-76518095D01*
X193492380Y-76756190D02*
X192492380Y-76756190D01*
X192492380Y-76375238D01*
X192540000Y-76280000D01*
X192587619Y-76232380D01*
X192682857Y-76184761D01*
X192825714Y-76184761D01*
X192920952Y-76232380D01*
X192968571Y-76280000D01*
X193016190Y-76375238D01*
X193016190Y-76756190D01*
X193016190Y-75565714D02*
X193492380Y-75565714D01*
X192492380Y-75899047D02*
X193016190Y-75565714D01*
X192492380Y-75232380D01*
X193492380Y-74375238D02*
X193492380Y-74946666D01*
X193492380Y-74660952D02*
X192492380Y-74660952D01*
X192635238Y-74756190D01*
X192730476Y-74851428D01*
X192778095Y-74946666D01*
X188412380Y-116045714D02*
X187412380Y-116045714D01*
X188126666Y-115712380D01*
X187412380Y-115379047D01*
X188412380Y-115379047D01*
X187412380Y-114712380D02*
X187412380Y-114521904D01*
X187460000Y-114426666D01*
X187555238Y-114331428D01*
X187745714Y-114283809D01*
X188079047Y-114283809D01*
X188269523Y-114331428D01*
X188364761Y-114426666D01*
X188412380Y-114521904D01*
X188412380Y-114712380D01*
X188364761Y-114807619D01*
X188269523Y-114902857D01*
X188079047Y-114950476D01*
X187745714Y-114950476D01*
X187555238Y-114902857D01*
X187460000Y-114807619D01*
X187412380Y-114712380D01*
X187412380Y-113998095D02*
X187412380Y-113426666D01*
X188412380Y-113712380D02*
X187412380Y-113712380D01*
X187412380Y-112902857D02*
X187412380Y-112712380D01*
X187460000Y-112617142D01*
X187555238Y-112521904D01*
X187745714Y-112474285D01*
X188079047Y-112474285D01*
X188269523Y-112521904D01*
X188364761Y-112617142D01*
X188412380Y-112712380D01*
X188412380Y-112902857D01*
X188364761Y-112998095D01*
X188269523Y-113093333D01*
X188079047Y-113140952D01*
X187745714Y-113140952D01*
X187555238Y-113093333D01*
X187460000Y-112998095D01*
X187412380Y-112902857D01*
X188412380Y-111474285D02*
X187936190Y-111807619D01*
X188412380Y-112045714D02*
X187412380Y-112045714D01*
X187412380Y-111664761D01*
X187460000Y-111569523D01*
X187507619Y-111521904D01*
X187602857Y-111474285D01*
X187745714Y-111474285D01*
X187840952Y-111521904D01*
X187888571Y-111569523D01*
X187936190Y-111664761D01*
X187936190Y-112045714D01*
X188507619Y-111283809D02*
X188507619Y-110521904D01*
X188412380Y-110283809D02*
X187412380Y-110283809D01*
X187412380Y-109902857D01*
X187460000Y-109807619D01*
X187507619Y-109760000D01*
X187602857Y-109712380D01*
X187745714Y-109712380D01*
X187840952Y-109760000D01*
X187888571Y-109807619D01*
X187936190Y-109902857D01*
X187936190Y-110283809D01*
X187412380Y-109379047D02*
X188412380Y-109140952D01*
X187698095Y-108950476D01*
X188412380Y-108760000D01*
X187412380Y-108521904D01*
X188412380Y-108140952D02*
X187412380Y-108140952D01*
X188126666Y-107807619D01*
X187412380Y-107474285D01*
X188412380Y-107474285D01*
X193492380Y-106401904D02*
X192492380Y-106401904D01*
X193206666Y-106068571D01*
X192492380Y-105735238D01*
X193492380Y-105735238D01*
X192492380Y-105068571D02*
X192492380Y-104878095D01*
X192540000Y-104782857D01*
X192635238Y-104687619D01*
X192825714Y-104640000D01*
X193159047Y-104640000D01*
X193349523Y-104687619D01*
X193444761Y-104782857D01*
X193492380Y-104878095D01*
X193492380Y-105068571D01*
X193444761Y-105163809D01*
X193349523Y-105259047D01*
X193159047Y-105306666D01*
X192825714Y-105306666D01*
X192635238Y-105259047D01*
X192540000Y-105163809D01*
X192492380Y-105068571D01*
X192492380Y-104354285D02*
X192492380Y-103782857D01*
X193492380Y-104068571D02*
X192492380Y-104068571D01*
X192492380Y-103259047D02*
X192492380Y-103068571D01*
X192540000Y-102973333D01*
X192635238Y-102878095D01*
X192825714Y-102830476D01*
X193159047Y-102830476D01*
X193349523Y-102878095D01*
X193444761Y-102973333D01*
X193492380Y-103068571D01*
X193492380Y-103259047D01*
X193444761Y-103354285D01*
X193349523Y-103449523D01*
X193159047Y-103497142D01*
X192825714Y-103497142D01*
X192635238Y-103449523D01*
X192540000Y-103354285D01*
X192492380Y-103259047D01*
X193492380Y-101830476D02*
X193016190Y-102163809D01*
X193492380Y-102401904D02*
X192492380Y-102401904D01*
X192492380Y-102020952D01*
X192540000Y-101925714D01*
X192587619Y-101878095D01*
X192682857Y-101830476D01*
X192825714Y-101830476D01*
X192920952Y-101878095D01*
X192968571Y-101925714D01*
X193016190Y-102020952D01*
X193016190Y-102401904D01*
X155622380Y-80573333D02*
X154622380Y-80573333D01*
X155336666Y-80240000D01*
X154622380Y-79906666D01*
X155622380Y-79906666D01*
X155622380Y-79430476D02*
X154622380Y-79430476D01*
X154622380Y-79049523D01*
X154670000Y-78954285D01*
X154717619Y-78906666D01*
X154812857Y-78859047D01*
X154955714Y-78859047D01*
X155050952Y-78906666D01*
X155098571Y-78954285D01*
X155146190Y-79049523D01*
X155146190Y-79430476D01*
X154622380Y-78430476D02*
X155431904Y-78430476D01*
X155527142Y-78382857D01*
X155574761Y-78335238D01*
X155622380Y-78240000D01*
X155622380Y-78049523D01*
X155574761Y-77954285D01*
X155527142Y-77906666D01*
X155431904Y-77859047D01*
X154622380Y-77859047D01*
X155622380Y-76859047D02*
X155622380Y-77430476D01*
X155622380Y-77144761D02*
X154622380Y-77144761D01*
X154765238Y-77240000D01*
X154860476Y-77335238D01*
X154908095Y-77430476D01*
X187221904Y-86177481D02*
X187221904Y-85177481D01*
X187460000Y-85177481D01*
X187602857Y-85225101D01*
X187698095Y-85320339D01*
X187745714Y-85415577D01*
X187793333Y-85606053D01*
X187793333Y-85748910D01*
X187745714Y-85939386D01*
X187698095Y-86034624D01*
X187602857Y-86129862D01*
X187460000Y-86177481D01*
X187221904Y-86177481D01*
X188745714Y-86177481D02*
X188174285Y-86177481D01*
X188460000Y-86177481D02*
X188460000Y-85177481D01*
X188364761Y-85320339D01*
X188269523Y-85415577D01*
X188174285Y-85463196D01*
X128373333Y-108367142D02*
X128325714Y-108414761D01*
X128182857Y-108462380D01*
X128087619Y-108462380D01*
X127944761Y-108414761D01*
X127849523Y-108319523D01*
X127801904Y-108224285D01*
X127754285Y-108033809D01*
X127754285Y-107890952D01*
X127801904Y-107700476D01*
X127849523Y-107605238D01*
X127944761Y-107510000D01*
X128087619Y-107462380D01*
X128182857Y-107462380D01*
X128325714Y-107510000D01*
X128373333Y-107557619D01*
X128754285Y-107557619D02*
X128801904Y-107510000D01*
X128897142Y-107462380D01*
X129135238Y-107462380D01*
X129230476Y-107510000D01*
X129278095Y-107557619D01*
X129325714Y-107652857D01*
X129325714Y-107748095D01*
X129278095Y-107890952D01*
X128706666Y-108462380D01*
X129325714Y-108462380D01*
X166060952Y-76128571D02*
X166203809Y-76176190D01*
X166251428Y-76223809D01*
X166299047Y-76319047D01*
X166299047Y-76461904D01*
X166251428Y-76557142D01*
X166203809Y-76604761D01*
X166108571Y-76652380D01*
X165727619Y-76652380D01*
X165727619Y-75652380D01*
X166060952Y-75652380D01*
X166156190Y-75700000D01*
X166203809Y-75747619D01*
X166251428Y-75842857D01*
X166251428Y-75938095D01*
X166203809Y-76033333D01*
X166156190Y-76080952D01*
X166060952Y-76128571D01*
X165727619Y-76128571D01*
X167203809Y-76652380D02*
X166727619Y-76652380D01*
X166727619Y-75652380D01*
X167537142Y-75652380D02*
X167537142Y-76461904D01*
X167584761Y-76557142D01*
X167632380Y-76604761D01*
X167727619Y-76652380D01*
X167918095Y-76652380D01*
X168013333Y-76604761D01*
X168060952Y-76557142D01*
X168108571Y-76461904D01*
X168108571Y-75652380D01*
X168584761Y-76128571D02*
X168918095Y-76128571D01*
X169060952Y-76652380D02*
X168584761Y-76652380D01*
X168584761Y-75652380D01*
X169060952Y-75652380D01*
X169346666Y-75652380D02*
X169918095Y-75652380D01*
X169632380Y-76652380D02*
X169632380Y-75652380D01*
X170441904Y-75652380D02*
X170632380Y-75652380D01*
X170727619Y-75700000D01*
X170822857Y-75795238D01*
X170870476Y-75985714D01*
X170870476Y-76319047D01*
X170822857Y-76509523D01*
X170727619Y-76604761D01*
X170632380Y-76652380D01*
X170441904Y-76652380D01*
X170346666Y-76604761D01*
X170251428Y-76509523D01*
X170203809Y-76319047D01*
X170203809Y-75985714D01*
X170251428Y-75795238D01*
X170346666Y-75700000D01*
X170441904Y-75652380D01*
X171489523Y-75652380D02*
X171680000Y-75652380D01*
X171775238Y-75700000D01*
X171870476Y-75795238D01*
X171918095Y-75985714D01*
X171918095Y-76319047D01*
X171870476Y-76509523D01*
X171775238Y-76604761D01*
X171680000Y-76652380D01*
X171489523Y-76652380D01*
X171394285Y-76604761D01*
X171299047Y-76509523D01*
X171251428Y-76319047D01*
X171251428Y-75985714D01*
X171299047Y-75795238D01*
X171394285Y-75700000D01*
X171489523Y-75652380D01*
X172203809Y-75652380D02*
X172775238Y-75652380D01*
X172489523Y-76652380D02*
X172489523Y-75652380D01*
X173108571Y-76652380D02*
X173108571Y-75652380D01*
X173108571Y-76128571D02*
X173680000Y-76128571D01*
X173680000Y-76652380D02*
X173680000Y-75652380D01*
X174680000Y-76652380D02*
X174108571Y-76652380D01*
X174394285Y-76652380D02*
X174394285Y-75652380D01*
X174299047Y-75795238D01*
X174203809Y-75890476D01*
X174108571Y-75938095D01*
X183562380Y-112267619D02*
X182562380Y-112267619D01*
X183562380Y-111220000D02*
X183086190Y-111553333D01*
X183562380Y-111791428D02*
X182562380Y-111791428D01*
X182562380Y-111410476D01*
X182610000Y-111315238D01*
X182657619Y-111267619D01*
X182752857Y-111220000D01*
X182895714Y-111220000D01*
X182990952Y-111267619D01*
X183038571Y-111315238D01*
X183086190Y-111410476D01*
X183086190Y-111791428D01*
X183562380Y-110791428D02*
X182562380Y-110791428D01*
X183562380Y-110315238D02*
X182562380Y-110315238D01*
X182562380Y-110077142D01*
X182610000Y-109934285D01*
X182705238Y-109839047D01*
X182800476Y-109791428D01*
X182990952Y-109743809D01*
X183133809Y-109743809D01*
X183324285Y-109791428D01*
X183419523Y-109839047D01*
X183514761Y-109934285D01*
X183562380Y-110077142D01*
X183562380Y-110315238D01*
X183562380Y-109315238D02*
X182562380Y-109315238D01*
X182562380Y-108839047D02*
X183371904Y-108839047D01*
X183467142Y-108791428D01*
X183514761Y-108743809D01*
X183562380Y-108648571D01*
X183562380Y-108458095D01*
X183514761Y-108362857D01*
X183467142Y-108315238D01*
X183371904Y-108267619D01*
X182562380Y-108267619D01*
X183562380Y-107791428D02*
X182562380Y-107791428D01*
X183276666Y-107458095D01*
X182562380Y-107124761D01*
X183562380Y-107124761D01*
X183562380Y-106124761D02*
X183562380Y-106696190D01*
X183562380Y-106410476D02*
X182562380Y-106410476D01*
X182705238Y-106505714D01*
X182800476Y-106600952D01*
X182848095Y-106696190D01*
X133809761Y-96473571D02*
X133952619Y-96521190D01*
X134000238Y-96568809D01*
X134047857Y-96664047D01*
X134047857Y-96806904D01*
X134000238Y-96902142D01*
X133952619Y-96949761D01*
X133857380Y-96997380D01*
X133476428Y-96997380D01*
X133476428Y-95997380D01*
X133809761Y-95997380D01*
X133905000Y-96045000D01*
X133952619Y-96092619D01*
X134000238Y-96187857D01*
X134000238Y-96283095D01*
X133952619Y-96378333D01*
X133905000Y-96425952D01*
X133809761Y-96473571D01*
X133476428Y-96473571D01*
X134428809Y-96711666D02*
X134905000Y-96711666D01*
X134333571Y-96997380D02*
X134666904Y-95997380D01*
X135000238Y-96997380D01*
X135190714Y-95997380D02*
X135762142Y-95997380D01*
X135476428Y-96997380D02*
X135476428Y-95997380D01*
X136666904Y-96902142D02*
X136619285Y-96949761D01*
X136476428Y-96997380D01*
X136381190Y-96997380D01*
X136238333Y-96949761D01*
X136143095Y-96854523D01*
X136095476Y-96759285D01*
X136047857Y-96568809D01*
X136047857Y-96425952D01*
X136095476Y-96235476D01*
X136143095Y-96140238D01*
X136238333Y-96045000D01*
X136381190Y-95997380D01*
X136476428Y-95997380D01*
X136619285Y-96045000D01*
X136666904Y-96092619D01*
X137095476Y-95997380D02*
X137095476Y-96806904D01*
X137143095Y-96902142D01*
X137190714Y-96949761D01*
X137285952Y-96997380D01*
X137476428Y-96997380D01*
X137571666Y-96949761D01*
X137619285Y-96902142D01*
X137666904Y-96806904D01*
X137666904Y-95997380D01*
X138714523Y-96997380D02*
X138381190Y-96521190D01*
X138143095Y-96997380D02*
X138143095Y-95997380D01*
X138524047Y-95997380D01*
X138619285Y-96045000D01*
X138666904Y-96092619D01*
X138714523Y-96187857D01*
X138714523Y-96330714D01*
X138666904Y-96425952D01*
X138619285Y-96473571D01*
X138524047Y-96521190D01*
X138143095Y-96521190D01*
X139714523Y-96997380D02*
X139381190Y-96521190D01*
X139143095Y-96997380D02*
X139143095Y-95997380D01*
X139524047Y-95997380D01*
X139619285Y-96045000D01*
X139666904Y-96092619D01*
X139714523Y-96187857D01*
X139714523Y-96330714D01*
X139666904Y-96425952D01*
X139619285Y-96473571D01*
X139524047Y-96521190D01*
X139143095Y-96521190D01*
X140143095Y-96473571D02*
X140476428Y-96473571D01*
X140619285Y-96997380D02*
X140143095Y-96997380D01*
X140143095Y-95997380D01*
X140619285Y-95997380D01*
X141047857Y-96997380D02*
X141047857Y-95997380D01*
X141619285Y-96997380D01*
X141619285Y-95997380D01*
X141952619Y-95997380D02*
X142524047Y-95997380D01*
X142238333Y-96997380D02*
X142238333Y-95997380D01*
X143381190Y-96997380D02*
X142809761Y-96997380D01*
X143095476Y-96997380D02*
X143095476Y-95997380D01*
X143000238Y-96140238D01*
X142905000Y-96235476D01*
X142809761Y-96283095D01*
X108029523Y-70595000D02*
X107934285Y-70547380D01*
X107791428Y-70547380D01*
X107648571Y-70595000D01*
X107553333Y-70690238D01*
X107505714Y-70785476D01*
X107458095Y-70975952D01*
X107458095Y-71118809D01*
X107505714Y-71309285D01*
X107553333Y-71404523D01*
X107648571Y-71499761D01*
X107791428Y-71547380D01*
X107886666Y-71547380D01*
X108029523Y-71499761D01*
X108077142Y-71452142D01*
X108077142Y-71118809D01*
X107886666Y-71118809D01*
X108505714Y-71547380D02*
X108505714Y-70547380D01*
X108886666Y-70547380D01*
X108981904Y-70595000D01*
X109029523Y-70642619D01*
X109077142Y-70737857D01*
X109077142Y-70880714D01*
X109029523Y-70975952D01*
X108981904Y-71023571D01*
X108886666Y-71071190D01*
X108505714Y-71071190D01*
X109458095Y-71499761D02*
X109600952Y-71547380D01*
X109839047Y-71547380D01*
X109934285Y-71499761D01*
X109981904Y-71452142D01*
X110029523Y-71356904D01*
X110029523Y-71261666D01*
X109981904Y-71166428D01*
X109934285Y-71118809D01*
X109839047Y-71071190D01*
X109648571Y-71023571D01*
X109553333Y-70975952D01*
X109505714Y-70928333D01*
X109458095Y-70833095D01*
X109458095Y-70737857D01*
X109505714Y-70642619D01*
X109553333Y-70595000D01*
X109648571Y-70547380D01*
X109886666Y-70547380D01*
X110029523Y-70595000D01*
X110981904Y-71547380D02*
X110410476Y-71547380D01*
X110696190Y-71547380D02*
X110696190Y-70547380D01*
X110600952Y-70690238D01*
X110505714Y-70785476D01*
X110410476Y-70833095D01*
X146209523Y-104592380D02*
X146209523Y-103592380D01*
X147257142Y-104592380D02*
X146923809Y-104116190D01*
X146685714Y-104592380D02*
X146685714Y-103592380D01*
X147066666Y-103592380D01*
X147161904Y-103640000D01*
X147209523Y-103687619D01*
X147257142Y-103782857D01*
X147257142Y-103925714D01*
X147209523Y-104020952D01*
X147161904Y-104068571D01*
X147066666Y-104116190D01*
X146685714Y-104116190D01*
X147685714Y-104592380D02*
X147685714Y-103592380D01*
X148161904Y-104592380D02*
X148161904Y-103592380D01*
X148400000Y-103592380D01*
X148542857Y-103640000D01*
X148638095Y-103735238D01*
X148685714Y-103830476D01*
X148733333Y-104020952D01*
X148733333Y-104163809D01*
X148685714Y-104354285D01*
X148638095Y-104449523D01*
X148542857Y-104544761D01*
X148400000Y-104592380D01*
X148161904Y-104592380D01*
X149161904Y-104592380D02*
X149161904Y-103592380D01*
X149638095Y-103592380D02*
X149638095Y-104401904D01*
X149685714Y-104497142D01*
X149733333Y-104544761D01*
X149828571Y-104592380D01*
X150019047Y-104592380D01*
X150114285Y-104544761D01*
X150161904Y-104497142D01*
X150209523Y-104401904D01*
X150209523Y-103592380D01*
X150685714Y-104592380D02*
X150685714Y-103592380D01*
X151019047Y-104306666D01*
X151352380Y-103592380D01*
X151352380Y-104592380D01*
X151590476Y-104687619D02*
X152352380Y-104687619D01*
X152447619Y-103592380D02*
X153019047Y-103592380D01*
X152733333Y-104592380D02*
X152733333Y-103592380D01*
X153542857Y-103592380D02*
X153733333Y-103592380D01*
X153828571Y-103640000D01*
X153923809Y-103735238D01*
X153971428Y-103925714D01*
X153971428Y-104259047D01*
X153923809Y-104449523D01*
X153828571Y-104544761D01*
X153733333Y-104592380D01*
X153542857Y-104592380D01*
X153447619Y-104544761D01*
X153352380Y-104449523D01*
X153304761Y-104259047D01*
X153304761Y-103925714D01*
X153352380Y-103735238D01*
X153447619Y-103640000D01*
X153542857Y-103592380D01*
X154923809Y-103640000D02*
X154828571Y-103592380D01*
X154685714Y-103592380D01*
X154542857Y-103640000D01*
X154447619Y-103735238D01*
X154400000Y-103830476D01*
X154352380Y-104020952D01*
X154352380Y-104163809D01*
X154400000Y-104354285D01*
X154447619Y-104449523D01*
X154542857Y-104544761D01*
X154685714Y-104592380D01*
X154780952Y-104592380D01*
X154923809Y-104544761D01*
X154971428Y-104497142D01*
X154971428Y-104163809D01*
X154780952Y-104163809D01*
X155923809Y-103640000D02*
X155828571Y-103592380D01*
X155685714Y-103592380D01*
X155542857Y-103640000D01*
X155447619Y-103735238D01*
X155400000Y-103830476D01*
X155352380Y-104020952D01*
X155352380Y-104163809D01*
X155400000Y-104354285D01*
X155447619Y-104449523D01*
X155542857Y-104544761D01*
X155685714Y-104592380D01*
X155780952Y-104592380D01*
X155923809Y-104544761D01*
X155971428Y-104497142D01*
X155971428Y-104163809D01*
X155780952Y-104163809D01*
X156876190Y-104592380D02*
X156400000Y-104592380D01*
X156400000Y-103592380D01*
X157209523Y-104068571D02*
X157542857Y-104068571D01*
X157685714Y-104592380D02*
X157209523Y-104592380D01*
X157209523Y-103592380D01*
X157685714Y-103592380D01*
X158638095Y-104592380D02*
X158066666Y-104592380D01*
X158352380Y-104592380D02*
X158352380Y-103592380D01*
X158257142Y-103735238D01*
X158161904Y-103830476D01*
X158066666Y-103878095D01*
X111506000Y-106172000D02*
G75*
G03*
X111506000Y-106172000I-2286000J0D01*
G01*
D12*
X140620000Y-106030000D02*
X138780000Y-106030000D01*
X138780000Y-106030000D02*
X138780000Y-109870000D01*
X140620000Y-109870000D02*
X140620000Y-106030000D01*
X139700000Y-105080000D02*
X139700000Y-106030000D01*
X138780000Y-109870000D02*
X140620000Y-109870000D01*
X139700000Y-110820000D02*
X139700000Y-109870000D01*
X163480000Y-95870000D02*
X161640000Y-95870000D01*
X161640000Y-95870000D02*
X161640000Y-99710000D01*
X163480000Y-99710000D02*
X163480000Y-95870000D01*
X162560000Y-94920000D02*
X162560000Y-95870000D01*
X161640000Y-99710000D02*
X163480000Y-99710000D01*
X162560000Y-100660000D02*
X162560000Y-99710000D01*
X143860000Y-113680000D02*
X145700000Y-113680000D01*
X145700000Y-113680000D02*
X145700000Y-109840000D01*
X143860000Y-109840000D02*
X143860000Y-113680000D01*
X144780000Y-114630000D02*
X144780000Y-113680000D01*
X145700000Y-109840000D02*
X143860000Y-109840000D01*
X144780000Y-108890000D02*
X144780000Y-109840000D01*
X145400000Y-87980000D02*
X145400000Y-89820000D01*
X145400000Y-89820000D02*
X149240000Y-89820000D01*
X149240000Y-87980000D02*
X145400000Y-87980000D01*
X144450000Y-88900000D02*
X145400000Y-88900000D01*
X149240000Y-89820000D02*
X149240000Y-87980000D01*
X150190000Y-88900000D02*
X149240000Y-88900000D01*
X163480000Y-85710000D02*
X161640000Y-85710000D01*
X161640000Y-85710000D02*
X161640000Y-89550000D01*
X163480000Y-89550000D02*
X163480000Y-85710000D01*
X162560000Y-84760000D02*
X162560000Y-85710000D01*
X161640000Y-89550000D02*
X163480000Y-89550000D01*
X162560000Y-90500000D02*
X162560000Y-89550000D01*
D10*
X198628000Y-115316000D02*
X198628000Y-112776000D01*
X196088000Y-69596000D02*
X196088000Y-112776000D01*
X201168000Y-115316000D02*
X201168000Y-69596000D01*
X195808000Y-114046000D02*
X195808000Y-115596000D01*
X195808000Y-115596000D02*
X197358000Y-115596000D01*
X201168000Y-69596000D02*
X196088000Y-69596000D01*
X198628000Y-112776000D02*
X196088000Y-112776000D01*
X201168000Y-115316000D02*
X198628000Y-115316000D01*
X150368000Y-117856000D02*
X132588000Y-117856000D01*
X150368000Y-120396000D02*
X150368000Y-117856000D01*
X132588000Y-120396000D02*
X150368000Y-120396000D01*
X132588000Y-120396000D02*
X132588000Y-117856000D01*
X131318000Y-117576000D02*
X129768000Y-117576000D01*
X129768000Y-120676000D02*
X131318000Y-120676000D01*
X129768000Y-117576000D02*
X129768000Y-120676000D01*
X152628000Y-117576000D02*
X152628000Y-120676000D01*
X154178000Y-117576000D02*
X152628000Y-117576000D01*
X155448000Y-120396000D02*
X173228000Y-120396000D01*
X173228000Y-117856000D02*
X155448000Y-117856000D01*
X173228000Y-120396000D02*
X173228000Y-117856000D01*
X152628000Y-120676000D02*
X154178000Y-120676000D01*
X155448000Y-120396000D02*
X155448000Y-117856000D01*
X175488000Y-120676000D02*
X177038000Y-120676000D01*
X178308000Y-120396000D02*
X196088000Y-120396000D01*
X175488000Y-117576000D02*
X175488000Y-120676000D01*
X178308000Y-120396000D02*
X178308000Y-117856000D01*
X196088000Y-117856000D02*
X178308000Y-117856000D01*
X196088000Y-120396000D02*
X196088000Y-117856000D01*
X177038000Y-117576000D02*
X175488000Y-117576000D01*
X123444000Y-72136000D02*
X146304000Y-72136000D01*
X120624000Y-72416000D02*
X122174000Y-72416000D01*
X123444000Y-72136000D02*
X123444000Y-69596000D01*
X122174000Y-69316000D02*
X120624000Y-69316000D01*
X146304000Y-69596000D02*
X123444000Y-69596000D01*
X146304000Y-72136000D02*
X146304000Y-69596000D01*
X120624000Y-69316000D02*
X120624000Y-72416000D01*
X147548000Y-69316000D02*
X147548000Y-72416000D01*
X168148000Y-69596000D02*
X150368000Y-69596000D01*
X168148000Y-72136000D02*
X168148000Y-69596000D01*
X150368000Y-72136000D02*
X168148000Y-72136000D01*
X149098000Y-69316000D02*
X147548000Y-69316000D01*
X147548000Y-72416000D02*
X149098000Y-72416000D01*
X150368000Y-72136000D02*
X150368000Y-69596000D01*
X191008000Y-72136000D02*
X191008000Y-69596000D01*
X173228000Y-72136000D02*
X191008000Y-72136000D01*
X191008000Y-69596000D02*
X173228000Y-69596000D01*
X173228000Y-72136000D02*
X173228000Y-69596000D01*
X170408000Y-69316000D02*
X170408000Y-72416000D01*
X170408000Y-72416000D02*
X171958000Y-72416000D01*
X171958000Y-69316000D02*
X170408000Y-69316000D01*
X119634000Y-119126000D02*
G75*
G03*
X119634000Y-119126000I-2286000J0D01*
G01*
X171704000Y-114046000D02*
G75*
G03*
X171704000Y-114046000I-2286000J0D01*
G01*
X202184000Y-119126000D02*
G75*
G03*
X202184000Y-119126000I-2286000J0D01*
G01*
X120904000Y-70866000D02*
G75*
G03*
X120904000Y-70866000I-2286000J0D01*
G01*
X171704000Y-86106000D02*
G75*
G03*
X171704000Y-86106000I-2286000J0D01*
G01*
X195834000Y-70866000D02*
G75*
G03*
X195834000Y-70866000I-2286000J0D01*
G01*
D12*
X119781000Y-112800000D02*
X119781000Y-113935000D01*
X119821000Y-109611000D02*
X119821000Y-110720000D01*
X118540000Y-112800000D02*
X118540000Y-114336000D01*
X118460000Y-109181000D02*
X118460000Y-110720000D01*
X119221000Y-109318000D02*
X119221000Y-110720000D01*
X118820000Y-112800000D02*
X118820000Y-114303000D01*
X119901000Y-112800000D02*
X119901000Y-113855000D01*
X120621000Y-110441000D02*
X120621000Y-113079000D01*
X120221000Y-109934000D02*
X120221000Y-110720000D01*
X119421000Y-109395000D02*
X119421000Y-110720000D01*
X120341000Y-110061000D02*
X120341000Y-110720000D01*
X119581000Y-112800000D02*
X119581000Y-114050000D01*
X120901000Y-111083000D02*
X120901000Y-112437000D01*
X120261000Y-109975000D02*
X120261000Y-110720000D01*
X120301000Y-112800000D02*
X120301000Y-113503000D01*
X119301000Y-112800000D02*
X119301000Y-114174000D01*
X120181000Y-112800000D02*
X120181000Y-113624000D01*
X118740000Y-109204000D02*
X118740000Y-110720000D01*
X119341000Y-109362000D02*
X119341000Y-110720000D01*
X120301000Y-110017000D02*
X120301000Y-110720000D01*
X120541000Y-110317000D02*
X120541000Y-113203000D01*
X119661000Y-112800000D02*
X119661000Y-114007000D01*
X119101000Y-112800000D02*
X119101000Y-114240000D01*
X119941000Y-112800000D02*
X119941000Y-113825000D01*
X118900000Y-109232000D02*
X118900000Y-110720000D01*
X119341000Y-112800000D02*
X119341000Y-114158000D01*
X118660000Y-112800000D02*
X118660000Y-114325000D01*
X119261000Y-109332000D02*
X119261000Y-110720000D01*
X119581000Y-109470000D02*
X119581000Y-110720000D01*
X118940000Y-112800000D02*
X118940000Y-114280000D01*
X119381000Y-109378000D02*
X119381000Y-110720000D01*
X120741000Y-110662000D02*
X120741000Y-112858000D01*
X119501000Y-112800000D02*
X119501000Y-114089000D01*
X119060000Y-109269000D02*
X119060000Y-110720000D01*
X118980000Y-112800000D02*
X118980000Y-114271000D01*
X120021000Y-109756000D02*
X120021000Y-110720000D01*
X115575225Y-110285000D02*
X116075225Y-110285000D01*
X119981000Y-112800000D02*
X119981000Y-113795000D01*
X119060000Y-112800000D02*
X119060000Y-114251000D01*
X120381000Y-112800000D02*
X120381000Y-113413000D01*
X119101000Y-109280000D02*
X119101000Y-110720000D01*
X119381000Y-112800000D02*
X119381000Y-114142000D01*
X118580000Y-109187000D02*
X118580000Y-110720000D01*
X119221000Y-112800000D02*
X119221000Y-114202000D01*
X119461000Y-112800000D02*
X119461000Y-114108000D01*
X119421000Y-112800000D02*
X119421000Y-114125000D01*
X118460000Y-112800000D02*
X118460000Y-114339000D01*
X118620000Y-109191000D02*
X118620000Y-110720000D01*
X120501000Y-110260000D02*
X120501000Y-113260000D01*
X119621000Y-109492000D02*
X119621000Y-110720000D01*
X119181000Y-112800000D02*
X119181000Y-114215000D01*
X118660000Y-109195000D02*
X118660000Y-110720000D01*
X118900000Y-112800000D02*
X118900000Y-114288000D01*
X115825225Y-110035000D02*
X115825225Y-110535000D01*
X120381000Y-110107000D02*
X120381000Y-110720000D01*
X118420000Y-109180000D02*
X118420000Y-110720000D01*
X119020000Y-112800000D02*
X119020000Y-114261000D01*
X119461000Y-109412000D02*
X119461000Y-110720000D01*
X120661000Y-110509000D02*
X120661000Y-113011000D01*
X119781000Y-109585000D02*
X119781000Y-110720000D01*
X119541000Y-112800000D02*
X119541000Y-114070000D01*
X119541000Y-109450000D02*
X119541000Y-110720000D01*
X119981000Y-109725000D02*
X119981000Y-110720000D01*
X120981000Y-111476000D02*
X120981000Y-112044000D01*
X118380000Y-109180000D02*
X118380000Y-110720000D01*
X120061000Y-109789000D02*
X120061000Y-110720000D01*
X120861000Y-110955000D02*
X120861000Y-112565000D01*
X119020000Y-109259000D02*
X119020000Y-110720000D01*
X118380000Y-112800000D02*
X118380000Y-114340000D01*
X119701000Y-109536000D02*
X119701000Y-110720000D01*
X118980000Y-109249000D02*
X118980000Y-110720000D01*
X120141000Y-109859000D02*
X120141000Y-110720000D01*
X118940000Y-109240000D02*
X118940000Y-110720000D01*
X120101000Y-109823000D02*
X120101000Y-110720000D01*
X119701000Y-112800000D02*
X119701000Y-113984000D01*
X119821000Y-112800000D02*
X119821000Y-113909000D01*
X119941000Y-109695000D02*
X119941000Y-110720000D01*
X118700000Y-112800000D02*
X118700000Y-114321000D01*
X120821000Y-110845000D02*
X120821000Y-112675000D01*
X120141000Y-112800000D02*
X120141000Y-113661000D01*
X119261000Y-112800000D02*
X119261000Y-114188000D01*
X118540000Y-109184000D02*
X118540000Y-110720000D01*
X118780000Y-112800000D02*
X118780000Y-114310000D01*
X118580000Y-112800000D02*
X118580000Y-114333000D01*
X120781000Y-110749000D02*
X120781000Y-112771000D01*
X120261000Y-112800000D02*
X120261000Y-113545000D01*
X118500000Y-109182000D02*
X118500000Y-110720000D01*
X120061000Y-112800000D02*
X120061000Y-113731000D01*
X119861000Y-109638000D02*
X119861000Y-110720000D01*
X118500000Y-112800000D02*
X118500000Y-114338000D01*
X120461000Y-110206000D02*
X120461000Y-113314000D01*
X119861000Y-112800000D02*
X119861000Y-113882000D01*
X118820000Y-109217000D02*
X118820000Y-110720000D01*
X119301000Y-109346000D02*
X119301000Y-110720000D01*
X120181000Y-109896000D02*
X120181000Y-110720000D01*
X119141000Y-112800000D02*
X119141000Y-114228000D01*
X119501000Y-109431000D02*
X119501000Y-110720000D01*
X120581000Y-110377000D02*
X120581000Y-113143000D01*
X119901000Y-109665000D02*
X119901000Y-110720000D01*
X120341000Y-112800000D02*
X120341000Y-113459000D01*
X119741000Y-109560000D02*
X119741000Y-110720000D01*
X118860000Y-109224000D02*
X118860000Y-110720000D01*
X119181000Y-109305000D02*
X119181000Y-110720000D01*
X119141000Y-109292000D02*
X119141000Y-110720000D01*
X119741000Y-112800000D02*
X119741000Y-113960000D01*
X118780000Y-109210000D02*
X118780000Y-110720000D01*
X119621000Y-112800000D02*
X119621000Y-114028000D01*
X120941000Y-111242000D02*
X120941000Y-112278000D01*
X120101000Y-112800000D02*
X120101000Y-113697000D01*
X120021000Y-112800000D02*
X120021000Y-113764000D01*
X118700000Y-109199000D02*
X118700000Y-110720000D01*
X118420000Y-112800000D02*
X118420000Y-114340000D01*
X118740000Y-112800000D02*
X118740000Y-114316000D01*
X120701000Y-110582000D02*
X120701000Y-112938000D01*
X120421000Y-110155000D02*
X120421000Y-113365000D01*
X118860000Y-112800000D02*
X118860000Y-114296000D01*
X120221000Y-112800000D02*
X120221000Y-113586000D01*
X119661000Y-109513000D02*
X119661000Y-110720000D01*
X118620000Y-112800000D02*
X118620000Y-114329000D01*
X121000000Y-111760000D02*
G75*
G03*
X121000000Y-111760000I-2620000J0D01*
G01*
X136630000Y-88210000D02*
X140230000Y-88210000D01*
X140268478Y-88198478D02*
G75*
G03*
X138430000Y-83760000I-1838478J1838478D01*
G01*
X138430000Y-83759999D02*
G75*
G03*
X136591522Y-88198478I0J-2600001D01*
G01*
X191830000Y-95250000D02*
X191830000Y-100390000D01*
X189170000Y-95250000D02*
X189170000Y-100390000D01*
X191830000Y-92650000D02*
X191830000Y-93980000D01*
X189170000Y-95250000D02*
X191830000Y-95250000D01*
X189170000Y-100390000D02*
X191830000Y-100390000D01*
X190500000Y-92650000D02*
X191830000Y-92650000D01*
X123480000Y-107720000D02*
X123480000Y-109200000D01*
X123160000Y-107720000D02*
X123160000Y-109249000D01*
X123520000Y-104169000D02*
X123520000Y-105640000D01*
X123761000Y-104238000D02*
X123761000Y-105640000D01*
X124801000Y-104895000D02*
X124801000Y-105640000D01*
X123600000Y-104189000D02*
X123600000Y-105640000D01*
X123801000Y-107720000D02*
X123801000Y-109108000D01*
X123801000Y-104252000D02*
X123801000Y-105640000D01*
X122960000Y-104100000D02*
X122960000Y-105640000D01*
X123721000Y-107720000D02*
X123721000Y-109135000D01*
X123040000Y-104102000D02*
X123040000Y-105640000D01*
X123400000Y-107720000D02*
X123400000Y-109216000D01*
X124641000Y-104743000D02*
X124641000Y-105640000D01*
X124401000Y-104558000D02*
X124401000Y-105640000D01*
X124881000Y-104981000D02*
X124881000Y-105640000D01*
X124721000Y-104816000D02*
X124721000Y-105640000D01*
X123240000Y-107720000D02*
X123240000Y-109241000D01*
X120115225Y-105205000D02*
X120615225Y-105205000D01*
X123320000Y-107720000D02*
X123320000Y-109230000D01*
X124641000Y-107720000D02*
X124641000Y-108617000D01*
X124161000Y-104412000D02*
X124161000Y-105640000D01*
X124441000Y-104585000D02*
X124441000Y-105640000D01*
X124801000Y-107720000D02*
X124801000Y-108465000D01*
X124521000Y-104645000D02*
X124521000Y-105640000D01*
X124401000Y-107720000D02*
X124401000Y-108802000D01*
X124001000Y-104332000D02*
X124001000Y-105640000D01*
X124681000Y-107720000D02*
X124681000Y-108581000D01*
X124241000Y-107720000D02*
X124241000Y-108904000D01*
X124201000Y-107720000D02*
X124201000Y-108927000D01*
X123921000Y-104298000D02*
X123921000Y-105640000D01*
X123921000Y-107720000D02*
X123921000Y-109062000D01*
X125521000Y-106396000D02*
X125521000Y-106964000D01*
X124601000Y-104709000D02*
X124601000Y-105640000D01*
X123200000Y-107720000D02*
X123200000Y-109245000D01*
X123120000Y-104107000D02*
X123120000Y-105640000D01*
X123320000Y-104130000D02*
X123320000Y-105640000D01*
X124761000Y-104854000D02*
X124761000Y-105640000D01*
X124361000Y-107720000D02*
X124361000Y-108829000D01*
X125081000Y-105237000D02*
X125081000Y-108123000D01*
X124961000Y-105075000D02*
X124961000Y-108285000D01*
X123881000Y-107720000D02*
X123881000Y-109078000D01*
X124921000Y-107720000D02*
X124921000Y-108333000D01*
X124321000Y-104505000D02*
X124321000Y-105640000D01*
X125321000Y-105669000D02*
X125321000Y-107691000D01*
X123000000Y-104101000D02*
X123000000Y-105640000D01*
X125401000Y-105875000D02*
X125401000Y-107485000D01*
X124161000Y-107720000D02*
X124161000Y-108948000D01*
X123040000Y-107720000D02*
X123040000Y-109258000D01*
X122920000Y-107720000D02*
X122920000Y-109260000D01*
X124601000Y-107720000D02*
X124601000Y-108651000D01*
X124201000Y-104433000D02*
X124201000Y-105640000D01*
X123560000Y-104179000D02*
X123560000Y-105640000D01*
X123080000Y-104104000D02*
X123080000Y-105640000D01*
X125041000Y-105180000D02*
X125041000Y-108180000D01*
X125241000Y-105502000D02*
X125241000Y-107858000D01*
X123641000Y-104200000D02*
X123641000Y-105640000D01*
X124481000Y-104615000D02*
X124481000Y-105640000D01*
X124841000Y-107720000D02*
X124841000Y-108423000D01*
X124921000Y-105027000D02*
X124921000Y-105640000D01*
X124721000Y-107720000D02*
X124721000Y-108544000D01*
X123681000Y-104212000D02*
X123681000Y-105640000D01*
X124281000Y-104480000D02*
X124281000Y-105640000D01*
X124881000Y-107720000D02*
X124881000Y-108379000D01*
X123560000Y-107720000D02*
X123560000Y-109181000D01*
X122920000Y-104100000D02*
X122920000Y-105640000D01*
X125281000Y-105582000D02*
X125281000Y-107778000D01*
X123841000Y-104266000D02*
X123841000Y-105640000D01*
X125161000Y-105361000D02*
X125161000Y-107999000D01*
X124241000Y-104456000D02*
X124241000Y-105640000D01*
X124761000Y-107720000D02*
X124761000Y-108506000D01*
X123360000Y-104137000D02*
X123360000Y-105640000D01*
X123000000Y-107720000D02*
X123000000Y-109259000D01*
X124681000Y-104779000D02*
X124681000Y-105640000D01*
X124561000Y-104676000D02*
X124561000Y-105640000D01*
X125121000Y-105297000D02*
X125121000Y-108063000D01*
X124081000Y-107720000D02*
X124081000Y-108990000D01*
X123681000Y-107720000D02*
X123681000Y-109148000D01*
X123080000Y-107720000D02*
X123080000Y-109256000D01*
X124441000Y-107720000D02*
X124441000Y-108775000D01*
X124121000Y-107720000D02*
X124121000Y-108970000D01*
X123641000Y-107720000D02*
X123641000Y-109160000D01*
X124281000Y-107720000D02*
X124281000Y-108880000D01*
X124841000Y-104937000D02*
X124841000Y-105640000D01*
X124081000Y-104370000D02*
X124081000Y-105640000D01*
X123280000Y-107720000D02*
X123280000Y-109236000D01*
X125361000Y-105765000D02*
X125361000Y-107595000D01*
X124321000Y-107720000D02*
X124321000Y-108855000D01*
X124361000Y-104531000D02*
X124361000Y-105640000D01*
X124041000Y-104351000D02*
X124041000Y-105640000D01*
X123961000Y-107720000D02*
X123961000Y-109045000D01*
X123600000Y-107720000D02*
X123600000Y-109171000D01*
X123881000Y-104282000D02*
X123881000Y-105640000D01*
X123841000Y-107720000D02*
X123841000Y-109094000D01*
X123440000Y-104152000D02*
X123440000Y-105640000D01*
X125441000Y-106003000D02*
X125441000Y-107357000D01*
X123721000Y-104225000D02*
X123721000Y-105640000D01*
X125001000Y-105126000D02*
X125001000Y-108234000D01*
X125201000Y-105429000D02*
X125201000Y-107931000D01*
X120365225Y-104955000D02*
X120365225Y-105455000D01*
X124521000Y-107720000D02*
X124521000Y-108715000D01*
X125481000Y-106162000D02*
X125481000Y-107198000D01*
X123961000Y-104315000D02*
X123961000Y-105640000D01*
X123761000Y-107720000D02*
X123761000Y-109122000D01*
X123200000Y-104115000D02*
X123200000Y-105640000D01*
X124481000Y-107720000D02*
X124481000Y-108745000D01*
X123400000Y-104144000D02*
X123400000Y-105640000D01*
X123160000Y-104111000D02*
X123160000Y-105640000D01*
X123520000Y-107720000D02*
X123520000Y-109191000D01*
X123480000Y-104160000D02*
X123480000Y-105640000D01*
X123240000Y-104119000D02*
X123240000Y-105640000D01*
X123360000Y-107720000D02*
X123360000Y-109223000D01*
X123440000Y-107720000D02*
X123440000Y-109208000D01*
X123280000Y-104124000D02*
X123280000Y-105640000D01*
X124041000Y-107720000D02*
X124041000Y-109009000D01*
X124121000Y-104390000D02*
X124121000Y-105640000D01*
X122960000Y-107720000D02*
X122960000Y-109260000D01*
X123120000Y-107720000D02*
X123120000Y-109253000D01*
X124001000Y-107720000D02*
X124001000Y-109028000D01*
X124561000Y-107720000D02*
X124561000Y-108684000D01*
X125540000Y-106680000D02*
G75*
G03*
X125540000Y-106680000I-2620000J0D01*
G01*
X189170000Y-82610000D02*
X189170000Y-81280000D01*
X191830000Y-80010000D02*
X191830000Y-77410000D01*
X189170000Y-80010000D02*
X189170000Y-77410000D01*
X190500000Y-82610000D02*
X189170000Y-82610000D01*
X191830000Y-77410000D02*
X189170000Y-77410000D01*
X191830000Y-80010000D02*
X189170000Y-80010000D01*
X189170000Y-115630000D02*
X191830000Y-115630000D01*
X191830000Y-113030000D02*
X191830000Y-115630000D01*
X189170000Y-113030000D02*
X191830000Y-113030000D01*
X189170000Y-113030000D02*
X189170000Y-115630000D01*
X191830000Y-110430000D02*
X191830000Y-111760000D01*
X190500000Y-110430000D02*
X191830000Y-110430000D01*
X191830000Y-105410000D02*
X191830000Y-108010000D01*
X189170000Y-108010000D02*
X191830000Y-108010000D01*
X189170000Y-105410000D02*
X189170000Y-108010000D01*
X190500000Y-102810000D02*
X191830000Y-102810000D01*
X191830000Y-102810000D02*
X191830000Y-104140000D01*
X189170000Y-105410000D02*
X191830000Y-105410000D01*
X151130000Y-77410000D02*
X128210000Y-77410000D01*
X153730000Y-80070000D02*
X152400000Y-80070000D01*
X151130000Y-77410000D02*
X151130000Y-80070000D01*
X151130000Y-80070000D02*
X128210000Y-80070000D01*
X128210000Y-77410000D02*
X128210000Y-80070000D01*
X153730000Y-78740000D02*
X153730000Y-80070000D01*
X187594899Y-88900000D02*
X188800000Y-88900000D01*
X187594899Y-88900000D02*
G75*
G03*
X187594899Y-88900000I-2174899J0D01*
G01*
X130141000Y-109725000D02*
X130141000Y-110720000D01*
X130541000Y-110107000D02*
X130541000Y-110720000D01*
X129421000Y-109332000D02*
X129421000Y-110720000D01*
X129220000Y-112800000D02*
X129220000Y-114251000D01*
X128940000Y-112800000D02*
X128940000Y-114310000D01*
X130381000Y-112800000D02*
X130381000Y-113586000D01*
X128860000Y-109199000D02*
X128860000Y-110720000D01*
X130101000Y-112800000D02*
X130101000Y-113825000D01*
X128540000Y-109180000D02*
X128540000Y-110720000D01*
X130101000Y-109695000D02*
X130101000Y-110720000D01*
X128780000Y-109191000D02*
X128780000Y-110720000D01*
X129621000Y-109412000D02*
X129621000Y-110720000D01*
X129941000Y-109585000D02*
X129941000Y-110720000D01*
X129180000Y-109259000D02*
X129180000Y-110720000D01*
X128620000Y-112800000D02*
X128620000Y-114339000D01*
X130421000Y-112800000D02*
X130421000Y-113545000D01*
X128940000Y-109210000D02*
X128940000Y-110720000D01*
X130501000Y-110061000D02*
X130501000Y-110720000D01*
X130341000Y-109896000D02*
X130341000Y-110720000D01*
X129821000Y-109513000D02*
X129821000Y-110720000D01*
X130301000Y-112800000D02*
X130301000Y-113661000D01*
X129701000Y-109450000D02*
X129701000Y-110720000D01*
X129581000Y-109395000D02*
X129581000Y-110720000D01*
X129781000Y-112800000D02*
X129781000Y-114028000D01*
X130821000Y-110509000D02*
X130821000Y-113011000D01*
X128740000Y-109187000D02*
X128740000Y-110720000D01*
X129861000Y-109536000D02*
X129861000Y-110720000D01*
X129781000Y-109492000D02*
X129781000Y-110720000D01*
X130181000Y-112800000D02*
X130181000Y-113764000D01*
X128980000Y-112800000D02*
X128980000Y-114303000D01*
X129821000Y-112800000D02*
X129821000Y-114007000D01*
X129261000Y-109280000D02*
X129261000Y-110720000D01*
X129661000Y-112800000D02*
X129661000Y-114089000D01*
X130461000Y-112800000D02*
X130461000Y-113503000D01*
X129020000Y-109224000D02*
X129020000Y-110720000D01*
X128580000Y-109180000D02*
X128580000Y-110720000D01*
X129180000Y-112800000D02*
X129180000Y-114261000D01*
X130861000Y-110582000D02*
X130861000Y-112938000D01*
X129861000Y-112800000D02*
X129861000Y-113984000D01*
X129060000Y-109232000D02*
X129060000Y-110720000D01*
X128540000Y-112800000D02*
X128540000Y-114340000D01*
X130261000Y-112800000D02*
X130261000Y-113697000D01*
X128820000Y-109195000D02*
X128820000Y-110720000D01*
X129941000Y-112800000D02*
X129941000Y-113935000D01*
X130421000Y-109975000D02*
X130421000Y-110720000D01*
X130181000Y-109756000D02*
X130181000Y-110720000D01*
X131021000Y-110955000D02*
X131021000Y-112565000D01*
X129461000Y-112800000D02*
X129461000Y-114174000D01*
X128580000Y-112800000D02*
X128580000Y-114340000D01*
X129341000Y-112800000D02*
X129341000Y-114215000D01*
X130261000Y-109823000D02*
X130261000Y-110720000D01*
X129541000Y-109378000D02*
X129541000Y-110720000D01*
X129381000Y-112800000D02*
X129381000Y-114202000D01*
X129381000Y-109318000D02*
X129381000Y-110720000D01*
X131061000Y-111083000D02*
X131061000Y-112437000D01*
X128900000Y-109204000D02*
X128900000Y-110720000D01*
X130701000Y-110317000D02*
X130701000Y-113203000D01*
X130061000Y-112800000D02*
X130061000Y-113855000D01*
X125735225Y-110285000D02*
X126235225Y-110285000D01*
X130741000Y-110377000D02*
X130741000Y-113143000D01*
X130621000Y-110206000D02*
X130621000Y-113314000D01*
X130901000Y-110662000D02*
X130901000Y-112858000D01*
X129301000Y-112800000D02*
X129301000Y-114228000D01*
X131141000Y-111476000D02*
X131141000Y-112044000D01*
X128860000Y-112800000D02*
X128860000Y-114321000D01*
X130301000Y-109859000D02*
X130301000Y-110720000D01*
X130781000Y-110441000D02*
X130781000Y-113079000D01*
X128780000Y-112800000D02*
X128780000Y-114329000D01*
X129981000Y-112800000D02*
X129981000Y-113909000D01*
X130981000Y-110845000D02*
X130981000Y-112675000D01*
X125985225Y-110035000D02*
X125985225Y-110535000D01*
X130581000Y-110155000D02*
X130581000Y-113365000D01*
X130461000Y-110017000D02*
X130461000Y-110720000D01*
X129421000Y-112800000D02*
X129421000Y-114188000D01*
X129741000Y-109470000D02*
X129741000Y-110720000D01*
X130221000Y-109789000D02*
X130221000Y-110720000D01*
X131101000Y-111242000D02*
X131101000Y-112278000D01*
X129661000Y-109431000D02*
X129661000Y-110720000D01*
X130021000Y-109638000D02*
X130021000Y-110720000D01*
X129701000Y-112800000D02*
X129701000Y-114070000D01*
X128740000Y-112800000D02*
X128740000Y-114333000D01*
X129901000Y-109560000D02*
X129901000Y-110720000D01*
X129060000Y-112800000D02*
X129060000Y-114288000D01*
X128660000Y-109182000D02*
X128660000Y-110720000D01*
X129301000Y-109292000D02*
X129301000Y-110720000D01*
X129621000Y-112800000D02*
X129621000Y-114108000D01*
X129541000Y-112800000D02*
X129541000Y-114142000D01*
X130661000Y-110260000D02*
X130661000Y-113260000D01*
X129220000Y-109269000D02*
X129220000Y-110720000D01*
X128660000Y-112800000D02*
X128660000Y-114338000D01*
X129501000Y-109362000D02*
X129501000Y-110720000D01*
X129140000Y-109249000D02*
X129140000Y-110720000D01*
X129581000Y-112800000D02*
X129581000Y-114125000D01*
X129261000Y-112800000D02*
X129261000Y-114240000D01*
X130501000Y-112800000D02*
X130501000Y-113459000D01*
X128820000Y-112800000D02*
X128820000Y-114325000D01*
X129501000Y-112800000D02*
X129501000Y-114158000D01*
X130381000Y-109934000D02*
X130381000Y-110720000D01*
X130141000Y-112800000D02*
X130141000Y-113795000D01*
X129100000Y-112800000D02*
X129100000Y-114280000D01*
X130341000Y-112800000D02*
X130341000Y-113624000D01*
X129140000Y-112800000D02*
X129140000Y-114271000D01*
X129341000Y-109305000D02*
X129341000Y-110720000D01*
X129461000Y-109346000D02*
X129461000Y-110720000D01*
X130941000Y-110749000D02*
X130941000Y-112771000D01*
X130221000Y-112800000D02*
X130221000Y-113731000D01*
X129100000Y-109240000D02*
X129100000Y-110720000D01*
X130061000Y-109665000D02*
X130061000Y-110720000D01*
X129741000Y-112800000D02*
X129741000Y-114050000D01*
X130021000Y-112800000D02*
X130021000Y-113882000D01*
X128900000Y-112800000D02*
X128900000Y-114316000D01*
X128620000Y-109181000D02*
X128620000Y-110720000D01*
X128980000Y-109217000D02*
X128980000Y-110720000D01*
X128700000Y-112800000D02*
X128700000Y-114336000D01*
X129981000Y-109611000D02*
X129981000Y-110720000D01*
X130541000Y-112800000D02*
X130541000Y-113413000D01*
X129901000Y-112800000D02*
X129901000Y-113960000D01*
X129020000Y-112800000D02*
X129020000Y-114296000D01*
X128700000Y-109184000D02*
X128700000Y-110720000D01*
X131160000Y-111760000D02*
G75*
G03*
X131160000Y-111760000I-2620000J0D01*
G01*
X177835000Y-78765000D02*
X177835000Y-80095000D01*
X177835000Y-80095000D02*
X176505000Y-80095000D01*
X175235000Y-77435000D02*
X175235000Y-80095000D01*
X175235000Y-77435000D02*
X162475000Y-77435000D01*
X162475000Y-77435000D02*
X162475000Y-80095000D01*
X175235000Y-80095000D02*
X162475000Y-80095000D01*
X179070000Y-107890000D02*
X156150000Y-107890000D01*
X179070000Y-107890000D02*
X179070000Y-110550000D01*
X156150000Y-107890000D02*
X156150000Y-110550000D01*
X181670000Y-109220000D02*
X181670000Y-110550000D01*
X179070000Y-110550000D02*
X156150000Y-110550000D01*
X181670000Y-110550000D02*
X180340000Y-110550000D01*
X142215000Y-97755000D02*
X142215000Y-100415000D01*
X129455000Y-97755000D02*
X129455000Y-100415000D01*
X142215000Y-97755000D02*
X129455000Y-97755000D01*
X142215000Y-100415000D02*
X129455000Y-100415000D01*
X144815000Y-99085000D02*
X144815000Y-100415000D01*
X144815000Y-100415000D02*
X143485000Y-100415000D01*
X107950000Y-74990000D02*
X115630000Y-74990000D01*
X115630000Y-74990000D02*
X115630000Y-72330000D01*
X107950000Y-74990000D02*
X107950000Y-72330000D01*
X105350000Y-72330000D02*
X106680000Y-72330000D01*
X105350000Y-73660000D02*
X105350000Y-72330000D01*
X107950000Y-72330000D02*
X115630000Y-72330000D01*
X154410000Y-88210000D02*
X158010000Y-88210000D01*
X156210000Y-83759999D02*
G75*
G03*
X154371522Y-88198478I0J-2600001D01*
G01*
X158048478Y-88198478D02*
G75*
G03*
X156210000Y-83760000I-1838478J1838478D01*
G01*
X154410000Y-100910000D02*
X158010000Y-100910000D01*
X158048478Y-100898478D02*
G75*
G03*
X156210000Y-96460000I-1838478J1838478D01*
G01*
X156210000Y-96459999D02*
G75*
G03*
X154371522Y-100898478I0J-2600001D01*
G01*
D13*
X109220000Y-106172000D03*
D14*
X197358000Y-114046000D03*
D15*
X199898000Y-114046000D03*
X197358000Y-111506000D03*
X199898000Y-111506000D03*
X197358000Y-108966000D03*
X199898000Y-108966000D03*
X197358000Y-106426000D03*
X199898000Y-106426000D03*
X197358000Y-103886000D03*
X199898000Y-103886000D03*
X197358000Y-101346000D03*
X199898000Y-101346000D03*
X197358000Y-98806000D03*
X199898000Y-98806000D03*
X197358000Y-96266000D03*
X199898000Y-96266000D03*
X197358000Y-93726000D03*
X199898000Y-93726000D03*
X197358000Y-91186000D03*
X199898000Y-91186000D03*
X197358000Y-88646000D03*
X199898000Y-88646000D03*
X197358000Y-86106000D03*
X199898000Y-86106000D03*
X197358000Y-83566000D03*
X199898000Y-83566000D03*
X197358000Y-81026000D03*
X199898000Y-81026000D03*
X197358000Y-78486000D03*
X199898000Y-78486000D03*
X197358000Y-75946000D03*
X199898000Y-75946000D03*
X197358000Y-73406000D03*
X199898000Y-73406000D03*
X197358000Y-70866000D03*
X199898000Y-70866000D03*
D16*
X131318000Y-119126000D03*
X133858000Y-119126000D03*
X136398000Y-119126000D03*
X138938000Y-119126000D03*
X141478000Y-119126000D03*
X144018000Y-119126000D03*
X146558000Y-119126000D03*
X149098000Y-119126000D03*
X154178000Y-119126000D03*
X156718000Y-119126000D03*
X159258000Y-119126000D03*
X161798000Y-119126000D03*
X164338000Y-119126000D03*
X166878000Y-119126000D03*
X169418000Y-119126000D03*
X171958000Y-119126000D03*
X177038000Y-119126000D03*
X179578000Y-119126000D03*
X182118000Y-119126000D03*
X184658000Y-119126000D03*
X187198000Y-119126000D03*
X189738000Y-119126000D03*
X192278000Y-119126000D03*
X194818000Y-119126000D03*
X122174000Y-70866000D03*
X124714000Y-70866000D03*
X127254000Y-70866000D03*
X129794000Y-70866000D03*
X132334000Y-70866000D03*
X134874000Y-70866000D03*
X137414000Y-70866000D03*
X139954000Y-70866000D03*
X142494000Y-70866000D03*
X145034000Y-70866000D03*
X149098000Y-70866000D03*
X151638000Y-70866000D03*
X154178000Y-70866000D03*
X156718000Y-70866000D03*
X159258000Y-70866000D03*
X161798000Y-70866000D03*
X164338000Y-70866000D03*
X166878000Y-70866000D03*
X171958000Y-70866000D03*
X174498000Y-70866000D03*
X177038000Y-70866000D03*
X179578000Y-70866000D03*
X182118000Y-70866000D03*
X184658000Y-70866000D03*
X187198000Y-70866000D03*
X189738000Y-70866000D03*
D13*
X117348000Y-119126000D03*
X169418000Y-114046000D03*
X199898000Y-119126000D03*
X118618000Y-70866000D03*
X169418000Y-86106000D03*
X193548000Y-70866000D03*
%LPC*%
X109220000Y-106172000D03*
D17*
X139700000Y-111760000D03*
D18*
X139700000Y-104140000D03*
D17*
X162560000Y-101600000D03*
D18*
X162560000Y-93980000D03*
D17*
X144780000Y-107950000D03*
D18*
X144780000Y-115570000D03*
D17*
X151130000Y-88900000D03*
D18*
X143510000Y-88900000D03*
D17*
X162560000Y-91440000D03*
D18*
X162560000Y-83820000D03*
D14*
X197358000Y-114046000D03*
D15*
X199898000Y-114046000D03*
X197358000Y-111506000D03*
X199898000Y-111506000D03*
X197358000Y-108966000D03*
X199898000Y-108966000D03*
X197358000Y-106426000D03*
X199898000Y-106426000D03*
X197358000Y-103886000D03*
X199898000Y-103886000D03*
X197358000Y-101346000D03*
X199898000Y-101346000D03*
X197358000Y-98806000D03*
X199898000Y-98806000D03*
X197358000Y-96266000D03*
X199898000Y-96266000D03*
X197358000Y-93726000D03*
X199898000Y-93726000D03*
X197358000Y-91186000D03*
X199898000Y-91186000D03*
X197358000Y-88646000D03*
X199898000Y-88646000D03*
X197358000Y-86106000D03*
X199898000Y-86106000D03*
X197358000Y-83566000D03*
X199898000Y-83566000D03*
X197358000Y-81026000D03*
X199898000Y-81026000D03*
X197358000Y-78486000D03*
X199898000Y-78486000D03*
X197358000Y-75946000D03*
X199898000Y-75946000D03*
X197358000Y-73406000D03*
X199898000Y-73406000D03*
X197358000Y-70866000D03*
X199898000Y-70866000D03*
D16*
X131318000Y-119126000D03*
X133858000Y-119126000D03*
X136398000Y-119126000D03*
X138938000Y-119126000D03*
X141478000Y-119126000D03*
X144018000Y-119126000D03*
X146558000Y-119126000D03*
X149098000Y-119126000D03*
X154178000Y-119126000D03*
X156718000Y-119126000D03*
X159258000Y-119126000D03*
X161798000Y-119126000D03*
X164338000Y-119126000D03*
X166878000Y-119126000D03*
X169418000Y-119126000D03*
X171958000Y-119126000D03*
X177038000Y-119126000D03*
X179578000Y-119126000D03*
X182118000Y-119126000D03*
X184658000Y-119126000D03*
X187198000Y-119126000D03*
X189738000Y-119126000D03*
X192278000Y-119126000D03*
X194818000Y-119126000D03*
X122174000Y-70866000D03*
X124714000Y-70866000D03*
X127254000Y-70866000D03*
X129794000Y-70866000D03*
X132334000Y-70866000D03*
X134874000Y-70866000D03*
X137414000Y-70866000D03*
X139954000Y-70866000D03*
X142494000Y-70866000D03*
X145034000Y-70866000D03*
X149098000Y-70866000D03*
X151638000Y-70866000D03*
X154178000Y-70866000D03*
X156718000Y-70866000D03*
X159258000Y-70866000D03*
X161798000Y-70866000D03*
X164338000Y-70866000D03*
X166878000Y-70866000D03*
X171958000Y-70866000D03*
X174498000Y-70866000D03*
X177038000Y-70866000D03*
X179578000Y-70866000D03*
X182118000Y-70866000D03*
X184658000Y-70866000D03*
X187198000Y-70866000D03*
X189738000Y-70866000D03*
D13*
X117348000Y-119126000D03*
X169418000Y-114046000D03*
X199898000Y-119126000D03*
X118618000Y-70866000D03*
X169418000Y-86106000D03*
X193548000Y-70866000D03*
D19*
X117380000Y-111760000D03*
D20*
X119380000Y-111760000D03*
D21*
X137160000Y-86360000D03*
D22*
X138430000Y-86360000D03*
X139700000Y-86360000D03*
D23*
X190500000Y-93980000D03*
D24*
X190500000Y-96520000D03*
X190500000Y-99060000D03*
D19*
X121920000Y-106680000D03*
D20*
X123920000Y-106680000D03*
D23*
X190500000Y-81280000D03*
D24*
X190500000Y-78740000D03*
D23*
X190500000Y-111760000D03*
D24*
X190500000Y-114300000D03*
D23*
X190500000Y-104140000D03*
D24*
X190500000Y-106680000D03*
D23*
X152400000Y-78740000D03*
D24*
X149860000Y-78740000D03*
X147320000Y-78740000D03*
X144780000Y-78740000D03*
X142240000Y-78740000D03*
X139700000Y-78740000D03*
X137160000Y-78740000D03*
X134620000Y-78740000D03*
X132080000Y-78740000D03*
X129540000Y-78740000D03*
D25*
X185420000Y-88900000D03*
D26*
X190500000Y-88900000D03*
D19*
X127540000Y-111760000D03*
D20*
X129540000Y-111760000D03*
D23*
X176505000Y-78765000D03*
D24*
X173965000Y-78765000D03*
X171425000Y-78765000D03*
X168885000Y-78765000D03*
X166345000Y-78765000D03*
X163805000Y-78765000D03*
D23*
X180340000Y-109220000D03*
D24*
X177800000Y-109220000D03*
X175260000Y-109220000D03*
X172720000Y-109220000D03*
X170180000Y-109220000D03*
X167640000Y-109220000D03*
X165100000Y-109220000D03*
X162560000Y-109220000D03*
X160020000Y-109220000D03*
X157480000Y-109220000D03*
X130785000Y-99085000D03*
X133325000Y-99085000D03*
X135865000Y-99085000D03*
X138405000Y-99085000D03*
X140945000Y-99085000D03*
D23*
X143485000Y-99085000D03*
X106680000Y-73660000D03*
D24*
X109220000Y-73660000D03*
X111760000Y-73660000D03*
X114300000Y-73660000D03*
D21*
X154940000Y-86360000D03*
D22*
X156210000Y-86360000D03*
X157480000Y-86360000D03*
D21*
X154940000Y-99060000D03*
D22*
X156210000Y-99060000D03*
X157480000Y-99060000D03*
M02*
