%TF.GenerationSoftware,KiCad,Pcbnew,(6.0.4-0)*%
%TF.CreationDate,2022-06-10T18:36:53-07:00*%
%TF.ProjectId,sailface-mega-shield,7361696c-6661-4636-952d-6d6567612d73,rev?*%
%TF.SameCoordinates,Original*%
%TF.FileFunction,Soldermask,Bot*%
%TF.FilePolarity,Negative*%
%FSLAX46Y46*%
G04 Gerber Fmt 4.6, Leading zero omitted, Abs format (unit mm)*
G04 Created by KiCad (PCBNEW (6.0.4-0)) date 2022-06-10 18:36:53*
%MOMM*%
%LPD*%
G01*
G04 APERTURE LIST*
%ADD10O,1.700000X1.700000*%
%ADD11R,1.700000X1.700000*%
%ADD12R,2.800000X2.800000*%
%ADD13O,2.800000X2.800000*%
%ADD14C,1.400000*%
%ADD15O,1.400000X1.400000*%
%ADD16R,1.600000X1.600000*%
%ADD17C,1.600000*%
%ADD18O,1.050000X1.500000*%
%ADD19R,1.050000X1.500000*%
%ADD20C,1.727200*%
%ADD21O,1.727200X1.727200*%
%ADD22O,1.727200X2.032000*%
%ADD23C,4.064000*%
G04 APERTURE END LIST*
D10*
%TO.C,BAT_CURRENT_SENSOR*%
X139700000Y-101600000D03*
X142240000Y-101600000D03*
X144780000Y-101600000D03*
X147320000Y-101600000D03*
X149860000Y-101600000D03*
D11*
X152400000Y-101600000D03*
%TD*%
D12*
%TO.C,D1*%
X185420000Y-88900000D03*
D13*
X190500000Y-88900000D03*
%TD*%
D14*
%TO.C,R5*%
X139700000Y-111760000D03*
D15*
X139700000Y-109220000D03*
%TD*%
D14*
%TO.C,R4*%
X144780000Y-109220000D03*
D15*
X144780000Y-111760000D03*
%TD*%
D14*
%TO.C,R3*%
X147320000Y-86360000D03*
D15*
X147320000Y-88900000D03*
%TD*%
D14*
%TO.C,R2*%
X162560000Y-83820000D03*
D15*
X162560000Y-86360000D03*
%TD*%
D14*
%TO.C,R1*%
X121920000Y-86360000D03*
D15*
X121920000Y-83820000D03*
%TD*%
D11*
%TO.C,BATTERY*%
X190500000Y-81280000D03*
D10*
X190500000Y-78740000D03*
%TD*%
D11*
%TO.C,ARDUINO_POWER1*%
X109220000Y-111760000D03*
D10*
X109220000Y-114300000D03*
%TD*%
D11*
%TO.C,MOTOR_PWM*%
X190500000Y-111760000D03*
%TD*%
D10*
%TO.C,MOTOR_POWER*%
X190500000Y-106680000D03*
D11*
X190500000Y-104140000D03*
%TD*%
D16*
%TO.C,C3*%
X121920000Y-106680000D03*
D17*
X123920000Y-106680000D03*
%TD*%
D16*
%TO.C,C2*%
X127540000Y-111760000D03*
D17*
X129540000Y-111760000D03*
%TD*%
D16*
%TO.C,C1*%
X117380000Y-111760000D03*
D17*
X119380000Y-111760000D03*
%TD*%
D18*
%TO.C,MPU_TOGGLE1*%
X139700000Y-86360000D03*
X138430000Y-86360000D03*
D19*
X137160000Y-86360000D03*
%TD*%
D18*
%TO.C,GPS_TOGGLE1*%
X132080000Y-86360000D03*
X130810000Y-86360000D03*
D19*
X129540000Y-86360000D03*
%TD*%
D18*
%TO.C,BLUETOOTH_TOGGLE1*%
X157480000Y-86360000D03*
X156210000Y-86360000D03*
D19*
X154940000Y-86360000D03*
%TD*%
D20*
%TO.C,P1*%
X197358000Y-114046000D03*
D21*
X199898000Y-114046000D03*
X197358000Y-111506000D03*
X199898000Y-111506000D03*
X197358000Y-108966000D03*
X199898000Y-108966000D03*
X197358000Y-106426000D03*
X199898000Y-106426000D03*
X197358000Y-103886000D03*
X199898000Y-103886000D03*
X197358000Y-101346000D03*
X199898000Y-101346000D03*
X197358000Y-98806000D03*
X199898000Y-98806000D03*
X197358000Y-96266000D03*
X199898000Y-96266000D03*
X197358000Y-93726000D03*
X199898000Y-93726000D03*
X197358000Y-91186000D03*
X199898000Y-91186000D03*
X197358000Y-88646000D03*
X199898000Y-88646000D03*
X197358000Y-86106000D03*
X199898000Y-86106000D03*
X197358000Y-83566000D03*
X199898000Y-83566000D03*
X197358000Y-81026000D03*
X199898000Y-81026000D03*
X197358000Y-78486000D03*
X199898000Y-78486000D03*
X197358000Y-75946000D03*
X199898000Y-75946000D03*
X197358000Y-73406000D03*
X199898000Y-73406000D03*
X197358000Y-70866000D03*
X199898000Y-70866000D03*
%TD*%
D22*
%TO.C,P2*%
X131318000Y-119126000D03*
X133858000Y-119126000D03*
X136398000Y-119126000D03*
X138938000Y-119126000D03*
X141478000Y-119126000D03*
X144018000Y-119126000D03*
X146558000Y-119126000D03*
X149098000Y-119126000D03*
%TD*%
%TO.C,P3*%
X154178000Y-119126000D03*
X156718000Y-119126000D03*
X159258000Y-119126000D03*
X161798000Y-119126000D03*
X164338000Y-119126000D03*
X166878000Y-119126000D03*
X169418000Y-119126000D03*
X171958000Y-119126000D03*
%TD*%
%TO.C,P4*%
X177038000Y-119126000D03*
X179578000Y-119126000D03*
X182118000Y-119126000D03*
X184658000Y-119126000D03*
X187198000Y-119126000D03*
X189738000Y-119126000D03*
X192278000Y-119126000D03*
X194818000Y-119126000D03*
%TD*%
%TO.C,P5*%
X122174000Y-70866000D03*
X124714000Y-70866000D03*
X127254000Y-70866000D03*
X129794000Y-70866000D03*
X132334000Y-70866000D03*
X134874000Y-70866000D03*
X137414000Y-70866000D03*
X139954000Y-70866000D03*
X142494000Y-70866000D03*
X145034000Y-70866000D03*
%TD*%
%TO.C,P6*%
X149098000Y-70866000D03*
X151638000Y-70866000D03*
X154178000Y-70866000D03*
X156718000Y-70866000D03*
X159258000Y-70866000D03*
X161798000Y-70866000D03*
X164338000Y-70866000D03*
X166878000Y-70866000D03*
%TD*%
%TO.C,P7*%
X171958000Y-70866000D03*
X174498000Y-70866000D03*
X177038000Y-70866000D03*
X179578000Y-70866000D03*
X182118000Y-70866000D03*
X184658000Y-70866000D03*
X187198000Y-70866000D03*
X189738000Y-70866000D03*
%TD*%
D23*
%TO.C,P8*%
X117348000Y-119126000D03*
%TD*%
%TO.C,P9*%
X169418000Y-114046000D03*
%TD*%
%TO.C,P10*%
X199898000Y-119126000D03*
%TD*%
%TO.C,P11*%
X118618000Y-70866000D03*
%TD*%
%TO.C,P12*%
X169418000Y-86106000D03*
%TD*%
%TO.C,P13*%
X193548000Y-70866000D03*
%TD*%
D11*
%TO.C,MPU*%
X152400000Y-78740000D03*
D10*
X149860000Y-78740000D03*
X147320000Y-78740000D03*
X144780000Y-78740000D03*
X142240000Y-78740000D03*
X139700000Y-78740000D03*
X137160000Y-78740000D03*
X134620000Y-78740000D03*
X132080000Y-78740000D03*
X129540000Y-78740000D03*
%TD*%
D11*
%TO.C,BLUETOOTH*%
X176505000Y-78765000D03*
D10*
X173965000Y-78765000D03*
X171425000Y-78765000D03*
X168885000Y-78765000D03*
X166345000Y-78765000D03*
X163805000Y-78765000D03*
%TD*%
D11*
%TO.C,IRIDIUM*%
X180340000Y-109220000D03*
D10*
X177800000Y-109220000D03*
X175260000Y-109220000D03*
X172720000Y-109220000D03*
X170180000Y-109220000D03*
X167640000Y-109220000D03*
X165100000Y-109220000D03*
X162560000Y-109220000D03*
X160020000Y-109220000D03*
X157480000Y-109220000D03*
%TD*%
%TO.C,GPS*%
X116840000Y-78765000D03*
X114300000Y-78765000D03*
X111760000Y-78765000D03*
D11*
X109220000Y-78765000D03*
%TD*%
M02*
