%TF.GenerationSoftware,KiCad,Pcbnew,(6.0.4-0)*%
%TF.CreationDate,2022-06-10T18:36:53-07:00*%
%TF.ProjectId,sailface-mega-shield,7361696c-6661-4636-952d-6d6567612d73,rev?*%
%TF.SameCoordinates,Original*%
%TF.FileFunction,Legend,Top*%
%TF.FilePolarity,Positive*%
%FSLAX46Y46*%
G04 Gerber Fmt 4.6, Leading zero omitted, Abs format (unit mm)*
G04 Created by KiCad (PCBNEW (6.0.4-0)) date 2022-06-10 18:36:53*
%MOMM*%
%LPD*%
G01*
G04 APERTURE LIST*
%ADD10C,0.150000*%
%ADD11C,0.120000*%
%ADD12C,1.727200*%
%ADD13O,1.727200X1.727200*%
%ADD14O,1.727200X2.032000*%
%ADD15C,4.064000*%
G04 APERTURE END LIST*
D10*
X131770380Y-116300285D02*
X131770380Y-116871714D01*
X131770380Y-116586000D02*
X130770380Y-116586000D01*
X130913238Y-116681238D01*
X131008476Y-116776476D01*
X131056095Y-116871714D01*
%TO.C,BAT_CURRENT_SENSOR*%
X139486666Y-98988571D02*
X139629523Y-99036190D01*
X139677142Y-99083809D01*
X139724761Y-99179047D01*
X139724761Y-99321904D01*
X139677142Y-99417142D01*
X139629523Y-99464761D01*
X139534285Y-99512380D01*
X139153333Y-99512380D01*
X139153333Y-98512380D01*
X139486666Y-98512380D01*
X139581904Y-98560000D01*
X139629523Y-98607619D01*
X139677142Y-98702857D01*
X139677142Y-98798095D01*
X139629523Y-98893333D01*
X139581904Y-98940952D01*
X139486666Y-98988571D01*
X139153333Y-98988571D01*
X140105714Y-99226666D02*
X140581904Y-99226666D01*
X140010476Y-99512380D02*
X140343809Y-98512380D01*
X140677142Y-99512380D01*
X140867619Y-98512380D02*
X141439047Y-98512380D01*
X141153333Y-99512380D02*
X141153333Y-98512380D01*
X141534285Y-99607619D02*
X142296190Y-99607619D01*
X143105714Y-99417142D02*
X143058095Y-99464761D01*
X142915238Y-99512380D01*
X142820000Y-99512380D01*
X142677142Y-99464761D01*
X142581904Y-99369523D01*
X142534285Y-99274285D01*
X142486666Y-99083809D01*
X142486666Y-98940952D01*
X142534285Y-98750476D01*
X142581904Y-98655238D01*
X142677142Y-98560000D01*
X142820000Y-98512380D01*
X142915238Y-98512380D01*
X143058095Y-98560000D01*
X143105714Y-98607619D01*
X143534285Y-98512380D02*
X143534285Y-99321904D01*
X143581904Y-99417142D01*
X143629523Y-99464761D01*
X143724761Y-99512380D01*
X143915238Y-99512380D01*
X144010476Y-99464761D01*
X144058095Y-99417142D01*
X144105714Y-99321904D01*
X144105714Y-98512380D01*
X145153333Y-99512380D02*
X144820000Y-99036190D01*
X144581904Y-99512380D02*
X144581904Y-98512380D01*
X144962857Y-98512380D01*
X145058095Y-98560000D01*
X145105714Y-98607619D01*
X145153333Y-98702857D01*
X145153333Y-98845714D01*
X145105714Y-98940952D01*
X145058095Y-98988571D01*
X144962857Y-99036190D01*
X144581904Y-99036190D01*
X146153333Y-99512380D02*
X145820000Y-99036190D01*
X145581904Y-99512380D02*
X145581904Y-98512380D01*
X145962857Y-98512380D01*
X146058095Y-98560000D01*
X146105714Y-98607619D01*
X146153333Y-98702857D01*
X146153333Y-98845714D01*
X146105714Y-98940952D01*
X146058095Y-98988571D01*
X145962857Y-99036190D01*
X145581904Y-99036190D01*
X146581904Y-98988571D02*
X146915238Y-98988571D01*
X147058095Y-99512380D02*
X146581904Y-99512380D01*
X146581904Y-98512380D01*
X147058095Y-98512380D01*
X147486666Y-99512380D02*
X147486666Y-98512380D01*
X148058095Y-99512380D01*
X148058095Y-98512380D01*
X148391428Y-98512380D02*
X148962857Y-98512380D01*
X148677142Y-99512380D02*
X148677142Y-98512380D01*
X149058095Y-99607619D02*
X149820000Y-99607619D01*
X150010476Y-99464761D02*
X150153333Y-99512380D01*
X150391428Y-99512380D01*
X150486666Y-99464761D01*
X150534285Y-99417142D01*
X150581904Y-99321904D01*
X150581904Y-99226666D01*
X150534285Y-99131428D01*
X150486666Y-99083809D01*
X150391428Y-99036190D01*
X150200952Y-98988571D01*
X150105714Y-98940952D01*
X150058095Y-98893333D01*
X150010476Y-98798095D01*
X150010476Y-98702857D01*
X150058095Y-98607619D01*
X150105714Y-98560000D01*
X150200952Y-98512380D01*
X150439047Y-98512380D01*
X150581904Y-98560000D01*
X151010476Y-98988571D02*
X151343809Y-98988571D01*
X151486666Y-99512380D02*
X151010476Y-99512380D01*
X151010476Y-98512380D01*
X151486666Y-98512380D01*
X151915238Y-99512380D02*
X151915238Y-98512380D01*
X152486666Y-99512380D01*
X152486666Y-98512380D01*
X152915238Y-99464761D02*
X153058095Y-99512380D01*
X153296190Y-99512380D01*
X153391428Y-99464761D01*
X153439047Y-99417142D01*
X153486666Y-99321904D01*
X153486666Y-99226666D01*
X153439047Y-99131428D01*
X153391428Y-99083809D01*
X153296190Y-99036190D01*
X153105714Y-98988571D01*
X153010476Y-98940952D01*
X152962857Y-98893333D01*
X152915238Y-98798095D01*
X152915238Y-98702857D01*
X152962857Y-98607619D01*
X153010476Y-98560000D01*
X153105714Y-98512380D01*
X153343809Y-98512380D01*
X153486666Y-98560000D01*
X154105714Y-98512380D02*
X154296190Y-98512380D01*
X154391428Y-98560000D01*
X154486666Y-98655238D01*
X154534285Y-98845714D01*
X154534285Y-99179047D01*
X154486666Y-99369523D01*
X154391428Y-99464761D01*
X154296190Y-99512380D01*
X154105714Y-99512380D01*
X154010476Y-99464761D01*
X153915238Y-99369523D01*
X153867619Y-99179047D01*
X153867619Y-98845714D01*
X153915238Y-98655238D01*
X154010476Y-98560000D01*
X154105714Y-98512380D01*
X155534285Y-99512380D02*
X155200952Y-99036190D01*
X154962857Y-99512380D02*
X154962857Y-98512380D01*
X155343809Y-98512380D01*
X155439047Y-98560000D01*
X155486666Y-98607619D01*
X155534285Y-98702857D01*
X155534285Y-98845714D01*
X155486666Y-98940952D01*
X155439047Y-98988571D01*
X155343809Y-99036190D01*
X154962857Y-99036190D01*
%TO.C,D1*%
X187221904Y-86177481D02*
X187221904Y-85177481D01*
X187460000Y-85177481D01*
X187602857Y-85225101D01*
X187698095Y-85320339D01*
X187745714Y-85415577D01*
X187793333Y-85606053D01*
X187793333Y-85748910D01*
X187745714Y-85939386D01*
X187698095Y-86034624D01*
X187602857Y-86129862D01*
X187460000Y-86177481D01*
X187221904Y-86177481D01*
X188745714Y-86177481D02*
X188174285Y-86177481D01*
X188460000Y-86177481D02*
X188460000Y-85177481D01*
X188364761Y-85320339D01*
X188269523Y-85415577D01*
X188174285Y-85463196D01*
X188161904Y-90466666D02*
X188638095Y-90466666D01*
X188066666Y-90752380D02*
X188400000Y-89752380D01*
X188733333Y-90752380D01*
%TO.C,R5*%
X138232380Y-110656666D02*
X137756190Y-110990000D01*
X138232380Y-111228095D02*
X137232380Y-111228095D01*
X137232380Y-110847142D01*
X137280000Y-110751904D01*
X137327619Y-110704285D01*
X137422857Y-110656666D01*
X137565714Y-110656666D01*
X137660952Y-110704285D01*
X137708571Y-110751904D01*
X137756190Y-110847142D01*
X137756190Y-111228095D01*
X137232380Y-109751904D02*
X137232380Y-110228095D01*
X137708571Y-110275714D01*
X137660952Y-110228095D01*
X137613333Y-110132857D01*
X137613333Y-109894761D01*
X137660952Y-109799523D01*
X137708571Y-109751904D01*
X137803809Y-109704285D01*
X138041904Y-109704285D01*
X138137142Y-109751904D01*
X138184761Y-109799523D01*
X138232380Y-109894761D01*
X138232380Y-110132857D01*
X138184761Y-110228095D01*
X138137142Y-110275714D01*
X142072380Y-113140952D02*
X141596190Y-113474285D01*
X142072380Y-113712380D02*
X141072380Y-113712380D01*
X141072380Y-113331428D01*
X141120000Y-113236190D01*
X141167619Y-113188571D01*
X141262857Y-113140952D01*
X141405714Y-113140952D01*
X141500952Y-113188571D01*
X141548571Y-113236190D01*
X141596190Y-113331428D01*
X141596190Y-113712380D01*
X141405714Y-112283809D02*
X142072380Y-112283809D01*
X141024761Y-112521904D02*
X141739047Y-112760000D01*
X141739047Y-112140952D01*
X141977142Y-111760000D02*
X142024761Y-111712380D01*
X142072380Y-111760000D01*
X142024761Y-111807619D01*
X141977142Y-111760000D01*
X142072380Y-111760000D01*
X141072380Y-111379047D02*
X141072380Y-110712380D01*
X142072380Y-111140952D01*
X142072380Y-110331428D02*
X141072380Y-110331428D01*
X142072380Y-109760000D02*
X141500952Y-110188571D01*
X141072380Y-109760000D02*
X141643809Y-110331428D01*
%TO.C,R4*%
X147152380Y-110656666D02*
X146676190Y-110990000D01*
X147152380Y-111228095D02*
X146152380Y-111228095D01*
X146152380Y-110847142D01*
X146200000Y-110751904D01*
X146247619Y-110704285D01*
X146342857Y-110656666D01*
X146485714Y-110656666D01*
X146580952Y-110704285D01*
X146628571Y-110751904D01*
X146676190Y-110847142D01*
X146676190Y-111228095D01*
X146485714Y-109799523D02*
X147152380Y-109799523D01*
X146104761Y-110037619D02*
X146819047Y-110275714D01*
X146819047Y-109656666D01*
X147772380Y-114966666D02*
X147296190Y-115300000D01*
X147772380Y-115538095D02*
X146772380Y-115538095D01*
X146772380Y-115157142D01*
X146820000Y-115061904D01*
X146867619Y-115014285D01*
X146962857Y-114966666D01*
X147105714Y-114966666D01*
X147200952Y-115014285D01*
X147248571Y-115061904D01*
X147296190Y-115157142D01*
X147296190Y-115538095D01*
X147772380Y-114014285D02*
X147772380Y-114585714D01*
X147772380Y-114300000D02*
X146772380Y-114300000D01*
X146915238Y-114395238D01*
X147010476Y-114490476D01*
X147058095Y-114585714D01*
X147772380Y-113585714D02*
X146772380Y-113585714D01*
X147772380Y-113014285D02*
X147200952Y-113442857D01*
X146772380Y-113014285D02*
X147343809Y-113585714D01*
%TO.C,R3*%
X149692380Y-87796666D02*
X149216190Y-88130000D01*
X149692380Y-88368095D02*
X148692380Y-88368095D01*
X148692380Y-87987142D01*
X148740000Y-87891904D01*
X148787619Y-87844285D01*
X148882857Y-87796666D01*
X149025714Y-87796666D01*
X149120952Y-87844285D01*
X149168571Y-87891904D01*
X149216190Y-87987142D01*
X149216190Y-88368095D01*
X148692380Y-87463333D02*
X148692380Y-86844285D01*
X149073333Y-87177619D01*
X149073333Y-87034761D01*
X149120952Y-86939523D01*
X149168571Y-86891904D01*
X149263809Y-86844285D01*
X149501904Y-86844285D01*
X149597142Y-86891904D01*
X149644761Y-86939523D01*
X149692380Y-87034761D01*
X149692380Y-87320476D01*
X149644761Y-87415714D01*
X149597142Y-87463333D01*
%TO.C,R2*%
X164932380Y-85256666D02*
X164456190Y-85590000D01*
X164932380Y-85828095D02*
X163932380Y-85828095D01*
X163932380Y-85447142D01*
X163980000Y-85351904D01*
X164027619Y-85304285D01*
X164122857Y-85256666D01*
X164265714Y-85256666D01*
X164360952Y-85304285D01*
X164408571Y-85351904D01*
X164456190Y-85447142D01*
X164456190Y-85828095D01*
X164027619Y-84875714D02*
X163980000Y-84828095D01*
X163932380Y-84732857D01*
X163932380Y-84494761D01*
X163980000Y-84399523D01*
X164027619Y-84351904D01*
X164122857Y-84304285D01*
X164218095Y-84304285D01*
X164360952Y-84351904D01*
X164932380Y-84923333D01*
X164932380Y-84304285D01*
%TO.C,R1*%
X120452380Y-85256666D02*
X119976190Y-85590000D01*
X120452380Y-85828095D02*
X119452380Y-85828095D01*
X119452380Y-85447142D01*
X119500000Y-85351904D01*
X119547619Y-85304285D01*
X119642857Y-85256666D01*
X119785714Y-85256666D01*
X119880952Y-85304285D01*
X119928571Y-85351904D01*
X119976190Y-85447142D01*
X119976190Y-85828095D01*
X120452380Y-84304285D02*
X120452380Y-84875714D01*
X120452380Y-84590000D02*
X119452380Y-84590000D01*
X119595238Y-84685238D01*
X119690476Y-84780476D01*
X119738095Y-84875714D01*
%TO.C,BATTERY*%
X192968571Y-83780000D02*
X193016190Y-83637142D01*
X193063809Y-83589523D01*
X193159047Y-83541904D01*
X193301904Y-83541904D01*
X193397142Y-83589523D01*
X193444761Y-83637142D01*
X193492380Y-83732380D01*
X193492380Y-84113333D01*
X192492380Y-84113333D01*
X192492380Y-83780000D01*
X192540000Y-83684761D01*
X192587619Y-83637142D01*
X192682857Y-83589523D01*
X192778095Y-83589523D01*
X192873333Y-83637142D01*
X192920952Y-83684761D01*
X192968571Y-83780000D01*
X192968571Y-84113333D01*
X193206666Y-83160952D02*
X193206666Y-82684761D01*
X193492380Y-83256190D02*
X192492380Y-82922857D01*
X193492380Y-82589523D01*
X192492380Y-82399047D02*
X192492380Y-81827619D01*
X193492380Y-82113333D02*
X192492380Y-82113333D01*
X192492380Y-81637142D02*
X192492380Y-81065714D01*
X193492380Y-81351428D02*
X192492380Y-81351428D01*
X192968571Y-80732380D02*
X192968571Y-80399047D01*
X193492380Y-80256190D02*
X193492380Y-80732380D01*
X192492380Y-80732380D01*
X192492380Y-80256190D01*
X193492380Y-79256190D02*
X193016190Y-79589523D01*
X193492380Y-79827619D02*
X192492380Y-79827619D01*
X192492380Y-79446666D01*
X192540000Y-79351428D01*
X192587619Y-79303809D01*
X192682857Y-79256190D01*
X192825714Y-79256190D01*
X192920952Y-79303809D01*
X192968571Y-79351428D01*
X193016190Y-79446666D01*
X193016190Y-79827619D01*
X193016190Y-78637142D02*
X193492380Y-78637142D01*
X192492380Y-78970476D02*
X193016190Y-78637142D01*
X192492380Y-78303809D01*
%TO.C,MOTOR_PWM*%
X188182380Y-116045714D02*
X187182380Y-116045714D01*
X187896666Y-115712380D01*
X187182380Y-115379047D01*
X188182380Y-115379047D01*
X187182380Y-114712380D02*
X187182380Y-114521904D01*
X187230000Y-114426666D01*
X187325238Y-114331428D01*
X187515714Y-114283809D01*
X187849047Y-114283809D01*
X188039523Y-114331428D01*
X188134761Y-114426666D01*
X188182380Y-114521904D01*
X188182380Y-114712380D01*
X188134761Y-114807619D01*
X188039523Y-114902857D01*
X187849047Y-114950476D01*
X187515714Y-114950476D01*
X187325238Y-114902857D01*
X187230000Y-114807619D01*
X187182380Y-114712380D01*
X187182380Y-113998095D02*
X187182380Y-113426666D01*
X188182380Y-113712380D02*
X187182380Y-113712380D01*
X187182380Y-112902857D02*
X187182380Y-112712380D01*
X187230000Y-112617142D01*
X187325238Y-112521904D01*
X187515714Y-112474285D01*
X187849047Y-112474285D01*
X188039523Y-112521904D01*
X188134761Y-112617142D01*
X188182380Y-112712380D01*
X188182380Y-112902857D01*
X188134761Y-112998095D01*
X188039523Y-113093333D01*
X187849047Y-113140952D01*
X187515714Y-113140952D01*
X187325238Y-113093333D01*
X187230000Y-112998095D01*
X187182380Y-112902857D01*
X188182380Y-111474285D02*
X187706190Y-111807619D01*
X188182380Y-112045714D02*
X187182380Y-112045714D01*
X187182380Y-111664761D01*
X187230000Y-111569523D01*
X187277619Y-111521904D01*
X187372857Y-111474285D01*
X187515714Y-111474285D01*
X187610952Y-111521904D01*
X187658571Y-111569523D01*
X187706190Y-111664761D01*
X187706190Y-112045714D01*
X188277619Y-111283809D02*
X188277619Y-110521904D01*
X188182380Y-110283809D02*
X187182380Y-110283809D01*
X187182380Y-109902857D01*
X187230000Y-109807619D01*
X187277619Y-109760000D01*
X187372857Y-109712380D01*
X187515714Y-109712380D01*
X187610952Y-109760000D01*
X187658571Y-109807619D01*
X187706190Y-109902857D01*
X187706190Y-110283809D01*
X187182380Y-109379047D02*
X188182380Y-109140952D01*
X187468095Y-108950476D01*
X188182380Y-108760000D01*
X187182380Y-108521904D01*
X188182380Y-108140952D02*
X187182380Y-108140952D01*
X187896666Y-107807619D01*
X187182380Y-107474285D01*
X188182380Y-107474285D01*
%TO.C,MOTOR_POWER*%
X193492380Y-109330476D02*
X192492380Y-109330476D01*
X193206666Y-108997142D01*
X192492380Y-108663809D01*
X193492380Y-108663809D01*
X192492380Y-107997142D02*
X192492380Y-107806666D01*
X192540000Y-107711428D01*
X192635238Y-107616190D01*
X192825714Y-107568571D01*
X193159047Y-107568571D01*
X193349523Y-107616190D01*
X193444761Y-107711428D01*
X193492380Y-107806666D01*
X193492380Y-107997142D01*
X193444761Y-108092380D01*
X193349523Y-108187619D01*
X193159047Y-108235238D01*
X192825714Y-108235238D01*
X192635238Y-108187619D01*
X192540000Y-108092380D01*
X192492380Y-107997142D01*
X192492380Y-107282857D02*
X192492380Y-106711428D01*
X193492380Y-106997142D02*
X192492380Y-106997142D01*
X192492380Y-106187619D02*
X192492380Y-105997142D01*
X192540000Y-105901904D01*
X192635238Y-105806666D01*
X192825714Y-105759047D01*
X193159047Y-105759047D01*
X193349523Y-105806666D01*
X193444761Y-105901904D01*
X193492380Y-105997142D01*
X193492380Y-106187619D01*
X193444761Y-106282857D01*
X193349523Y-106378095D01*
X193159047Y-106425714D01*
X192825714Y-106425714D01*
X192635238Y-106378095D01*
X192540000Y-106282857D01*
X192492380Y-106187619D01*
X193492380Y-104759047D02*
X193016190Y-105092380D01*
X193492380Y-105330476D02*
X192492380Y-105330476D01*
X192492380Y-104949523D01*
X192540000Y-104854285D01*
X192587619Y-104806666D01*
X192682857Y-104759047D01*
X192825714Y-104759047D01*
X192920952Y-104806666D01*
X192968571Y-104854285D01*
X193016190Y-104949523D01*
X193016190Y-105330476D01*
X193587619Y-104568571D02*
X193587619Y-103806666D01*
X193492380Y-103568571D02*
X192492380Y-103568571D01*
X192492380Y-103187619D01*
X192540000Y-103092380D01*
X192587619Y-103044761D01*
X192682857Y-102997142D01*
X192825714Y-102997142D01*
X192920952Y-103044761D01*
X192968571Y-103092380D01*
X193016190Y-103187619D01*
X193016190Y-103568571D01*
X192492380Y-102378095D02*
X192492380Y-102187619D01*
X192540000Y-102092380D01*
X192635238Y-101997142D01*
X192825714Y-101949523D01*
X193159047Y-101949523D01*
X193349523Y-101997142D01*
X193444761Y-102092380D01*
X193492380Y-102187619D01*
X193492380Y-102378095D01*
X193444761Y-102473333D01*
X193349523Y-102568571D01*
X193159047Y-102616190D01*
X192825714Y-102616190D01*
X192635238Y-102568571D01*
X192540000Y-102473333D01*
X192492380Y-102378095D01*
X192492380Y-101616190D02*
X193492380Y-101378095D01*
X192778095Y-101187619D01*
X193492380Y-100997142D01*
X192492380Y-100759047D01*
X192968571Y-100378095D02*
X192968571Y-100044761D01*
X193492380Y-99901904D02*
X193492380Y-100378095D01*
X192492380Y-100378095D01*
X192492380Y-99901904D01*
X193492380Y-98901904D02*
X193016190Y-99235238D01*
X193492380Y-99473333D02*
X192492380Y-99473333D01*
X192492380Y-99092380D01*
X192540000Y-98997142D01*
X192587619Y-98949523D01*
X192682857Y-98901904D01*
X192825714Y-98901904D01*
X192920952Y-98949523D01*
X192968571Y-98997142D01*
X193016190Y-99092380D01*
X193016190Y-99473333D01*
%TO.C,C3*%
X122753333Y-103287142D02*
X122705714Y-103334761D01*
X122562857Y-103382380D01*
X122467619Y-103382380D01*
X122324761Y-103334761D01*
X122229523Y-103239523D01*
X122181904Y-103144285D01*
X122134285Y-102953809D01*
X122134285Y-102810952D01*
X122181904Y-102620476D01*
X122229523Y-102525238D01*
X122324761Y-102430000D01*
X122467619Y-102382380D01*
X122562857Y-102382380D01*
X122705714Y-102430000D01*
X122753333Y-102477619D01*
X123086666Y-102382380D02*
X123705714Y-102382380D01*
X123372380Y-102763333D01*
X123515238Y-102763333D01*
X123610476Y-102810952D01*
X123658095Y-102858571D01*
X123705714Y-102953809D01*
X123705714Y-103191904D01*
X123658095Y-103287142D01*
X123610476Y-103334761D01*
X123515238Y-103382380D01*
X123229523Y-103382380D01*
X123134285Y-103334761D01*
X123086666Y-103287142D01*
%TO.C,C2*%
X128373333Y-108367142D02*
X128325714Y-108414761D01*
X128182857Y-108462380D01*
X128087619Y-108462380D01*
X127944761Y-108414761D01*
X127849523Y-108319523D01*
X127801904Y-108224285D01*
X127754285Y-108033809D01*
X127754285Y-107890952D01*
X127801904Y-107700476D01*
X127849523Y-107605238D01*
X127944761Y-107510000D01*
X128087619Y-107462380D01*
X128182857Y-107462380D01*
X128325714Y-107510000D01*
X128373333Y-107557619D01*
X128754285Y-107557619D02*
X128801904Y-107510000D01*
X128897142Y-107462380D01*
X129135238Y-107462380D01*
X129230476Y-107510000D01*
X129278095Y-107557619D01*
X129325714Y-107652857D01*
X129325714Y-107748095D01*
X129278095Y-107890952D01*
X128706666Y-108462380D01*
X129325714Y-108462380D01*
%TO.C,C1*%
X118213333Y-108367142D02*
X118165714Y-108414761D01*
X118022857Y-108462380D01*
X117927619Y-108462380D01*
X117784761Y-108414761D01*
X117689523Y-108319523D01*
X117641904Y-108224285D01*
X117594285Y-108033809D01*
X117594285Y-107890952D01*
X117641904Y-107700476D01*
X117689523Y-107605238D01*
X117784761Y-107510000D01*
X117927619Y-107462380D01*
X118022857Y-107462380D01*
X118165714Y-107510000D01*
X118213333Y-107557619D01*
X119165714Y-108462380D02*
X118594285Y-108462380D01*
X118880000Y-108462380D02*
X118880000Y-107462380D01*
X118784761Y-107605238D01*
X118689523Y-107700476D01*
X118594285Y-107748095D01*
%TO.C,P1*%
X195016380Y-93194095D02*
X194016380Y-93194095D01*
X194016380Y-92813142D01*
X194064000Y-92717904D01*
X194111619Y-92670285D01*
X194206857Y-92622666D01*
X194349714Y-92622666D01*
X194444952Y-92670285D01*
X194492571Y-92717904D01*
X194540190Y-92813142D01*
X194540190Y-93194095D01*
X195016380Y-91670285D02*
X195016380Y-92241714D01*
X195016380Y-91956000D02*
X194016380Y-91956000D01*
X194159238Y-92051238D01*
X194254476Y-92146476D01*
X194302095Y-92241714D01*
%TO.C,P2*%
X139469904Y-116784380D02*
X139469904Y-115784380D01*
X139850857Y-115784380D01*
X139946095Y-115832000D01*
X139993714Y-115879619D01*
X140041333Y-115974857D01*
X140041333Y-116117714D01*
X139993714Y-116212952D01*
X139946095Y-116260571D01*
X139850857Y-116308190D01*
X139469904Y-116308190D01*
X140422285Y-115879619D02*
X140469904Y-115832000D01*
X140565142Y-115784380D01*
X140803238Y-115784380D01*
X140898476Y-115832000D01*
X140946095Y-115879619D01*
X140993714Y-115974857D01*
X140993714Y-116070095D01*
X140946095Y-116212952D01*
X140374666Y-116784380D01*
X140993714Y-116784380D01*
%TO.C,P3*%
X162329904Y-117038380D02*
X162329904Y-116038380D01*
X162710857Y-116038380D01*
X162806095Y-116086000D01*
X162853714Y-116133619D01*
X162901333Y-116228857D01*
X162901333Y-116371714D01*
X162853714Y-116466952D01*
X162806095Y-116514571D01*
X162710857Y-116562190D01*
X162329904Y-116562190D01*
X163234666Y-116038380D02*
X163853714Y-116038380D01*
X163520380Y-116419333D01*
X163663238Y-116419333D01*
X163758476Y-116466952D01*
X163806095Y-116514571D01*
X163853714Y-116609809D01*
X163853714Y-116847904D01*
X163806095Y-116943142D01*
X163758476Y-116990761D01*
X163663238Y-117038380D01*
X163377523Y-117038380D01*
X163282285Y-116990761D01*
X163234666Y-116943142D01*
%TO.C,P4*%
X185189904Y-116784380D02*
X185189904Y-115784380D01*
X185570857Y-115784380D01*
X185666095Y-115832000D01*
X185713714Y-115879619D01*
X185761333Y-115974857D01*
X185761333Y-116117714D01*
X185713714Y-116212952D01*
X185666095Y-116260571D01*
X185570857Y-116308190D01*
X185189904Y-116308190D01*
X186618476Y-116117714D02*
X186618476Y-116784380D01*
X186380380Y-115736761D02*
X186142285Y-116451047D01*
X186761333Y-116451047D01*
%TO.C,P5*%
X132865904Y-74112380D02*
X132865904Y-73112380D01*
X133246857Y-73112380D01*
X133342095Y-73160000D01*
X133389714Y-73207619D01*
X133437333Y-73302857D01*
X133437333Y-73445714D01*
X133389714Y-73540952D01*
X133342095Y-73588571D01*
X133246857Y-73636190D01*
X132865904Y-73636190D01*
X134342095Y-73112380D02*
X133865904Y-73112380D01*
X133818285Y-73588571D01*
X133865904Y-73540952D01*
X133961142Y-73493333D01*
X134199238Y-73493333D01*
X134294476Y-73540952D01*
X134342095Y-73588571D01*
X134389714Y-73683809D01*
X134389714Y-73921904D01*
X134342095Y-74017142D01*
X134294476Y-74064761D01*
X134199238Y-74112380D01*
X133961142Y-74112380D01*
X133865904Y-74064761D01*
X133818285Y-74017142D01*
%TO.C,P6*%
X157249904Y-74112380D02*
X157249904Y-73112380D01*
X157630857Y-73112380D01*
X157726095Y-73160000D01*
X157773714Y-73207619D01*
X157821333Y-73302857D01*
X157821333Y-73445714D01*
X157773714Y-73540952D01*
X157726095Y-73588571D01*
X157630857Y-73636190D01*
X157249904Y-73636190D01*
X158678476Y-73112380D02*
X158488000Y-73112380D01*
X158392761Y-73160000D01*
X158345142Y-73207619D01*
X158249904Y-73350476D01*
X158202285Y-73540952D01*
X158202285Y-73921904D01*
X158249904Y-74017142D01*
X158297523Y-74064761D01*
X158392761Y-74112380D01*
X158583238Y-74112380D01*
X158678476Y-74064761D01*
X158726095Y-74017142D01*
X158773714Y-73921904D01*
X158773714Y-73683809D01*
X158726095Y-73588571D01*
X158678476Y-73540952D01*
X158583238Y-73493333D01*
X158392761Y-73493333D01*
X158297523Y-73540952D01*
X158249904Y-73588571D01*
X158202285Y-73683809D01*
%TO.C,P7*%
X180109904Y-74112380D02*
X180109904Y-73112380D01*
X180490857Y-73112380D01*
X180586095Y-73160000D01*
X180633714Y-73207619D01*
X180681333Y-73302857D01*
X180681333Y-73445714D01*
X180633714Y-73540952D01*
X180586095Y-73588571D01*
X180490857Y-73636190D01*
X180109904Y-73636190D01*
X181014666Y-73112380D02*
X181681333Y-73112380D01*
X181252761Y-74112380D01*
%TO.C,MPU*%
X155622380Y-80097142D02*
X154622380Y-80097142D01*
X155336666Y-79763809D01*
X154622380Y-79430476D01*
X155622380Y-79430476D01*
X155622380Y-78954285D02*
X154622380Y-78954285D01*
X154622380Y-78573333D01*
X154670000Y-78478095D01*
X154717619Y-78430476D01*
X154812857Y-78382857D01*
X154955714Y-78382857D01*
X155050952Y-78430476D01*
X155098571Y-78478095D01*
X155146190Y-78573333D01*
X155146190Y-78954285D01*
X154622380Y-77954285D02*
X155431904Y-77954285D01*
X155527142Y-77906666D01*
X155574761Y-77859047D01*
X155622380Y-77763809D01*
X155622380Y-77573333D01*
X155574761Y-77478095D01*
X155527142Y-77430476D01*
X155431904Y-77382857D01*
X154622380Y-77382857D01*
%TO.C,BLUETOOTH*%
X166537142Y-76128571D02*
X166680000Y-76176190D01*
X166727619Y-76223809D01*
X166775238Y-76319047D01*
X166775238Y-76461904D01*
X166727619Y-76557142D01*
X166680000Y-76604761D01*
X166584761Y-76652380D01*
X166203809Y-76652380D01*
X166203809Y-75652380D01*
X166537142Y-75652380D01*
X166632380Y-75700000D01*
X166680000Y-75747619D01*
X166727619Y-75842857D01*
X166727619Y-75938095D01*
X166680000Y-76033333D01*
X166632380Y-76080952D01*
X166537142Y-76128571D01*
X166203809Y-76128571D01*
X167680000Y-76652380D02*
X167203809Y-76652380D01*
X167203809Y-75652380D01*
X168013333Y-75652380D02*
X168013333Y-76461904D01*
X168060952Y-76557142D01*
X168108571Y-76604761D01*
X168203809Y-76652380D01*
X168394285Y-76652380D01*
X168489523Y-76604761D01*
X168537142Y-76557142D01*
X168584761Y-76461904D01*
X168584761Y-75652380D01*
X169060952Y-76128571D02*
X169394285Y-76128571D01*
X169537142Y-76652380D02*
X169060952Y-76652380D01*
X169060952Y-75652380D01*
X169537142Y-75652380D01*
X169822857Y-75652380D02*
X170394285Y-75652380D01*
X170108571Y-76652380D02*
X170108571Y-75652380D01*
X170918095Y-75652380D02*
X171108571Y-75652380D01*
X171203809Y-75700000D01*
X171299047Y-75795238D01*
X171346666Y-75985714D01*
X171346666Y-76319047D01*
X171299047Y-76509523D01*
X171203809Y-76604761D01*
X171108571Y-76652380D01*
X170918095Y-76652380D01*
X170822857Y-76604761D01*
X170727619Y-76509523D01*
X170680000Y-76319047D01*
X170680000Y-75985714D01*
X170727619Y-75795238D01*
X170822857Y-75700000D01*
X170918095Y-75652380D01*
X171965714Y-75652380D02*
X172156190Y-75652380D01*
X172251428Y-75700000D01*
X172346666Y-75795238D01*
X172394285Y-75985714D01*
X172394285Y-76319047D01*
X172346666Y-76509523D01*
X172251428Y-76604761D01*
X172156190Y-76652380D01*
X171965714Y-76652380D01*
X171870476Y-76604761D01*
X171775238Y-76509523D01*
X171727619Y-76319047D01*
X171727619Y-75985714D01*
X171775238Y-75795238D01*
X171870476Y-75700000D01*
X171965714Y-75652380D01*
X172680000Y-75652380D02*
X173251428Y-75652380D01*
X172965714Y-76652380D02*
X172965714Y-75652380D01*
X173584761Y-76652380D02*
X173584761Y-75652380D01*
X173584761Y-76128571D02*
X174156190Y-76128571D01*
X174156190Y-76652380D02*
X174156190Y-75652380D01*
%TO.C,IRIDIUM*%
X183562380Y-111791428D02*
X182562380Y-111791428D01*
X183562380Y-110743809D02*
X183086190Y-111077142D01*
X183562380Y-111315238D02*
X182562380Y-111315238D01*
X182562380Y-110934285D01*
X182610000Y-110839047D01*
X182657619Y-110791428D01*
X182752857Y-110743809D01*
X182895714Y-110743809D01*
X182990952Y-110791428D01*
X183038571Y-110839047D01*
X183086190Y-110934285D01*
X183086190Y-111315238D01*
X183562380Y-110315238D02*
X182562380Y-110315238D01*
X183562380Y-109839047D02*
X182562380Y-109839047D01*
X182562380Y-109600952D01*
X182610000Y-109458095D01*
X182705238Y-109362857D01*
X182800476Y-109315238D01*
X182990952Y-109267619D01*
X183133809Y-109267619D01*
X183324285Y-109315238D01*
X183419523Y-109362857D01*
X183514761Y-109458095D01*
X183562380Y-109600952D01*
X183562380Y-109839047D01*
X183562380Y-108839047D02*
X182562380Y-108839047D01*
X182562380Y-108362857D02*
X183371904Y-108362857D01*
X183467142Y-108315238D01*
X183514761Y-108267619D01*
X183562380Y-108172380D01*
X183562380Y-107981904D01*
X183514761Y-107886666D01*
X183467142Y-107839047D01*
X183371904Y-107791428D01*
X182562380Y-107791428D01*
X183562380Y-107315238D02*
X182562380Y-107315238D01*
X183276666Y-106981904D01*
X182562380Y-106648571D01*
X183562380Y-106648571D01*
%TO.C,GPS*%
X111045714Y-75700000D02*
X110950476Y-75652380D01*
X110807619Y-75652380D01*
X110664761Y-75700000D01*
X110569523Y-75795238D01*
X110521904Y-75890476D01*
X110474285Y-76080952D01*
X110474285Y-76223809D01*
X110521904Y-76414285D01*
X110569523Y-76509523D01*
X110664761Y-76604761D01*
X110807619Y-76652380D01*
X110902857Y-76652380D01*
X111045714Y-76604761D01*
X111093333Y-76557142D01*
X111093333Y-76223809D01*
X110902857Y-76223809D01*
X111521904Y-76652380D02*
X111521904Y-75652380D01*
X111902857Y-75652380D01*
X111998095Y-75700000D01*
X112045714Y-75747619D01*
X112093333Y-75842857D01*
X112093333Y-75985714D01*
X112045714Y-76080952D01*
X111998095Y-76128571D01*
X111902857Y-76176190D01*
X111521904Y-76176190D01*
X112474285Y-76604761D02*
X112617142Y-76652380D01*
X112855238Y-76652380D01*
X112950476Y-76604761D01*
X112998095Y-76557142D01*
X113045714Y-76461904D01*
X113045714Y-76366666D01*
X112998095Y-76271428D01*
X112950476Y-76223809D01*
X112855238Y-76176190D01*
X112664761Y-76128571D01*
X112569523Y-76080952D01*
X112521904Y-76033333D01*
X112474285Y-75938095D01*
X112474285Y-75842857D01*
X112521904Y-75747619D01*
X112569523Y-75700000D01*
X112664761Y-75652380D01*
X112902857Y-75652380D01*
X113045714Y-75700000D01*
D11*
%TO.C,BAT_CURRENT_SENSOR*%
X153730000Y-101600000D02*
X153730000Y-102930000D01*
X151130000Y-100270000D02*
X151130000Y-102930000D01*
X151130000Y-102930000D02*
X138370000Y-102930000D01*
X153730000Y-102930000D02*
X152400000Y-102930000D01*
X151130000Y-100270000D02*
X138370000Y-100270000D01*
X138370000Y-100270000D02*
X138370000Y-102930000D01*
%TO.C,D1*%
X187594899Y-88900000D02*
X188800000Y-88900000D01*
X187594899Y-88900000D02*
G75*
G03*
X187594899Y-88900000I-2174899J0D01*
G01*
%TO.C,R5*%
X139700000Y-110840000D02*
X139700000Y-110220000D01*
X140620000Y-111760000D02*
G75*
G03*
X140620000Y-111760000I-920000J0D01*
G01*
%TO.C,R4*%
X144780000Y-110140000D02*
X144780000Y-110760000D01*
X145700000Y-109220000D02*
G75*
G03*
X145700000Y-109220000I-920000J0D01*
G01*
%TO.C,R3*%
X147320000Y-87280000D02*
X147320000Y-87900000D01*
X148240000Y-86360000D02*
G75*
G03*
X148240000Y-86360000I-920000J0D01*
G01*
%TO.C,R2*%
X162560000Y-84740000D02*
X162560000Y-85360000D01*
X163480000Y-83820000D02*
G75*
G03*
X163480000Y-83820000I-920000J0D01*
G01*
%TO.C,R1*%
X121920000Y-85440000D02*
X121920000Y-84820000D01*
X122840000Y-86360000D02*
G75*
G03*
X122840000Y-86360000I-920000J0D01*
G01*
%TO.C,BATTERY*%
X191830000Y-80010000D02*
X191830000Y-77410000D01*
X189170000Y-80010000D02*
X189170000Y-77410000D01*
X191830000Y-80010000D02*
X189170000Y-80010000D01*
X190500000Y-82610000D02*
X189170000Y-82610000D01*
X189170000Y-82610000D02*
X189170000Y-81280000D01*
X191830000Y-77410000D02*
X189170000Y-77410000D01*
%TO.C,ARDUINO_POWER1*%
X107890000Y-113030000D02*
X107890000Y-115630000D01*
X110550000Y-113030000D02*
X110550000Y-115630000D01*
X107890000Y-113030000D02*
X110550000Y-113030000D01*
X109220000Y-110430000D02*
X110550000Y-110430000D01*
X110550000Y-110430000D02*
X110550000Y-111760000D01*
X107890000Y-115630000D02*
X110550000Y-115630000D01*
%TO.C,MOTOR_PWM*%
X191710000Y-113090000D02*
X191830000Y-113090000D01*
X191830000Y-113090000D02*
X191830000Y-110430000D01*
X191710000Y-110430000D02*
X191830000Y-110430000D01*
X189170000Y-110430000D02*
X190500000Y-110430000D01*
X189170000Y-111760000D02*
X189170000Y-110430000D01*
%TO.C,MOTOR_POWER*%
X189170000Y-108010000D02*
X191830000Y-108010000D01*
X191830000Y-102810000D02*
X191830000Y-104140000D01*
X190500000Y-102810000D02*
X191830000Y-102810000D01*
X189170000Y-105410000D02*
X191830000Y-105410000D01*
X191830000Y-105410000D02*
X191830000Y-108010000D01*
X189170000Y-105410000D02*
X189170000Y-108010000D01*
%TO.C,C3*%
X124921000Y-107720000D02*
X124921000Y-108333000D01*
X124241000Y-107720000D02*
X124241000Y-108904000D01*
X123120000Y-107720000D02*
X123120000Y-109253000D01*
X124161000Y-104412000D02*
X124161000Y-105640000D01*
X124041000Y-104351000D02*
X124041000Y-105640000D01*
X124081000Y-104370000D02*
X124081000Y-105640000D01*
X124601000Y-104709000D02*
X124601000Y-105640000D01*
X124881000Y-107720000D02*
X124881000Y-108379000D01*
X124561000Y-107720000D02*
X124561000Y-108684000D01*
X123080000Y-104104000D02*
X123080000Y-105640000D01*
X124481000Y-104615000D02*
X124481000Y-105640000D01*
X122960000Y-107720000D02*
X122960000Y-109260000D01*
X123641000Y-107720000D02*
X123641000Y-109160000D01*
X123801000Y-104252000D02*
X123801000Y-105640000D01*
X123841000Y-104266000D02*
X123841000Y-105640000D01*
X124681000Y-104779000D02*
X124681000Y-105640000D01*
X123520000Y-104169000D02*
X123520000Y-105640000D01*
X123160000Y-107720000D02*
X123160000Y-109249000D01*
X123761000Y-107720000D02*
X123761000Y-109122000D01*
X123480000Y-107720000D02*
X123480000Y-109200000D01*
X124201000Y-107720000D02*
X124201000Y-108927000D01*
X124321000Y-107720000D02*
X124321000Y-108855000D01*
X123040000Y-107720000D02*
X123040000Y-109258000D01*
X123440000Y-104152000D02*
X123440000Y-105640000D01*
X124361000Y-104531000D02*
X124361000Y-105640000D01*
X124761000Y-104854000D02*
X124761000Y-105640000D01*
X124921000Y-105027000D02*
X124921000Y-105640000D01*
X123961000Y-107720000D02*
X123961000Y-109045000D01*
X122920000Y-104100000D02*
X122920000Y-105640000D01*
X123240000Y-104119000D02*
X123240000Y-105640000D01*
X123961000Y-104315000D02*
X123961000Y-105640000D01*
X123400000Y-104144000D02*
X123400000Y-105640000D01*
X125401000Y-105875000D02*
X125401000Y-107485000D01*
X125201000Y-105429000D02*
X125201000Y-107931000D01*
X125041000Y-105180000D02*
X125041000Y-108180000D01*
X123280000Y-107720000D02*
X123280000Y-109236000D01*
X124001000Y-107720000D02*
X124001000Y-109028000D01*
X125441000Y-106003000D02*
X125441000Y-107357000D01*
X124481000Y-107720000D02*
X124481000Y-108745000D01*
X124441000Y-107720000D02*
X124441000Y-108775000D01*
X123681000Y-104212000D02*
X123681000Y-105640000D01*
X123921000Y-107720000D02*
X123921000Y-109062000D01*
X123801000Y-107720000D02*
X123801000Y-109108000D01*
X124001000Y-104332000D02*
X124001000Y-105640000D01*
X124161000Y-107720000D02*
X124161000Y-108948000D01*
X124801000Y-104895000D02*
X124801000Y-105640000D01*
X124441000Y-104585000D02*
X124441000Y-105640000D01*
X123240000Y-107720000D02*
X123240000Y-109241000D01*
X123841000Y-107720000D02*
X123841000Y-109094000D01*
X123881000Y-107720000D02*
X123881000Y-109078000D01*
X123080000Y-107720000D02*
X123080000Y-109256000D01*
X123921000Y-104298000D02*
X123921000Y-105640000D01*
X123600000Y-104189000D02*
X123600000Y-105640000D01*
X125321000Y-105669000D02*
X125321000Y-107691000D01*
X125001000Y-105126000D02*
X125001000Y-108234000D01*
X125361000Y-105765000D02*
X125361000Y-107595000D01*
X120115225Y-105205000D02*
X120615225Y-105205000D01*
X122920000Y-107720000D02*
X122920000Y-109260000D01*
X123721000Y-104225000D02*
X123721000Y-105640000D01*
X124401000Y-104558000D02*
X124401000Y-105640000D01*
X124121000Y-107720000D02*
X124121000Y-108970000D01*
X124281000Y-104480000D02*
X124281000Y-105640000D01*
X124721000Y-104816000D02*
X124721000Y-105640000D01*
X124841000Y-107720000D02*
X124841000Y-108423000D01*
X125281000Y-105582000D02*
X125281000Y-107778000D01*
X123040000Y-104102000D02*
X123040000Y-105640000D01*
X123200000Y-104115000D02*
X123200000Y-105640000D01*
X123000000Y-104101000D02*
X123000000Y-105640000D01*
X123120000Y-104107000D02*
X123120000Y-105640000D01*
X124721000Y-107720000D02*
X124721000Y-108544000D01*
X124041000Y-107720000D02*
X124041000Y-109009000D01*
X125481000Y-106162000D02*
X125481000Y-107198000D01*
X125521000Y-106396000D02*
X125521000Y-106964000D01*
X123520000Y-107720000D02*
X123520000Y-109191000D01*
X124641000Y-107720000D02*
X124641000Y-108617000D01*
X124081000Y-107720000D02*
X124081000Y-108990000D01*
X123320000Y-107720000D02*
X123320000Y-109230000D01*
X125161000Y-105361000D02*
X125161000Y-107999000D01*
X125121000Y-105297000D02*
X125121000Y-108063000D01*
X123881000Y-104282000D02*
X123881000Y-105640000D01*
X124201000Y-104433000D02*
X124201000Y-105640000D01*
X125241000Y-105502000D02*
X125241000Y-107858000D01*
X124281000Y-107720000D02*
X124281000Y-108880000D01*
X124841000Y-104937000D02*
X124841000Y-105640000D01*
X124521000Y-104645000D02*
X124521000Y-105640000D01*
X124961000Y-105075000D02*
X124961000Y-108285000D01*
X124401000Y-107720000D02*
X124401000Y-108802000D01*
X123681000Y-107720000D02*
X123681000Y-109148000D01*
X123440000Y-107720000D02*
X123440000Y-109208000D01*
X123761000Y-104238000D02*
X123761000Y-105640000D01*
X123280000Y-104124000D02*
X123280000Y-105640000D01*
X123360000Y-107720000D02*
X123360000Y-109223000D01*
X125081000Y-105237000D02*
X125081000Y-108123000D01*
X124761000Y-107720000D02*
X124761000Y-108506000D01*
X123721000Y-107720000D02*
X123721000Y-109135000D01*
X123200000Y-107720000D02*
X123200000Y-109245000D01*
X123000000Y-107720000D02*
X123000000Y-109259000D01*
X123600000Y-107720000D02*
X123600000Y-109171000D01*
X124801000Y-107720000D02*
X124801000Y-108465000D01*
X123641000Y-104200000D02*
X123641000Y-105640000D01*
X124561000Y-104676000D02*
X124561000Y-105640000D01*
X124361000Y-107720000D02*
X124361000Y-108829000D01*
X124321000Y-104505000D02*
X124321000Y-105640000D01*
X124121000Y-104390000D02*
X124121000Y-105640000D01*
X123160000Y-104111000D02*
X123160000Y-105640000D01*
X124641000Y-104743000D02*
X124641000Y-105640000D01*
X123360000Y-104137000D02*
X123360000Y-105640000D01*
X123560000Y-107720000D02*
X123560000Y-109181000D01*
X124241000Y-104456000D02*
X124241000Y-105640000D01*
X120365225Y-104955000D02*
X120365225Y-105455000D01*
X123320000Y-104130000D02*
X123320000Y-105640000D01*
X124601000Y-107720000D02*
X124601000Y-108651000D01*
X123400000Y-107720000D02*
X123400000Y-109216000D01*
X123480000Y-104160000D02*
X123480000Y-105640000D01*
X124521000Y-107720000D02*
X124521000Y-108715000D01*
X124681000Y-107720000D02*
X124681000Y-108581000D01*
X122960000Y-104100000D02*
X122960000Y-105640000D01*
X123560000Y-104179000D02*
X123560000Y-105640000D01*
X124881000Y-104981000D02*
X124881000Y-105640000D01*
X125540000Y-106680000D02*
G75*
G03*
X125540000Y-106680000I-2620000J0D01*
G01*
%TO.C,C2*%
X130541000Y-112800000D02*
X130541000Y-113413000D01*
X129861000Y-112800000D02*
X129861000Y-113984000D01*
X128740000Y-112800000D02*
X128740000Y-114333000D01*
X129781000Y-109492000D02*
X129781000Y-110720000D01*
X129661000Y-109431000D02*
X129661000Y-110720000D01*
X129701000Y-109450000D02*
X129701000Y-110720000D01*
X130221000Y-109789000D02*
X130221000Y-110720000D01*
X130501000Y-112800000D02*
X130501000Y-113459000D01*
X130181000Y-112800000D02*
X130181000Y-113764000D01*
X128700000Y-109184000D02*
X128700000Y-110720000D01*
X130101000Y-109695000D02*
X130101000Y-110720000D01*
X128580000Y-112800000D02*
X128580000Y-114340000D01*
X129261000Y-112800000D02*
X129261000Y-114240000D01*
X129421000Y-109332000D02*
X129421000Y-110720000D01*
X129461000Y-109346000D02*
X129461000Y-110720000D01*
X130301000Y-109859000D02*
X130301000Y-110720000D01*
X129140000Y-109249000D02*
X129140000Y-110720000D01*
X128780000Y-112800000D02*
X128780000Y-114329000D01*
X129381000Y-112800000D02*
X129381000Y-114202000D01*
X129100000Y-112800000D02*
X129100000Y-114280000D01*
X129821000Y-112800000D02*
X129821000Y-114007000D01*
X129941000Y-112800000D02*
X129941000Y-113935000D01*
X128660000Y-112800000D02*
X128660000Y-114338000D01*
X129060000Y-109232000D02*
X129060000Y-110720000D01*
X129981000Y-109611000D02*
X129981000Y-110720000D01*
X130381000Y-109934000D02*
X130381000Y-110720000D01*
X130541000Y-110107000D02*
X130541000Y-110720000D01*
X129581000Y-112800000D02*
X129581000Y-114125000D01*
X128540000Y-109180000D02*
X128540000Y-110720000D01*
X128860000Y-109199000D02*
X128860000Y-110720000D01*
X129581000Y-109395000D02*
X129581000Y-110720000D01*
X129020000Y-109224000D02*
X129020000Y-110720000D01*
X131021000Y-110955000D02*
X131021000Y-112565000D01*
X130821000Y-110509000D02*
X130821000Y-113011000D01*
X130661000Y-110260000D02*
X130661000Y-113260000D01*
X128900000Y-112800000D02*
X128900000Y-114316000D01*
X129621000Y-112800000D02*
X129621000Y-114108000D01*
X131061000Y-111083000D02*
X131061000Y-112437000D01*
X130101000Y-112800000D02*
X130101000Y-113825000D01*
X130061000Y-112800000D02*
X130061000Y-113855000D01*
X129301000Y-109292000D02*
X129301000Y-110720000D01*
X129541000Y-112800000D02*
X129541000Y-114142000D01*
X129421000Y-112800000D02*
X129421000Y-114188000D01*
X129621000Y-109412000D02*
X129621000Y-110720000D01*
X129781000Y-112800000D02*
X129781000Y-114028000D01*
X130421000Y-109975000D02*
X130421000Y-110720000D01*
X130061000Y-109665000D02*
X130061000Y-110720000D01*
X128860000Y-112800000D02*
X128860000Y-114321000D01*
X129461000Y-112800000D02*
X129461000Y-114174000D01*
X129501000Y-112800000D02*
X129501000Y-114158000D01*
X128700000Y-112800000D02*
X128700000Y-114336000D01*
X129541000Y-109378000D02*
X129541000Y-110720000D01*
X129220000Y-109269000D02*
X129220000Y-110720000D01*
X130941000Y-110749000D02*
X130941000Y-112771000D01*
X130621000Y-110206000D02*
X130621000Y-113314000D01*
X130981000Y-110845000D02*
X130981000Y-112675000D01*
X125735225Y-110285000D02*
X126235225Y-110285000D01*
X128540000Y-112800000D02*
X128540000Y-114340000D01*
X129341000Y-109305000D02*
X129341000Y-110720000D01*
X130021000Y-109638000D02*
X130021000Y-110720000D01*
X129741000Y-112800000D02*
X129741000Y-114050000D01*
X129901000Y-109560000D02*
X129901000Y-110720000D01*
X130341000Y-109896000D02*
X130341000Y-110720000D01*
X130461000Y-112800000D02*
X130461000Y-113503000D01*
X130901000Y-110662000D02*
X130901000Y-112858000D01*
X128660000Y-109182000D02*
X128660000Y-110720000D01*
X128820000Y-109195000D02*
X128820000Y-110720000D01*
X128620000Y-109181000D02*
X128620000Y-110720000D01*
X128740000Y-109187000D02*
X128740000Y-110720000D01*
X130341000Y-112800000D02*
X130341000Y-113624000D01*
X129661000Y-112800000D02*
X129661000Y-114089000D01*
X131101000Y-111242000D02*
X131101000Y-112278000D01*
X131141000Y-111476000D02*
X131141000Y-112044000D01*
X129140000Y-112800000D02*
X129140000Y-114271000D01*
X130261000Y-112800000D02*
X130261000Y-113697000D01*
X129701000Y-112800000D02*
X129701000Y-114070000D01*
X128940000Y-112800000D02*
X128940000Y-114310000D01*
X130781000Y-110441000D02*
X130781000Y-113079000D01*
X130741000Y-110377000D02*
X130741000Y-113143000D01*
X129501000Y-109362000D02*
X129501000Y-110720000D01*
X129821000Y-109513000D02*
X129821000Y-110720000D01*
X130861000Y-110582000D02*
X130861000Y-112938000D01*
X129901000Y-112800000D02*
X129901000Y-113960000D01*
X130461000Y-110017000D02*
X130461000Y-110720000D01*
X130141000Y-109725000D02*
X130141000Y-110720000D01*
X130581000Y-110155000D02*
X130581000Y-113365000D01*
X130021000Y-112800000D02*
X130021000Y-113882000D01*
X129301000Y-112800000D02*
X129301000Y-114228000D01*
X129060000Y-112800000D02*
X129060000Y-114288000D01*
X129381000Y-109318000D02*
X129381000Y-110720000D01*
X128900000Y-109204000D02*
X128900000Y-110720000D01*
X128980000Y-112800000D02*
X128980000Y-114303000D01*
X130701000Y-110317000D02*
X130701000Y-113203000D01*
X130381000Y-112800000D02*
X130381000Y-113586000D01*
X129341000Y-112800000D02*
X129341000Y-114215000D01*
X128820000Y-112800000D02*
X128820000Y-114325000D01*
X128620000Y-112800000D02*
X128620000Y-114339000D01*
X129220000Y-112800000D02*
X129220000Y-114251000D01*
X130421000Y-112800000D02*
X130421000Y-113545000D01*
X129261000Y-109280000D02*
X129261000Y-110720000D01*
X130181000Y-109756000D02*
X130181000Y-110720000D01*
X129981000Y-112800000D02*
X129981000Y-113909000D01*
X129941000Y-109585000D02*
X129941000Y-110720000D01*
X129741000Y-109470000D02*
X129741000Y-110720000D01*
X128780000Y-109191000D02*
X128780000Y-110720000D01*
X130261000Y-109823000D02*
X130261000Y-110720000D01*
X128980000Y-109217000D02*
X128980000Y-110720000D01*
X129180000Y-112800000D02*
X129180000Y-114261000D01*
X129861000Y-109536000D02*
X129861000Y-110720000D01*
X125985225Y-110035000D02*
X125985225Y-110535000D01*
X128940000Y-109210000D02*
X128940000Y-110720000D01*
X130221000Y-112800000D02*
X130221000Y-113731000D01*
X129020000Y-112800000D02*
X129020000Y-114296000D01*
X129100000Y-109240000D02*
X129100000Y-110720000D01*
X130141000Y-112800000D02*
X130141000Y-113795000D01*
X130301000Y-112800000D02*
X130301000Y-113661000D01*
X128580000Y-109180000D02*
X128580000Y-110720000D01*
X129180000Y-109259000D02*
X129180000Y-110720000D01*
X130501000Y-110061000D02*
X130501000Y-110720000D01*
X131160000Y-111760000D02*
G75*
G03*
X131160000Y-111760000I-2620000J0D01*
G01*
%TO.C,C1*%
X120381000Y-112800000D02*
X120381000Y-113413000D01*
X119701000Y-112800000D02*
X119701000Y-113984000D01*
X118580000Y-112800000D02*
X118580000Y-114333000D01*
X119621000Y-109492000D02*
X119621000Y-110720000D01*
X119501000Y-109431000D02*
X119501000Y-110720000D01*
X119541000Y-109450000D02*
X119541000Y-110720000D01*
X120061000Y-109789000D02*
X120061000Y-110720000D01*
X120341000Y-112800000D02*
X120341000Y-113459000D01*
X120021000Y-112800000D02*
X120021000Y-113764000D01*
X118540000Y-109184000D02*
X118540000Y-110720000D01*
X119941000Y-109695000D02*
X119941000Y-110720000D01*
X118420000Y-112800000D02*
X118420000Y-114340000D01*
X119101000Y-112800000D02*
X119101000Y-114240000D01*
X119261000Y-109332000D02*
X119261000Y-110720000D01*
X119301000Y-109346000D02*
X119301000Y-110720000D01*
X120141000Y-109859000D02*
X120141000Y-110720000D01*
X118980000Y-109249000D02*
X118980000Y-110720000D01*
X118620000Y-112800000D02*
X118620000Y-114329000D01*
X119221000Y-112800000D02*
X119221000Y-114202000D01*
X118940000Y-112800000D02*
X118940000Y-114280000D01*
X119661000Y-112800000D02*
X119661000Y-114007000D01*
X119781000Y-112800000D02*
X119781000Y-113935000D01*
X118500000Y-112800000D02*
X118500000Y-114338000D01*
X118900000Y-109232000D02*
X118900000Y-110720000D01*
X119821000Y-109611000D02*
X119821000Y-110720000D01*
X120221000Y-109934000D02*
X120221000Y-110720000D01*
X120381000Y-110107000D02*
X120381000Y-110720000D01*
X119421000Y-112800000D02*
X119421000Y-114125000D01*
X118380000Y-109180000D02*
X118380000Y-110720000D01*
X118700000Y-109199000D02*
X118700000Y-110720000D01*
X119421000Y-109395000D02*
X119421000Y-110720000D01*
X118860000Y-109224000D02*
X118860000Y-110720000D01*
X120861000Y-110955000D02*
X120861000Y-112565000D01*
X120661000Y-110509000D02*
X120661000Y-113011000D01*
X120501000Y-110260000D02*
X120501000Y-113260000D01*
X118740000Y-112800000D02*
X118740000Y-114316000D01*
X119461000Y-112800000D02*
X119461000Y-114108000D01*
X120901000Y-111083000D02*
X120901000Y-112437000D01*
X119941000Y-112800000D02*
X119941000Y-113825000D01*
X119901000Y-112800000D02*
X119901000Y-113855000D01*
X119141000Y-109292000D02*
X119141000Y-110720000D01*
X119381000Y-112800000D02*
X119381000Y-114142000D01*
X119261000Y-112800000D02*
X119261000Y-114188000D01*
X119461000Y-109412000D02*
X119461000Y-110720000D01*
X119621000Y-112800000D02*
X119621000Y-114028000D01*
X120261000Y-109975000D02*
X120261000Y-110720000D01*
X119901000Y-109665000D02*
X119901000Y-110720000D01*
X118700000Y-112800000D02*
X118700000Y-114321000D01*
X119301000Y-112800000D02*
X119301000Y-114174000D01*
X119341000Y-112800000D02*
X119341000Y-114158000D01*
X118540000Y-112800000D02*
X118540000Y-114336000D01*
X119381000Y-109378000D02*
X119381000Y-110720000D01*
X119060000Y-109269000D02*
X119060000Y-110720000D01*
X120781000Y-110749000D02*
X120781000Y-112771000D01*
X120461000Y-110206000D02*
X120461000Y-113314000D01*
X120821000Y-110845000D02*
X120821000Y-112675000D01*
X115575225Y-110285000D02*
X116075225Y-110285000D01*
X118380000Y-112800000D02*
X118380000Y-114340000D01*
X119181000Y-109305000D02*
X119181000Y-110720000D01*
X119861000Y-109638000D02*
X119861000Y-110720000D01*
X119581000Y-112800000D02*
X119581000Y-114050000D01*
X119741000Y-109560000D02*
X119741000Y-110720000D01*
X120181000Y-109896000D02*
X120181000Y-110720000D01*
X120301000Y-112800000D02*
X120301000Y-113503000D01*
X120741000Y-110662000D02*
X120741000Y-112858000D01*
X118500000Y-109182000D02*
X118500000Y-110720000D01*
X118660000Y-109195000D02*
X118660000Y-110720000D01*
X118460000Y-109181000D02*
X118460000Y-110720000D01*
X118580000Y-109187000D02*
X118580000Y-110720000D01*
X120181000Y-112800000D02*
X120181000Y-113624000D01*
X119501000Y-112800000D02*
X119501000Y-114089000D01*
X120941000Y-111242000D02*
X120941000Y-112278000D01*
X120981000Y-111476000D02*
X120981000Y-112044000D01*
X118980000Y-112800000D02*
X118980000Y-114271000D01*
X120101000Y-112800000D02*
X120101000Y-113697000D01*
X119541000Y-112800000D02*
X119541000Y-114070000D01*
X118780000Y-112800000D02*
X118780000Y-114310000D01*
X120621000Y-110441000D02*
X120621000Y-113079000D01*
X120581000Y-110377000D02*
X120581000Y-113143000D01*
X119341000Y-109362000D02*
X119341000Y-110720000D01*
X119661000Y-109513000D02*
X119661000Y-110720000D01*
X120701000Y-110582000D02*
X120701000Y-112938000D01*
X119741000Y-112800000D02*
X119741000Y-113960000D01*
X120301000Y-110017000D02*
X120301000Y-110720000D01*
X119981000Y-109725000D02*
X119981000Y-110720000D01*
X120421000Y-110155000D02*
X120421000Y-113365000D01*
X119861000Y-112800000D02*
X119861000Y-113882000D01*
X119141000Y-112800000D02*
X119141000Y-114228000D01*
X118900000Y-112800000D02*
X118900000Y-114288000D01*
X119221000Y-109318000D02*
X119221000Y-110720000D01*
X118740000Y-109204000D02*
X118740000Y-110720000D01*
X118820000Y-112800000D02*
X118820000Y-114303000D01*
X120541000Y-110317000D02*
X120541000Y-113203000D01*
X120221000Y-112800000D02*
X120221000Y-113586000D01*
X119181000Y-112800000D02*
X119181000Y-114215000D01*
X118660000Y-112800000D02*
X118660000Y-114325000D01*
X118460000Y-112800000D02*
X118460000Y-114339000D01*
X119060000Y-112800000D02*
X119060000Y-114251000D01*
X120261000Y-112800000D02*
X120261000Y-113545000D01*
X119101000Y-109280000D02*
X119101000Y-110720000D01*
X120021000Y-109756000D02*
X120021000Y-110720000D01*
X119821000Y-112800000D02*
X119821000Y-113909000D01*
X119781000Y-109585000D02*
X119781000Y-110720000D01*
X119581000Y-109470000D02*
X119581000Y-110720000D01*
X118620000Y-109191000D02*
X118620000Y-110720000D01*
X120101000Y-109823000D02*
X120101000Y-110720000D01*
X118820000Y-109217000D02*
X118820000Y-110720000D01*
X119020000Y-112800000D02*
X119020000Y-114261000D01*
X119701000Y-109536000D02*
X119701000Y-110720000D01*
X115825225Y-110035000D02*
X115825225Y-110535000D01*
X118780000Y-109210000D02*
X118780000Y-110720000D01*
X120061000Y-112800000D02*
X120061000Y-113731000D01*
X118860000Y-112800000D02*
X118860000Y-114296000D01*
X118940000Y-109240000D02*
X118940000Y-110720000D01*
X119981000Y-112800000D02*
X119981000Y-113795000D01*
X120141000Y-112800000D02*
X120141000Y-113661000D01*
X118420000Y-109180000D02*
X118420000Y-110720000D01*
X119020000Y-109259000D02*
X119020000Y-110720000D01*
X120341000Y-110061000D02*
X120341000Y-110720000D01*
X121000000Y-111760000D02*
G75*
G03*
X121000000Y-111760000I-2620000J0D01*
G01*
%TO.C,MPU_TOGGLE1*%
X138430000Y-83759999D02*
G75*
G03*
X136591522Y-88198478I0J-2600001D01*
G01*
X140268478Y-88198478D02*
G75*
G03*
X138430000Y-83760000I-1838478J1838478D01*
G01*
X136630000Y-88210000D02*
X140230000Y-88210000D01*
%TO.C,GPS_TOGGLE1*%
X130810000Y-83759999D02*
G75*
G03*
X128971522Y-88198478I0J-2600001D01*
G01*
X132648478Y-88198478D02*
G75*
G03*
X130810000Y-83760000I-1838478J1838478D01*
G01*
X129010000Y-88210000D02*
X132610000Y-88210000D01*
%TO.C,BLUETOOTH_TOGGLE1*%
X156210000Y-83759999D02*
G75*
G03*
X154371522Y-88198478I0J-2600001D01*
G01*
X158048478Y-88198478D02*
G75*
G03*
X156210000Y-83760000I-1838478J1838478D01*
G01*
X154410000Y-88210000D02*
X158010000Y-88210000D01*
D10*
%TO.C,P1*%
X198628000Y-115316000D02*
X198628000Y-112776000D01*
X196088000Y-69596000D02*
X196088000Y-112776000D01*
X201168000Y-115316000D02*
X201168000Y-69596000D01*
X195808000Y-114046000D02*
X195808000Y-115596000D01*
X195808000Y-115596000D02*
X197358000Y-115596000D01*
X201168000Y-69596000D02*
X196088000Y-69596000D01*
X198628000Y-112776000D02*
X196088000Y-112776000D01*
X201168000Y-115316000D02*
X198628000Y-115316000D01*
%TO.C,P2*%
X150368000Y-117856000D02*
X132588000Y-117856000D01*
X150368000Y-120396000D02*
X150368000Y-117856000D01*
X132588000Y-120396000D02*
X150368000Y-120396000D01*
X132588000Y-120396000D02*
X132588000Y-117856000D01*
X131318000Y-117576000D02*
X129768000Y-117576000D01*
X129768000Y-120676000D02*
X131318000Y-120676000D01*
X129768000Y-117576000D02*
X129768000Y-120676000D01*
%TO.C,P3*%
X152628000Y-117576000D02*
X152628000Y-120676000D01*
X154178000Y-117576000D02*
X152628000Y-117576000D01*
X155448000Y-120396000D02*
X173228000Y-120396000D01*
X173228000Y-117856000D02*
X155448000Y-117856000D01*
X173228000Y-120396000D02*
X173228000Y-117856000D01*
X152628000Y-120676000D02*
X154178000Y-120676000D01*
X155448000Y-120396000D02*
X155448000Y-117856000D01*
%TO.C,P4*%
X175488000Y-120676000D02*
X177038000Y-120676000D01*
X178308000Y-120396000D02*
X196088000Y-120396000D01*
X175488000Y-117576000D02*
X175488000Y-120676000D01*
X178308000Y-120396000D02*
X178308000Y-117856000D01*
X196088000Y-117856000D02*
X178308000Y-117856000D01*
X196088000Y-120396000D02*
X196088000Y-117856000D01*
X177038000Y-117576000D02*
X175488000Y-117576000D01*
%TO.C,P5*%
X123444000Y-72136000D02*
X146304000Y-72136000D01*
X120624000Y-72416000D02*
X122174000Y-72416000D01*
X123444000Y-72136000D02*
X123444000Y-69596000D01*
X122174000Y-69316000D02*
X120624000Y-69316000D01*
X146304000Y-69596000D02*
X123444000Y-69596000D01*
X146304000Y-72136000D02*
X146304000Y-69596000D01*
X120624000Y-69316000D02*
X120624000Y-72416000D01*
%TO.C,P6*%
X147548000Y-69316000D02*
X147548000Y-72416000D01*
X168148000Y-69596000D02*
X150368000Y-69596000D01*
X168148000Y-72136000D02*
X168148000Y-69596000D01*
X150368000Y-72136000D02*
X168148000Y-72136000D01*
X149098000Y-69316000D02*
X147548000Y-69316000D01*
X147548000Y-72416000D02*
X149098000Y-72416000D01*
X150368000Y-72136000D02*
X150368000Y-69596000D01*
%TO.C,P7*%
X191008000Y-72136000D02*
X191008000Y-69596000D01*
X173228000Y-72136000D02*
X191008000Y-72136000D01*
X191008000Y-69596000D02*
X173228000Y-69596000D01*
X173228000Y-72136000D02*
X173228000Y-69596000D01*
X170408000Y-69316000D02*
X170408000Y-72416000D01*
X170408000Y-72416000D02*
X171958000Y-72416000D01*
X171958000Y-69316000D02*
X170408000Y-69316000D01*
%TO.C,P8*%
X119634000Y-119126000D02*
G75*
G03*
X119634000Y-119126000I-2286000J0D01*
G01*
%TO.C,P9*%
X171704000Y-114046000D02*
G75*
G03*
X171704000Y-114046000I-2286000J0D01*
G01*
%TO.C,P10*%
X202184000Y-119126000D02*
G75*
G03*
X202184000Y-119126000I-2286000J0D01*
G01*
%TO.C,P11*%
X120904000Y-70866000D02*
G75*
G03*
X120904000Y-70866000I-2286000J0D01*
G01*
%TO.C,P12*%
X171704000Y-86106000D02*
G75*
G03*
X171704000Y-86106000I-2286000J0D01*
G01*
%TO.C,P13*%
X195834000Y-70866000D02*
G75*
G03*
X195834000Y-70866000I-2286000J0D01*
G01*
D11*
%TO.C,MPU*%
X151130000Y-77410000D02*
X128210000Y-77410000D01*
X153730000Y-80070000D02*
X152400000Y-80070000D01*
X151130000Y-77410000D02*
X151130000Y-80070000D01*
X151130000Y-80070000D02*
X128210000Y-80070000D01*
X128210000Y-77410000D02*
X128210000Y-80070000D01*
X153730000Y-78740000D02*
X153730000Y-80070000D01*
%TO.C,BLUETOOTH*%
X177835000Y-78765000D02*
X177835000Y-80095000D01*
X177835000Y-80095000D02*
X176505000Y-80095000D01*
X175235000Y-77435000D02*
X175235000Y-80095000D01*
X175235000Y-77435000D02*
X162475000Y-77435000D01*
X162475000Y-77435000D02*
X162475000Y-80095000D01*
X175235000Y-80095000D02*
X162475000Y-80095000D01*
%TO.C,IRIDIUM*%
X179070000Y-107890000D02*
X156150000Y-107890000D01*
X179070000Y-107890000D02*
X179070000Y-110550000D01*
X156150000Y-107890000D02*
X156150000Y-110550000D01*
X181670000Y-109220000D02*
X181670000Y-110550000D01*
X179070000Y-110550000D02*
X156150000Y-110550000D01*
X181670000Y-110550000D02*
X180340000Y-110550000D01*
%TO.C,GPS*%
X110490000Y-77435000D02*
X118170000Y-77435000D01*
X107890000Y-78765000D02*
X107890000Y-77435000D01*
X107890000Y-77435000D02*
X109220000Y-77435000D01*
X110490000Y-80095000D02*
X110490000Y-77435000D01*
X118170000Y-80095000D02*
X118170000Y-77435000D01*
X110490000Y-80095000D02*
X118170000Y-80095000D01*
%TD*%
D12*
%TO.C,P1*%
X197358000Y-114046000D03*
D13*
X199898000Y-114046000D03*
X197358000Y-111506000D03*
X199898000Y-111506000D03*
X197358000Y-108966000D03*
X199898000Y-108966000D03*
X197358000Y-106426000D03*
X199898000Y-106426000D03*
X197358000Y-103886000D03*
X199898000Y-103886000D03*
X197358000Y-101346000D03*
X199898000Y-101346000D03*
X197358000Y-98806000D03*
X199898000Y-98806000D03*
X197358000Y-96266000D03*
X199898000Y-96266000D03*
X197358000Y-93726000D03*
X199898000Y-93726000D03*
X197358000Y-91186000D03*
X199898000Y-91186000D03*
X197358000Y-88646000D03*
X199898000Y-88646000D03*
X197358000Y-86106000D03*
X199898000Y-86106000D03*
X197358000Y-83566000D03*
X199898000Y-83566000D03*
X197358000Y-81026000D03*
X199898000Y-81026000D03*
X197358000Y-78486000D03*
X199898000Y-78486000D03*
X197358000Y-75946000D03*
X199898000Y-75946000D03*
X197358000Y-73406000D03*
X199898000Y-73406000D03*
X197358000Y-70866000D03*
X199898000Y-70866000D03*
%TD*%
D14*
%TO.C,P2*%
X131318000Y-119126000D03*
X133858000Y-119126000D03*
X136398000Y-119126000D03*
X138938000Y-119126000D03*
X141478000Y-119126000D03*
X144018000Y-119126000D03*
X146558000Y-119126000D03*
X149098000Y-119126000D03*
%TD*%
%TO.C,P3*%
X154178000Y-119126000D03*
X156718000Y-119126000D03*
X159258000Y-119126000D03*
X161798000Y-119126000D03*
X164338000Y-119126000D03*
X166878000Y-119126000D03*
X169418000Y-119126000D03*
X171958000Y-119126000D03*
%TD*%
%TO.C,P4*%
X177038000Y-119126000D03*
X179578000Y-119126000D03*
X182118000Y-119126000D03*
X184658000Y-119126000D03*
X187198000Y-119126000D03*
X189738000Y-119126000D03*
X192278000Y-119126000D03*
X194818000Y-119126000D03*
%TD*%
%TO.C,P5*%
X122174000Y-70866000D03*
X124714000Y-70866000D03*
X127254000Y-70866000D03*
X129794000Y-70866000D03*
X132334000Y-70866000D03*
X134874000Y-70866000D03*
X137414000Y-70866000D03*
X139954000Y-70866000D03*
X142494000Y-70866000D03*
X145034000Y-70866000D03*
%TD*%
%TO.C,P6*%
X149098000Y-70866000D03*
X151638000Y-70866000D03*
X154178000Y-70866000D03*
X156718000Y-70866000D03*
X159258000Y-70866000D03*
X161798000Y-70866000D03*
X164338000Y-70866000D03*
X166878000Y-70866000D03*
%TD*%
%TO.C,P7*%
X171958000Y-70866000D03*
X174498000Y-70866000D03*
X177038000Y-70866000D03*
X179578000Y-70866000D03*
X182118000Y-70866000D03*
X184658000Y-70866000D03*
X187198000Y-70866000D03*
X189738000Y-70866000D03*
%TD*%
D15*
%TO.C,P8*%
X117348000Y-119126000D03*
%TD*%
%TO.C,P9*%
X169418000Y-114046000D03*
%TD*%
%TO.C,P10*%
X199898000Y-119126000D03*
%TD*%
%TO.C,P11*%
X118618000Y-70866000D03*
%TD*%
%TO.C,P12*%
X169418000Y-86106000D03*
%TD*%
%TO.C,P13*%
X193548000Y-70866000D03*
%TD*%
M02*
