M48
; DRILL file {KiCad (6.0.4-0)} date Friday, June 10, 2022 at 05:16:26 PM
; FORMAT={-:-/ absolute / inch / decimal}
; #@! TF.CreationDate,2022-06-10T17:16:26-07:00
; #@! TF.GenerationSoftware,Kicad,Pcbnew,(6.0.4-0)
; #@! TF.FileFunction,Plated,1,2,PTH
FMAT,2
INCH
; #@! TA.AperFunction,Plated,PTH,ViaDrill
T1C0.0157
; #@! TA.AperFunction,Plated,PTH,ComponentDrill
T2C0.0276
; #@! TA.AperFunction,Plated,PTH,ComponentDrill
T3C0.0295
; #@! TA.AperFunction,Plated,PTH,ComponentDrill
T4C0.0315
; #@! TA.AperFunction,Plated,PTH,ComponentDrill
T5C0.0394
; #@! TA.AperFunction,Plated,PTH,ComponentDrill
T6C0.0400
; #@! TA.AperFunction,Plated,PTH,ComponentDrill
T7C0.0551
; #@! TA.AperFunction,Plated,PTH,ComponentDrill
T8C0.1200
%
G90
G05
T1
X5.9Y-3.8
X5.9Y-3.8
X5.9Y-3.8
T2
X4.8Y-3.3
X4.8Y-3.4
X5.5Y-4.3
X5.5Y-4.4
X5.7Y-4.3
X5.7Y-4.4
X5.8Y-3.4
X5.8Y-3.5
X6.4Y-3.3
X6.4Y-3.4
T3
X5.1Y-3.4
X5.15Y-3.4
X5.2Y-3.4
X5.4Y-3.4
X5.45Y-3.4
X5.5Y-3.4
X6.1Y-3.4
X6.15Y-3.4
X6.2Y-3.4
T4
X4.6213Y-4.4
X4.7Y-4.4
X4.8Y-4.2
X4.8787Y-4.2
X5.0213Y-4.4
X5.1Y-4.4
T5
X4.3Y-3.101
X4.3Y-4.4
X4.3Y-4.5
X4.4Y-3.101
X4.5Y-3.101
X4.6Y-3.101
X5.1Y-3.1
X5.2Y-3.1
X5.3Y-3.1
X5.4Y-3.1
X5.5Y-3.1
X5.5Y-4.0
X5.6Y-3.1
X5.6Y-4.0
X5.7Y-3.1
X5.7Y-4.0
X5.8Y-3.1
X5.8Y-4.0
X5.9Y-3.1
X5.9Y-4.0
X6.0Y-3.1
X6.0Y-4.0
X6.2Y-4.3
X6.3Y-4.3
X6.4Y-4.3
X6.449Y-3.101
X6.5Y-4.3
X6.549Y-3.101
X6.6Y-4.3
X6.649Y-3.101
X6.7Y-4.3
X6.749Y-3.101
X6.8Y-4.3
X6.849Y-3.101
X6.9Y-4.3
X6.949Y-3.101
X7.0Y-4.3
X7.1Y-4.3
X7.5Y-3.1
X7.5Y-3.2
X7.5Y-4.1
X7.5Y-4.2
X7.5Y-4.4
T6
X4.81Y-2.79
X4.91Y-2.79
X5.01Y-2.79
X5.11Y-2.79
X5.17Y-4.69
X5.21Y-2.79
X5.27Y-4.69
X5.31Y-2.79
X5.37Y-4.69
X5.41Y-2.79
X5.47Y-4.69
X5.51Y-2.79
X5.57Y-4.69
X5.61Y-2.79
X5.67Y-4.69
X5.71Y-2.79
X5.77Y-4.69
X5.87Y-2.79
X5.87Y-4.69
X5.97Y-2.79
X6.07Y-2.79
X6.07Y-4.69
X6.17Y-2.79
X6.17Y-4.69
X6.27Y-2.79
X6.27Y-4.69
X6.37Y-2.79
X6.37Y-4.69
X6.47Y-2.79
X6.47Y-4.69
X6.57Y-2.79
X6.57Y-4.69
X6.67Y-4.69
X6.77Y-2.79
X6.77Y-4.69
X6.87Y-2.79
X6.97Y-2.79
X6.97Y-4.69
X7.07Y-2.79
X7.07Y-4.69
X7.17Y-2.79
X7.17Y-4.69
X7.27Y-2.79
X7.27Y-4.69
X7.37Y-2.79
X7.37Y-4.69
X7.47Y-2.79
X7.47Y-4.69
X7.57Y-4.69
X7.67Y-4.69
X7.77Y-2.79
X7.77Y-2.89
X7.77Y-2.99
X7.77Y-3.09
X7.77Y-3.19
X7.77Y-3.29
X7.77Y-3.39
X7.77Y-3.49
X7.77Y-3.59
X7.77Y-3.69
X7.77Y-3.79
X7.77Y-3.89
X7.77Y-3.99
X7.77Y-4.09
X7.77Y-4.19
X7.77Y-4.29
X7.77Y-4.39
X7.77Y-4.49
X7.87Y-2.79
X7.87Y-2.89
X7.87Y-2.99
X7.87Y-3.09
X7.87Y-3.19
X7.87Y-3.29
X7.87Y-3.39
X7.87Y-3.49
X7.87Y-3.59
X7.87Y-3.69
X7.87Y-3.79
X7.87Y-3.89
X7.87Y-3.99
X7.87Y-4.09
X7.87Y-4.19
X7.87Y-4.29
X7.87Y-4.39
X7.87Y-4.49
T7
X7.3Y-3.5
X7.5Y-3.5
T8
X4.62Y-4.69
X4.67Y-2.79
X6.67Y-3.39
X6.67Y-4.49
X7.62Y-2.79
X7.87Y-4.69
T0
M30
